<svg width="20" height="21" viewBox="0 0 20 21" fill="none" xmlns="http://www.w3.org/2000/svg">
<path d="M7 7.0001L10 10.0001L7 13.0001M11 7.0001L14 10.0001L11 13.0001M1 10.0001C0.999125 12.3756 1.93742 14.6551 3.61032 16.3416C5.28321 18.0281 7.55502 18.9848 9.93042 19.0032C12.3058 19.0215 14.5922 18.1 16.2909 16.4396C17.9897 14.7792 18.9631 12.5145 18.999 10.1393C19.0348 7.76406 18.1302 5.471 16.4823 3.76005C14.8344 2.0491 12.577 1.05903 10.2021 1.00569C7.82721 0.952352 5.52756 1.84008 3.80453 3.47532C2.08149 5.11056 1.07482 7.36069 1.004 9.7351L1 10.0001Z" stroke="#040325" stroke-width="2" stroke-linecap="round" stroke-linejoin="round"/>
</svg>
