<svg width="20" height="22" viewBox="0 0 20 22" fill="none" xmlns="http://www.w3.org/2000/svg">
<path d="M12.9997 6.00045L6.4997 12.5005C6.10188 12.8983 5.87838 13.4378 5.87838 14.0005C5.87838 14.5631 6.10188 15.1026 6.4997 15.5005C6.89753 15.8983 7.43709 16.1218 7.9997 16.1218C8.56231 16.1218 9.10188 15.8983 9.4997 15.5005L15.9997 9.00045C16.7954 8.2048 17.2423 7.12567 17.2423 6.00045C17.2423 4.87523 16.7954 3.7961 15.9997 3.00045C15.2041 2.2048 14.1249 1.75781 12.9997 1.75781C11.8745 1.75781 10.7954 2.2048 9.9997 3.00045L3.4997 9.50045C2.30623 10.6939 1.63574 12.3126 1.63574 14.0005C1.63574 15.6883 2.30623 17.307 3.4997 18.5005C4.69318 19.6939 6.31188 20.3644 7.9997 20.3644C9.68753 20.3644 11.3062 19.6939 12.4997 18.5005L18.9997 12.0005" stroke="#00B8BA" stroke-width="2" stroke-linecap="round" stroke-linejoin="round"/>
</svg>
