<svg width="19" height="19" viewBox="0 0 19 19" fill="none" xmlns="http://www.w3.org/2000/svg">
<path d="M8.82917 16.5H3.16667C2.72464 16.5 2.30072 16.3244 1.98816 16.0118C1.67559 15.6993 1.5 15.2754 1.5 14.8333V4.83333C1.5 4.39131 1.67559 3.96738 1.98816 3.65482C2.30072 3.34226 2.72464 3.16667 3.16667 3.16667H13.1667C13.6087 3.16667 14.0326 3.34226 14.3452 3.65482C14.6577 3.96738 14.8333 4.39131 14.8333 4.83333V8.16667H1.5M11.5 1.5V4.83333M4.83333 1.5V4.83333M14 12.7466V14L14.8333 14.8333M17.3333 14C17.3333 15.8409 15.8409 17.3333 14 17.3333C12.1591 17.3333 10.6667 15.8409 10.6667 14C10.6667 12.1591 12.1591 10.6667 14 10.6667C15.8409 10.6667 17.3333 12.1591 17.3333 14Z" stroke="#1C5FAA" stroke-width="2" stroke-linecap="round" stroke-linejoin="round"/>
</svg>
