<svg width="14" height="16" viewBox="0 0 14 16" fill="none" xmlns="http://www.w3.org/2000/svg">
<path d="M3.25 7.25H4.75V8.75H3.25V7.25ZM3.25 10.25H4.75V11.75H3.25V10.25ZM6.25 7.25H7.75V8.75H6.25V7.25ZM6.25 10.25H7.75V11.75H6.25V10.25ZM9.25 7.25H10.75V8.75H9.25V7.25ZM9.25 10.25H10.75V11.75H9.25V10.25Z" fill="#44566C"/>
<path d="M1.75 15.5H12.25C13.0773 15.5 13.75 14.8272 13.75 14V3.5C13.75 2.67275 13.0773 2 12.25 2H10.75V0.5H9.25V2H4.75V0.5H3.25V2H1.75C0.92275 2 0.25 2.67275 0.25 3.5V14C0.25 14.8272 0.92275 15.5 1.75 15.5ZM12.25 5L12.2507 14H1.75V5H12.25Z" fill="#44566C"/>
</svg>
