<svg width="15" height="15" viewBox="0 0 15 15" fill="none" xmlns="http://www.w3.org/2000/svg">
<path d="M10.3333 13L13 10.3334M12.9967 7.20003C13.0369 5.99662 12.7141 4.80894 12.0703 3.79144C11.4264 2.77393 10.4914 1.97368 9.38662 1.49473C8.28189 1.01578 7.05861 0.880292 5.87585 1.10589C4.69308 1.33149 3.60556 1.90773 2.75468 2.75968C1.9038 3.61164 1.32894 4.6999 1.10484 5.88294C0.880737 7.06599 1.01777 8.2891 1.49812 9.39323C1.97847 10.4974 2.77991 11.4314 3.79822 12.0739C4.81654 12.7165 6.00463 13.0378 7.20799 12.996M6.99999 3.6667V7.00003L8.33332 8.33336M13.6667 11.6667C13.6667 12.7713 12.7712 13.6667 11.6667 13.6667C10.5621 13.6667 9.66666 12.7713 9.66666 11.6667C9.66666 10.5621 10.5621 9.6667 11.6667 9.6667C12.7712 9.6667 13.6667 10.5621 13.6667 11.6667Z" stroke="#525A84" stroke-linecap="round" stroke-linejoin="round"/>
</svg>
