<svg width="18" height="21" viewBox="0 0 18 21" fill="none" xmlns="http://www.w3.org/2000/svg">
<path d="M11 18C11 19.1046 10.1046 20 9 20C7.89543 20 7 19.1046 7 18M11 18C11 16.8954 10.1046 16 9 16C7.89543 16 7 16.8954 7 18M11 18H17M7 18H1M7 6H11M9 4V8M9 13L7 11H4C3.73478 11 3.48043 10.8946 3.29289 10.7071C3.10536 10.5196 3 10.2652 3 10V2C3 1.73478 3.10536 1.48043 3.29289 1.29289C3.48043 1.10536 3.73478 1 4 1H14C14.2652 1 14.5196 1.10536 14.7071 1.29289C14.8946 1.48043 15 1.73478 15 2V10C15 10.2652 14.8946 10.5196 14.7071 10.7071C14.5196 10.8946 14.2652 11 14 11H11L9 13Z" stroke="#0E889D" stroke-width="2" stroke-linecap="round" stroke-linejoin="round"/>
</svg>
