<svg width="16" height="17" viewBox="0 0 16 17" fill="none" xmlns="http://www.w3.org/2000/svg">
<path d="M11.05 15.3H4.25C3.5737 15.3 2.9251 15.0313 2.44688 14.5531C1.96866 14.0749 1.7 13.4263 1.7 12.75V4.25C1.7 4.02457 1.61045 3.80837 1.45104 3.64896C1.29163 3.48955 1.07543 3.4 0.85 3.4C0.624566 3.4 0.408365 3.48955 0.248959 3.64896C0.0895533 3.80837 0 4.02457 0 4.25V12.75C0 13.8772 0.447767 14.9582 1.2448 15.7552C2.04183 16.5522 3.12283 17 4.25 17H11.05C11.2754 17 11.4916 16.9104 11.651 16.751C11.8104 16.5916 11.9 16.3754 11.9 16.15C11.9 15.9246 11.8104 15.7084 11.651 15.549C11.4916 15.3896 11.2754 15.3 11.05 15.3ZM5.95 9.35C5.95 9.57543 6.03955 9.79163 6.19896 9.95104C6.35837 10.1104 6.57457 10.2 6.8 10.2H11.05C11.2754 10.2 11.4916 10.1104 11.651 9.95104C11.8104 9.79163 11.9 9.57543 11.9 9.35C11.9 9.12457 11.8104 8.90837 11.651 8.74896C11.4916 8.58955 11.2754 8.5 11.05 8.5H6.8C6.57457 8.5 6.35837 8.58955 6.19896 8.74896C6.03955 8.90837 5.95 9.12457 5.95 9.35ZM15.3 5.899C15.2911 5.82091 15.2741 5.74399 15.249 5.6695V5.593C15.2081 5.5056 15.1536 5.42527 15.0875 5.355L9.9875 0.255C9.91723 0.188884 9.8369 0.134369 9.7495 0.0934999C9.72413 0.0898961 9.69837 0.0898961 9.673 0.0934999C9.58665 0.0439801 9.49129 0.0121926 9.3925 0H5.95C5.2737 0 4.6251 0.26866 4.14688 0.746878C3.66866 1.2251 3.4 1.8737 3.4 2.55V11.05C3.4 11.7263 3.66866 12.3749 4.14688 12.8531C4.6251 13.3313 5.2737 13.6 5.95 13.6H12.75C13.4263 13.6 14.0749 13.3313 14.5531 12.8531C15.0313 12.3749 15.3 11.7263 15.3 11.05V5.95C15.3 5.95 15.3 5.95 15.3 5.899ZM10.2 2.8985L12.4015 5.1H11.05C10.8246 5.1 10.6084 5.01045 10.449 4.85104C10.2896 4.69163 10.2 4.47543 10.2 4.25V2.8985ZM13.6 11.05C13.6 11.2754 13.5104 11.4916 13.351 11.651C13.1916 11.8104 12.9754 11.9 12.75 11.9H5.95C5.72457 11.9 5.50837 11.8104 5.34896 11.651C5.18955 11.4916 5.1 11.2754 5.1 11.05V2.55C5.1 2.32457 5.18955 2.10837 5.34896 1.94896C5.50837 1.78955 5.72457 1.7 5.95 1.7H8.5V4.25C8.5023 4.53997 8.55404 4.82743 8.653 5.1H6.8C6.57457 5.1 6.35837 5.18955 6.19896 5.34896C6.03955 5.50837 5.95 5.72457 5.95 5.95C5.95 6.17543 6.03955 6.39163 6.19896 6.55104C6.35837 6.71045 6.57457 6.8 6.8 6.8H13.6V11.05Z" fill="#00B3D3"/>
</svg>
