<svg width="20" height="20" viewBox="0 0 20 20" fill="none" xmlns="http://www.w3.org/2000/svg">
<path fill-rule="evenodd" clip-rule="evenodd" d="M10 0.838379C4.48 0.838379 0 4.95643 0 10.0305C0 15.1045 4.48 19.2225 10 19.2225C15.52 19.2225 20 15.1045 20 10.0305C20 4.95643 15.52 0.838379 10 0.838379ZM11.41 15.6284V17.3841H8.74V15.61C7.03 15.2791 5.58 14.268 5.47 12.4847H7.43C7.53 13.4499 8.25 14.2037 10.08 14.2037C12.04 14.2037 12.48 13.3028 12.48 12.7421C12.48 11.9792 12.04 11.2622 9.81 10.775C7.33 10.2235 5.63 9.28589 5.63 7.40152C5.63 5.82048 7.02 4.79097 8.74 4.45086V2.67679H11.41V4.46925C13.27 4.88289 14.2 6.17897 14.26 7.58536H12.3C12.25 6.56504 11.66 5.86644 10.08 5.86644C8.58 5.86644 7.68 6.4915 7.68 7.37394C7.68 8.14608 8.33 8.65164 10.35 9.12963C12.37 9.60762 14.53 10.4073 14.53 12.7237C14.52 14.4059 13.15 15.3251 11.41 15.6284Z" fill="#2E41FB"/>
</svg>
