<svg width="20" height="16" viewBox="0 0 20 16" fill="none" xmlns="http://www.w3.org/2000/svg">
<path d="M15.573 14.407L18.407 11.573C18.5951 11.385 18.7443 11.1617 18.8461 10.916C18.9479 10.6703 19.0003 10.407 19.0003 10.141C19.0003 9.87507 18.9479 9.61172 18.8461 9.36601C18.7443 9.12031 18.5951 8.89706 18.407 8.70902L11.29 1.59302M3.99999 5H3.98999M5.859 2H3.025C2.48794 2 1.97287 2.21335 1.59311 2.59311C1.21335 2.97287 1 3.48794 1 4.025V6.859C1 7.396 1.213 7.911 1.593 8.291L7.709 14.407C7.89704 14.5951 8.12029 14.7443 8.366 14.846C8.6117 14.9478 8.87505 15.0002 9.141 15.0002C9.40695 15.0002 9.6703 14.9478 9.91601 14.846C10.1617 14.7443 10.385 14.5951 10.573 14.407L13.407 11.573C13.5951 11.385 13.7443 11.1617 13.846 10.916C13.9478 10.6703 14.0002 10.407 14.0002 10.141C14.0002 9.87505 13.9478 9.6117 13.846 9.366C13.7443 9.12029 13.5951 8.89704 13.407 8.709L7.29 2.593C6.91044 2.2135 6.39574 2.00021 5.859 2Z" stroke="#1B5EAA" stroke-width="2" stroke-linecap="round" stroke-linejoin="round"/>
</svg>
