<svg width="204" height="35" viewBox="0 0 204 35" fill="none" xmlns="http://www.w3.org/2000/svg">
<path d="M203.583 4.20175H198.001C197.051 5.44083 195.076 7.08499 193.444 7.4861V4.20175H188.738V19.7101H193.444V11.6481L194.241 11.3185C196.216 13.1771 198.53 16.5012 199.137 19.7101H203.996C203.541 17.776 202.856 15.9531 201.872 14.162C200.81 12.2994 199.596 10.7307 198.228 9.38046C200.315 8.21287 202.632 5.94917 203.583 4.19778V4.20175ZM189.499 29.305C189.118 29.7776 188.775 30.143 188.437 30.4369C188.094 30.7307 187.829 30.8737 187.677 30.8737C187.449 30.8737 187.334 30.7268 187.334 30.4726C187.334 30.3614 187.371 30.2184 187.408 30.0357L186.346 30.5481C186.272 30.695 186.231 30.8777 186.231 31.0961C186.231 31.3503 186.346 31.533 186.495 31.7156C186.685 31.8983 186.912 31.9698 187.255 31.9698C187.598 31.9698 187.937 31.8586 188.28 31.6044C188.623 31.386 188.961 31.0921 189.267 30.7307C189.532 30.4011 189.912 29.9643 190.292 29.4917L190.445 29.5631C190.407 29.5989 190.37 29.7101 190.292 29.8173C189.912 30.3654 189.722 30.8737 189.722 31.2391C189.722 31.4575 189.796 31.6402 189.949 31.7871C190.102 31.8983 190.292 31.9698 190.482 31.9698C190.783 31.9698 191.354 31.6799 192.267 31.1319L192.568 30.2184C192.415 30.3257 192.188 30.4369 191.924 30.5481C191.696 30.6593 191.506 30.7307 191.428 30.7665H191.275C191.122 30.7307 191.048 30.6195 191.048 30.4726C191.048 30.3614 191.085 30.1072 191.238 29.7419C191.391 29.3407 191.544 29.0111 191.692 28.6855L192.564 26.9698L191.614 26.4972C191.349 26.9341 191.006 27.3709 190.626 27.8832C190.283 28.3956 189.866 28.8682 189.486 29.305H189.499ZM185.057 32.3352C185.59 31.2033 186.425 29.6346 187.602 27.6291L186.652 27.1565C186.197 27.923 185.702 28.5425 185.284 29.0548C184.83 29.6029 184.413 29.9682 184.07 30.2224C183.727 30.4766 183.5 30.6235 183.351 30.6593H183.235C183.12 30.6593 183.082 30.5878 183.082 30.4766C183.082 30.3654 183.272 29.9643 183.652 29.2732L184.941 27.0095L183.954 26.4972C183.458 27.3352 182.967 28.2129 182.438 29.162C181.942 30.1112 181.715 30.7665 181.715 31.1676C181.715 31.4575 181.752 31.6402 181.905 31.7871C182.021 31.8983 182.169 31.9698 182.322 31.9698C182.929 31.9698 183.801 31.386 185.016 30.1827L185.09 30.2542C184.9 30.5441 184.747 30.8022 184.599 31.0207C183.611 32.5894 183.004 33.8324 182.739 34.7776L183.88 34.996C184.107 34.3765 184.487 33.4988 185.057 32.3312V32.3352ZM181.488 19.7101H186.193V4.20175H181.488V8.57824H176.022V4.20175H171.316V19.7101H176.022V12.0492H181.488V19.7101ZM170.783 26.6442C170.518 26.6442 170.213 26.7156 169.833 26.8268C169.49 26.9738 169.188 27.1168 168.882 27.3392L169.3 27.923C169.374 27.8872 169.415 27.8515 169.49 27.8157C169.527 27.8157 169.564 27.78 169.605 27.7442C169.948 27.5616 170.176 27.4901 170.287 27.4901C170.477 27.4901 170.589 27.6013 170.589 27.8197C170.589 28.1493 170.324 28.6974 169.866 29.4996C169.221 30.556 168.688 31.1041 168.234 31.1041C167.932 31.1041 167.817 30.8856 167.817 30.5203C167.817 30.3376 167.854 30.1191 167.969 29.9007L166.87 30.3376C166.833 30.4845 166.796 30.6672 166.796 30.8499C166.796 31.1795 166.912 31.4337 167.098 31.6521C167.325 31.8705 167.589 31.9817 167.932 31.9817C168.197 31.9817 168.502 31.9102 168.845 31.7633C169.147 31.6164 169.527 31.3979 169.944 31.0683C170.361 30.7387 170.857 30.3376 171.349 29.8292C171.386 29.7935 171.465 29.7577 171.502 29.6823C171.576 29.6108 171.655 29.5711 171.692 29.5353C171.729 29.4639 171.808 29.4241 171.882 29.3527L171.919 29.3884L170.667 31.7236L171.427 32.089C171.692 31.6124 171.96 31.251 172.188 30.9571C172.378 30.6632 172.605 30.4448 172.758 30.3018C172.911 30.1549 173.101 30.0079 173.291 29.865L173.365 29.7935L173.439 29.722L173.514 29.7577C173.489 29.7816 173.477 29.8054 173.477 29.8292L173.439 29.865C173.439 29.9007 173.402 29.9007 173.402 29.9365C173.138 30.3018 173.022 30.6315 173.022 30.9929C173.022 31.6481 173.324 31.9778 173.935 31.9778C174.505 31.9778 175.187 31.6878 176.022 31.1398L176.327 30.2264C176.1 30.3733 175.757 30.5203 175.303 30.7387C174.885 30.9214 174.621 31.0286 174.468 31.0286C174.278 31.0286 174.204 30.8459 174.204 30.4805C174.204 30.1509 174.394 29.7498 174.774 29.2772C175.191 28.8006 175.799 28.3638 176.67 27.8912L176.253 27.1962C175.951 27.3074 175.53 27.5258 175.001 27.8515C174.431 28.1811 173.786 28.6894 173.026 29.3129C172.873 29.4202 172.799 29.4956 172.799 29.4956H172.725C172.762 29.4241 172.878 29.166 173.105 28.7649L173.902 27.3789L173.295 27.0135C172.952 27.5258 172.497 27.9984 172.043 28.4353C171.589 28.8721 171.171 29.2375 170.866 29.4559H170.791C170.866 29.3487 170.907 29.309 170.907 29.2732C170.944 29.2375 170.981 29.2017 170.981 29.162C171.006 29.1382 171.031 29.1144 171.056 29.0905C171.056 29.0548 171.093 29.0191 171.13 28.9436C171.51 28.471 171.7 27.9944 171.7 27.5933C171.7 26.938 171.394 26.6442 170.787 26.6442H170.783ZM165.053 19.7101H169.8C169.457 17.9944 169.077 16.3542 168.585 14.6386C168.548 14.4917 168.469 14.2375 168.395 13.9079L167.788 12.0453C167.482 11.2788 167.217 10.5481 166.953 9.85703C166.651 9.16203 166.383 8.54249 166.118 7.99444C165.474 6.64416 164.751 5.40508 163.954 4.20175H159.475C158.979 4.89277 158.603 5.55203 158.26 6.17156L157.88 6.9023L157.69 7.33916C157.463 7.74027 157.31 8.17712 157.12 8.61795C156.36 10.2581 155.678 12.085 155.071 14.166C154.765 15.1509 154.501 16.0286 154.274 16.8308C154.046 17.633 153.856 18.5822 153.629 19.7141H158.372C158.562 18.7649 158.752 17.8912 158.979 17.089H164.561C164.788 17.8197 164.904 18.9118 165.053 19.7141V19.7101ZM163.611 13.8364H159.888C160.343 12.1962 161.028 10.2979 161.747 8.80064C162.508 10.0397 163.268 12.4146 163.607 13.8364H163.611ZM152.414 11.6839C150.745 9.49563 146.188 9.34869 143.152 9.7498V7.66878H151.617V4.20175H138.405V19.7101H146.035C147.704 19.7101 149.642 19.4202 151.084 18.5782C153.629 17.081 154.046 13.9436 152.414 11.6799V11.6839ZM148.618 14.4956C148.58 15.8102 147.477 16.4654 145.465 16.4654H143.152L143.114 12.8157C144.631 12.633 148.618 12.2677 148.618 14.4956ZM138.595 27.7045C138.595 27.4146 138.52 27.1922 138.367 27.0095C138.214 26.7911 137.987 26.7156 137.644 26.7156C137.227 26.7156 136.81 26.8268 136.314 27.0453C135.822 27.2994 135.364 27.5933 134.909 27.9944C134.455 28.3956 134.075 28.8324 133.81 29.309C133.505 29.7816 133.393 30.2581 133.393 30.695C133.393 31.533 133.847 31.9738 134.723 31.9738C134.988 31.9738 135.256 31.938 135.521 31.9023C135.785 31.8308 136.091 31.7554 136.434 31.6481C136.777 31.5369 137.194 31.3542 137.686 31.1358L137.991 30.2224C136.74 30.7705 135.864 31.0246 135.372 31.0246C135.182 31.0246 135.029 30.9889 134.918 30.8777C134.843 30.7665 134.802 30.6593 134.802 30.5481C134.802 30.2184 134.918 29.8531 135.182 29.3805C135.409 28.9039 135.715 28.5028 136.091 28.1771C136.434 27.8118 136.735 27.6648 137.004 27.6648C137.12 27.6648 137.157 27.6648 137.231 27.7006C137.268 27.772 137.306 27.8118 137.306 27.8475C137.306 27.919 137.231 28.1017 137.115 28.3241L137.987 28.8364C138.177 28.6537 138.33 28.471 138.442 28.2883C138.553 28.0699 138.595 27.8872 138.595 27.7045ZM125.233 7.67276H130.435V4.20175H115.326V7.66878H120.528V19.7101H125.233V7.66878V7.67276ZM113.921 28.9833C113.43 29.0548 113.124 29.1303 113.008 29.166L114.149 27.0492L113.198 26.6124L110.463 31.7196L111.566 32.085L112.628 30.0397C113.347 29.7855 113.996 29.6743 114.525 29.6386C114.223 30.1867 114.033 30.552 113.954 30.7347C113.88 30.8817 113.843 31.0643 113.843 31.1716C113.843 31.4257 113.917 31.6084 114.107 31.7554C114.26 31.9023 114.45 31.9738 114.715 31.9738C115.016 31.9738 115.702 31.6839 116.727 31.1358L116.991 30.2224C116.574 30.4051 116.384 30.5163 116.347 30.552C115.892 30.7705 115.586 30.8817 115.438 30.8817C115.289 30.8817 115.21 30.8102 115.21 30.6632C115.21 30.552 115.285 30.4091 115.363 30.2264C115.4 30.2264 115.4 30.1549 115.438 30.0794C115.475 30.0079 115.475 29.9722 115.512 29.9325L116.764 27.4504L115.814 27.0492L114.901 28.9118C114.673 28.9118 114.33 28.9118 113.913 28.9833H113.921ZM108.988 19.7141H113.694V4.20175H108.988C107.468 5.55203 105.154 8.50675 104.394 10.6235H104.32C103.56 8.50675 101.246 5.55203 99.7256 4.20175H95.0199V19.7101H99.7256V10.0794C100.977 11.5766 102.271 14.8967 102.799 17.1207H105.915C106.448 14.8967 107.737 11.5727 108.988 10.0794V19.7141ZM96.6146 26.8308C96.123 26.8308 95.59 27.0492 94.9455 27.4504C94.301 27.8872 93.768 28.3995 93.3136 29.0191C92.8591 29.6029 92.6319 30.1509 92.6319 30.6235C92.6319 31.0961 92.7476 31.4257 92.9748 31.6442C93.202 31.8626 93.4664 31.9738 93.735 31.9738C94.1523 31.9738 94.6067 31.8268 95.1397 31.4615C95.6313 31.1319 96.0114 30.8062 96.28 30.5123C96.3543 30.4408 96.3956 30.4011 96.4328 30.3654H96.5072C96.5072 30.4011 96.47 30.4766 96.4328 30.5481C96.3585 30.6195 96.3585 30.7307 96.3213 30.7665C96.2841 30.838 96.2469 30.9134 96.2056 31.0207C96.2056 31.1319 96.1684 31.2391 96.1684 31.3503C96.1684 31.4972 96.2428 31.6442 96.3957 31.7871C96.5485 31.8983 96.7386 31.9698 96.9658 31.9698C97.1558 31.9698 97.4574 31.8983 97.8003 31.7156C98.1804 31.533 98.482 31.3503 98.7506 31.1319L99.0563 30.2184C98.8663 30.3257 98.6019 30.4726 98.2589 30.6195C97.916 30.7665 97.6888 30.838 97.6144 30.838C97.4988 30.838 97.4244 30.7665 97.4244 30.6195C97.4244 30.4726 97.5401 30.2184 97.7673 29.8173L98.9819 27.5179L97.9945 27.0056L97.8417 27.2994C97.5359 26.9698 97.16 26.8268 96.627 26.8268L96.6146 26.8308ZM95.7801 27.9984C96.2345 27.7045 96.6146 27.5218 96.9203 27.5218C97.1476 27.5218 97.3748 27.633 97.5277 27.8157L96.846 29.0905C96.7303 29.309 96.5031 29.5671 96.1643 29.857C95.8586 30.1509 95.5198 30.3693 95.1769 30.5878C94.8339 30.8062 94.6067 30.9174 94.4167 30.9174C94.1523 30.9174 94.0366 30.7347 94.0366 30.3336C94.0366 30.004 94.1894 29.6029 94.5695 29.166C94.9124 28.7292 95.2925 28.328 95.7842 27.9984H95.7801ZM92.9335 15.2621C93.3136 14.2772 93.5408 13.1454 93.5408 11.942C93.5408 11.6124 93.5036 11.251 93.4664 10.8459C93.3921 10.4805 93.3136 10.0794 93.2392 9.71406C93.1648 9.34869 93.0491 9.01906 92.9376 8.69341C92.7847 8.36378 92.6732 8.07387 92.4831 7.74424C91.7601 6.50516 90.7727 5.556 89.5209 4.861C88.8764 4.53137 88.1533 4.2772 87.3973 4.09452C85.8769 3.76489 83.9434 3.76489 82.423 4.09452C81.6628 4.2772 80.9439 4.53137 80.2953 4.861C79.0434 5.556 78.056 6.50516 77.2958 7.74424C77.143 8.07387 77.0314 8.36378 76.8785 8.69341C76.7629 9.02303 76.6513 9.34869 76.577 9.71406C76.5026 10.0794 76.4241 10.4805 76.3497 10.8459C76.3125 11.247 76.2753 11.6124 76.2753 11.942C76.2753 13.1454 76.5026 14.2772 76.8827 15.2621C77.2628 16.247 77.8701 17.1247 78.6303 17.8515C79.3905 18.5465 80.2994 19.0905 81.3653 19.4559C83.5674 20.2581 86.2611 20.2581 88.4632 19.4559C89.525 19.0905 90.4381 18.5425 91.1941 17.8515C91.9543 17.1207 92.5616 16.247 92.9417 15.2621H92.9335ZM88.645 12.2319L88.6078 12.78L88.4549 13.7291C88.2649 14.3844 87.922 15.0437 87.3518 15.6275C86.7817 16.2113 86.0215 16.5409 84.9969 16.5409H84.8069C83.7822 16.5409 83.0221 16.2113 82.4519 15.6275C81.8818 15.0437 81.5389 14.3884 81.3529 13.7291L81.2001 12.78L81.1629 12.2319V11.942C81.1629 11.2113 81.2744 10.4845 81.5058 9.75377C81.733 9.02303 82.1503 8.47498 82.7205 8.00238C83.2534 7.63701 83.8607 7.41859 84.6168 7.38284C84.8068 7.3471 84.9969 7.3471 85.187 7.38284C85.9471 7.41859 86.5545 7.63701 87.0833 8.00238C87.6534 8.47498 88.0707 9.02303 88.298 9.75377C88.5252 10.4845 88.6409 11.2113 88.6409 11.942V12.2319H88.645ZM75.5482 24.9682C75.0566 24.9682 74.788 24.6386 74.788 24.0548L73.6477 24.0905C73.6477 25.1867 74.1435 25.695 75.1268 25.695C75.9614 25.695 76.6844 25.3654 77.3661 24.6386C77.4032 24.6029 77.4817 24.4917 77.6305 24.3447L77.0975 23.9079C76.4902 24.6029 75.9944 24.9682 75.5399 24.9682H75.5482ZM70.1194 19.7141H74.8624V4.20175C72.4331 4.20175 70.3095 3.98332 67.8389 4.38443C59.7536 5.73471 59.5635 13.0342 60.018 19.7101H64.7609C64.5337 15.7347 64.4593 11.3185 66.5085 9.23749C67.5703 8.14138 68.7106 8.0699 70.1153 8.0699V19.7101L70.1194 19.7141ZM61.7284 23.2168C61.0054 23.5822 60.3609 24.0905 59.7164 24.7141C59.0719 25.3693 58.5761 26.1001 58.2001 26.9023C57.82 27.7045 57.63 28.5425 57.63 29.3844C57.63 29.9325 57.7044 30.4051 57.9316 30.8062C58.1216 31.2073 58.4274 31.5369 58.8033 31.7554C59.1462 31.938 59.5635 32.0453 60.018 32.0453C60.4724 32.0453 60.9682 31.9738 61.4599 31.7911C61.9515 31.6084 62.4101 31.39 62.7489 31.1358L63.0505 30.2224C62.7076 30.4766 62.2903 30.6593 61.8358 30.8419C61.3814 31.0246 60.9641 31.0961 60.584 31.0961C60.0139 31.0961 59.5966 30.9492 59.3322 30.695C59.0677 30.4051 58.9149 29.9643 58.9149 29.3805C58.9149 28.7212 59.1049 28.0302 59.4065 27.3352C59.7122 26.6402 60.1295 25.9849 60.6584 25.4011C61.15 24.8173 61.683 24.3447 62.2531 24.0151C62.7861 23.6497 63.2777 23.467 63.7322 23.467C63.9594 23.467 64.1123 23.5385 64.2238 23.6497C64.3395 23.7609 64.3767 23.9039 64.3767 24.0151C64.3767 24.2693 64.1866 24.5631 63.8437 24.9285C63.4636 25.2939 63.1207 25.5838 62.7406 25.8419L63.7281 26.39C64.3354 26.0246 64.7898 25.6593 65.0956 25.2581C65.3972 24.8928 65.55 24.4917 65.55 24.0905C65.55 23.6894 65.3972 23.3598 65.0956 23.0699C64.7527 22.8157 64.3354 22.6688 63.7652 22.6688C63.1207 22.6688 62.4349 22.8515 61.716 23.2168H61.7284ZM58.2001 15.2621C58.6174 14.2772 58.8075 13.1454 58.8075 11.942C58.8075 11.6124 58.7703 11.251 58.7331 10.8459C58.6959 10.4805 58.6174 10.0794 58.5059 9.71406C58.4315 9.34869 58.3158 9.01906 58.2043 8.69341C58.0886 8.36378 57.9398 8.07387 57.787 7.74424C57.0268 6.50516 56.0394 5.556 54.7875 4.861C54.143 4.53137 53.4572 4.2772 52.7011 4.09452C52.0194 3.94758 51.2964 3.87609 50.5362 3.84035H49.8545C49.0944 3.87609 48.3755 3.94758 47.6897 4.09452C46.9295 4.2772 46.2478 4.53137 45.6033 4.861C44.3514 5.556 43.364 6.50516 42.6038 7.74424C42.4509 8.07387 42.2981 8.36378 42.1865 8.69341C42.0337 9.02303 41.9593 9.34869 41.8436 9.71406C41.7692 10.0794 41.6907 10.4805 41.6536 10.8459C41.5792 11.247 41.5792 11.6124 41.5792 11.942C41.5792 13.1454 41.7692 14.2772 42.1493 15.2621C42.5666 16.247 43.1368 17.1247 43.897 17.8515C44.6571 18.5465 45.5661 19.0905 46.6692 19.4559C47.731 19.857 48.9084 20.0397 50.1603 20.0397H50.2346C51.4865 20.0397 52.6639 19.857 53.7257 19.4559C54.8247 19.0905 55.7378 18.5425 56.4566 17.8515C57.254 17.1207 57.8242 16.247 58.2043 15.2621H58.2001ZM53.9488 12.2319L53.8745 12.78L53.7216 13.7291C53.5687 14.3844 53.1886 15.0437 52.6185 15.6275C52.0855 16.2113 51.2882 16.5409 50.3049 16.5409H50.0776C49.0902 16.5409 48.2928 16.2113 47.7599 15.6275C47.1897 15.0437 46.8096 14.3884 46.6609 13.7291L46.4709 12.78L46.4337 12.2319V11.942C46.4337 11.2113 46.5494 10.4845 46.8138 9.75377C47.041 9.02303 47.4583 8.47498 48.0284 8.00238C48.5201 7.63701 49.1687 7.41859 49.9248 7.38284C50.0776 7.3471 50.2677 7.3471 50.4577 7.38284C51.2179 7.41859 51.8624 7.63701 52.3541 8.00238C52.9242 8.47498 53.3415 9.02303 53.5687 9.75377C53.8332 10.4845 53.9488 11.2113 53.9488 11.942V12.2319ZM35.0432 7.67276H41.6081V4.20175H30.2961V19.7101H35.0432V7.66878V7.67276ZM0 23.8999H24.8343V0H0V23.8999ZM10.9154 1.57268C15.8112 0.877681 20.4054 3.43527 22.4174 7.48213C22.7975 8.28435 23.3305 9.5274 23.3305 10.4369H13.6132L10.1221 16.5687H6.54839L11.6342 7.48213H18.6949C17.3274 5.5838 15.0138 4.45195 12.4688 4.45195C8.13901 4.45195 4.64791 7.80778 4.64791 11.9341C4.64791 16.0604 8.13901 19.4122 12.4688 19.4122C14.9353 19.4122 17.2159 18.2804 18.6578 16.4932H13.5719L15.3195 13.4631H23.3305C23.1776 14.5592 22.876 15.5441 22.3802 16.4932C20.8226 19.5592 17.7116 21.8229 14.0305 22.3312C8.03159 23.1334 2.4541 19.1581 1.61954 13.4273C0.739535 7.70453 4.91646 2.37887 10.9154 1.57268ZM64.4965 29.0151C64.042 29.5989 63.8148 30.1469 63.8148 30.6195C63.8148 31.0921 63.9305 31.4218 64.1949 31.6402C64.4221 31.8586 64.6494 31.9698 64.9138 31.9698C65.3311 31.9698 65.8227 31.8229 66.3185 31.4575C66.8514 31.1279 67.2274 30.8022 67.4588 30.5083C67.5331 30.4369 67.6116 30.3971 67.6488 30.3614H67.686C67.686 30.3971 67.6488 30.4726 67.6116 30.5441C67.5745 30.6156 67.5373 30.7268 67.496 30.7625C67.496 30.834 67.4588 30.9095 67.4216 31.0167C67.3844 31.1279 67.3844 31.2351 67.3844 31.3463C67.3844 31.4932 67.4216 31.6402 67.5745 31.7832C67.7273 31.8944 67.9174 31.9658 68.1446 31.9658C68.3718 31.9658 68.6362 31.8944 69.0163 31.7117C69.3593 31.529 69.6609 31.3463 69.9666 31.1279L70.2682 30.2145C70.0409 30.3217 69.7724 30.4686 69.4336 30.6156C69.132 30.7625 68.9007 30.834 68.8263 30.834C68.6734 30.834 68.6362 30.7625 68.6362 30.6156C68.6362 30.4686 68.7519 30.2145 68.942 29.8133L70.1566 27.5139L69.1692 27.0016L69.0163 27.2955C68.7519 26.9658 68.3346 26.8229 67.8389 26.8229C67.3431 26.8229 66.7771 27.0413 66.1326 27.4424C65.4881 27.8793 64.9551 28.3916 64.5006 29.0111L64.4965 29.0151ZM65.2154 30.3296C65.2154 30 65.4054 29.5989 65.7483 29.162C66.0913 28.7252 66.5085 28.3241 66.963 27.9944C67.4175 27.7006 67.7976 27.5179 68.1033 27.5179C68.3677 27.5179 68.5577 27.6291 68.7478 27.8118L68.0248 29.0866C67.9091 29.305 67.6819 29.5631 67.3803 29.8531C67.0745 30.1469 66.7358 30.3654 66.3929 30.5838C66.0499 30.8022 65.7855 30.9134 65.6327 30.9134C65.3682 30.9134 65.2154 30.7307 65.2154 30.3296ZM70.4913 30.5838C70.3384 30.8777 70.3012 31.1319 70.3012 31.2788C70.3012 31.533 70.3384 31.7156 70.4913 31.8268C70.607 31.9341 70.7557 31.9738 70.9086 31.9738C71.4787 31.9738 72.3504 31.4257 73.5279 30.2939C73.8708 29.9285 74.0981 29.7458 74.0981 29.7458L74.1724 29.7816C73.6808 30.4369 73.4536 30.9134 73.4122 31.2033V31.4575C73.4122 31.6044 73.4866 31.7514 73.6395 31.8229C73.7551 31.9301 73.8667 31.9698 74.0196 31.9698C74.1724 31.9698 74.5112 31.8586 74.9285 31.6799C75.3829 31.4972 75.7259 31.3145 75.9903 31.1319L76.3332 30.2184C76.0688 30.3257 75.8374 30.4369 75.6102 30.5481C75.3045 30.7307 75.1144 30.8022 75.0029 30.8022C74.85 30.8022 74.7756 30.7307 74.7756 30.5838C74.7756 30.5123 74.8128 30.4011 74.85 30.3296L76.3662 27.5933L75.416 27.1565C75.1516 27.6291 74.8459 28.0302 74.5443 28.3241C74.2798 28.6537 73.8213 29.0548 73.2552 29.5631C72.8008 29.9643 72.495 30.2184 72.3463 30.3296C72.1935 30.4408 72.0819 30.5123 71.9662 30.5123C71.8505 30.5123 71.8134 30.4408 71.8134 30.3296V30.2939C71.8134 30.2581 71.8505 30.1469 71.929 30L73.561 27.0453L72.6107 26.5727C71.929 27.776 71.4333 28.6537 71.1317 29.2732C70.8259 29.857 70.5987 30.2939 70.4871 30.5878L70.4913 30.5838ZM78.8038 26.6044L76.1101 31.7117L77.2091 32.077L78.2337 30.0318C78.9525 29.7776 79.6012 29.6664 80.1713 29.6307C79.8656 30.1787 79.6756 30.5441 79.6012 30.7268C79.5268 30.8737 79.4896 31.0564 79.4896 31.1636C79.4896 31.4178 79.564 31.6005 79.7169 31.7474C79.9069 31.8944 80.097 31.9658 80.3242 31.9658C80.6671 31.9658 81.3488 31.6759 82.3362 31.1279L82.642 30.2145C82.2247 30.3971 82.0346 30.5083 81.9603 30.5441C81.543 30.7625 81.2373 30.8737 81.0885 30.8737C80.9398 30.8737 80.8613 30.8022 80.8613 30.6553C80.8613 30.5441 80.9357 30.4011 81.0142 30.2184L81.0885 30.0715C81.0885 30 81.1257 29.9643 81.1257 29.9245L82.4147 27.4424L81.4645 27.0413L80.5556 28.9039C80.3283 28.9039 79.9854 28.9039 79.531 28.9754C79.0765 29.0469 78.7708 29.1223 78.6592 29.1581L79.7995 27.0413L78.8121 26.6044H78.8038ZM88.141 29.305C87.8765 29.7776 87.7237 30.2542 87.7237 30.691C87.7237 31.529 88.1781 31.9698 89.0912 31.9698C89.3556 31.9698 89.6242 31.9341 89.8886 31.8983C90.153 31.8268 90.4587 31.7514 90.7975 31.6442C91.1032 31.533 91.5577 31.3503 92.0493 31.1319L92.3551 30.2184C91.066 30.7665 90.1902 31.0207 89.6985 31.0207C89.5085 31.0207 89.3969 30.9849 89.2812 30.8737C89.2069 30.7625 89.1284 30.6553 89.1284 30.5441C89.1284 30.2145 89.2812 29.8491 89.5085 29.3765C89.7729 28.8999 90.0786 28.4988 90.4215 28.1732C90.8016 27.8078 91.1032 27.6608 91.3718 27.6608C91.4461 27.6608 91.5246 27.6608 91.5618 27.6966C91.6362 27.7681 91.6362 27.8078 91.6362 27.8435C91.6362 27.915 91.599 28.0977 91.4461 28.3201L92.3592 28.8324C92.5121 28.6497 92.6608 28.467 92.7765 28.2844C92.888 28.0659 92.9665 27.8832 92.9665 27.7006C92.9665 27.4106 92.8922 27.1882 92.7393 27.0056C92.5864 26.7871 92.322 26.7117 92.0163 26.7117C91.599 26.7117 91.1445 26.8229 90.6488 27.0413C90.1943 27.2955 89.6985 27.5894 89.2441 27.9905C88.8268 28.3916 88.4467 28.8284 88.1451 29.305H88.141ZM106.134 24.6346L106.439 24.3407L105.869 23.9039C105.299 24.5989 104.766 24.9643 104.349 24.9643C103.857 24.9643 103.589 24.6346 103.589 24.0508L102.448 24.0866C102.448 25.1827 102.944 25.691 103.927 25.691C104.725 25.691 105.485 25.3614 106.129 24.6346H106.134ZM99.2629 30.5838C99.1472 30.8777 99.0728 31.1319 99.0728 31.2788C99.0728 31.533 99.1472 31.7156 99.2629 31.8268C99.4158 31.9341 99.5273 31.9738 99.6802 31.9738C100.25 31.9738 101.122 31.4257 102.3 30.2939C102.68 29.9285 102.87 29.7458 102.907 29.7458L102.944 29.7816C102.49 30.4369 102.221 30.9134 102.184 31.2033V31.4575C102.221 31.6044 102.3 31.7514 102.411 31.8229C102.523 31.9301 102.675 31.9698 102.791 31.9698C102.981 31.9698 103.287 31.8586 103.741 31.6799C104.006 31.5687 104.233 31.4615 104.423 31.3503C104.46 31.5687 104.576 31.7156 104.688 31.7871C104.878 31.8983 105.068 31.9698 105.295 31.9698C105.902 31.9698 106.584 31.533 107.307 30.6553C107.381 30.5441 107.46 30.4726 107.534 30.4369C107.571 30.3654 107.608 30.3257 107.65 30.2542C107.877 31.386 108.257 31.9698 108.864 31.9698C109.092 31.9698 109.356 31.8983 109.662 31.6799C109.926 31.4972 110.195 31.3145 110.385 31.1319L110.691 30.2184C110.538 30.3257 110.273 30.4726 109.968 30.6195C109.666 30.7665 109.476 30.838 109.323 30.838C108.906 30.838 108.641 30.4369 108.563 29.6346C109.513 28.7212 110.459 27.919 111.409 27.2637L110.538 26.8268C110.195 27.1168 109.93 27.3749 109.74 27.5179C109.587 27.6648 109.397 27.8475 109.17 28.0302C108.98 28.2129 108.716 28.4313 108.41 28.7212C108.41 28.1732 108.373 27.5179 108.373 26.7871L107.348 26.2748C107.311 26.5687 107.311 26.8229 107.311 27.077C107.311 27.772 107.385 28.5743 107.501 29.448C106.968 29.996 106.588 30.3614 106.361 30.5798C106.134 30.7625 105.981 30.8737 105.828 30.8737C105.638 30.8737 105.522 30.7268 105.522 30.4726C105.522 30.3614 105.522 30.2184 105.596 30.0357L105.101 30.2899V30.2184C104.873 30.3257 104.609 30.4369 104.419 30.5481C104.113 30.7307 103.886 30.8022 103.774 30.8022C103.663 30.8022 103.584 30.7307 103.584 30.5838C103.584 30.5123 103.622 30.4011 103.659 30.3296L105.138 27.5933L104.225 27.1565C103.923 27.6291 103.655 28.0302 103.353 28.3241C103.051 28.6537 102.63 29.0548 102.064 29.5631C101.61 29.9643 101.304 30.2184 101.151 30.3296C100.998 30.4408 100.849 30.5123 100.734 30.5123C100.659 30.5123 100.581 30.4408 100.581 30.3296V30.2939C100.581 30.2581 100.618 30.1469 100.697 30L102.328 27.0453L101.378 26.5727C100.734 27.776 100.238 28.6537 99.9363 29.2732C99.5934 29.857 99.3662 30.2939 99.2546 30.5878L99.2629 30.5838ZM117.71 29.0151C117.33 29.7061 117.14 30.2542 117.14 30.7307C117.14 31.0961 117.255 31.386 117.557 31.6442C117.821 31.8626 118.127 31.9738 118.47 31.9738C118.962 31.9738 119.458 31.8268 119.912 31.5012C120.329 31.2073 120.709 30.8459 120.974 30.4408C121.28 30.0397 121.428 29.7101 121.428 29.4559C121.428 29.3844 121.428 29.3487 121.465 29.309C121.503 29.309 121.618 29.2732 121.808 29.2375C122.073 29.166 122.3 29.0548 122.49 28.9436C122.643 28.8721 122.754 28.7967 122.833 28.7609L122.907 28.8324C122.68 29.1263 122.374 29.5631 122.073 30.1112C121.771 30.6235 121.618 31.0604 121.618 31.3145C121.618 31.7514 121.883 31.9698 122.379 31.9698C122.643 31.9698 122.949 31.8983 123.287 31.7156C123.668 31.5687 123.969 31.386 124.275 31.1319L124.576 30.2184C123.932 30.691 123.436 30.9095 123.209 30.9095C123.056 30.9095 122.982 30.838 122.982 30.691C122.982 30.6195 123.019 30.4726 123.097 30.2899C123.213 30.1072 123.287 29.9245 123.362 29.7776L124.614 27.6251L123.742 27.1525C123.626 27.3709 123.399 27.6251 123.135 27.8435C122.87 28.062 122.564 28.2446 122.222 28.3916C121.879 28.5385 121.54 28.6458 121.197 28.6855C121.007 28.5385 120.742 28.4313 120.284 28.4313C120.094 28.4313 119.867 28.5385 119.602 28.6855C119.375 28.8324 119.222 28.9754 119.222 29.1223L119.375 29.4519C119.412 29.5234 119.449 29.5631 119.528 29.5631C119.528 29.5631 119.718 29.5631 120.061 29.4917H120.135C120.16 29.5155 120.172 29.5393 120.172 29.5631V29.5989C120.172 29.7101 120.057 29.8928 119.908 30.1469C119.718 30.4369 119.528 30.695 119.263 30.9134C119.036 31.1318 118.809 31.243 118.582 31.243C118.466 31.243 118.392 31.1716 118.317 31.0961C118.243 31.0246 118.202 30.9134 118.202 30.7665C118.202 30.5838 118.239 30.4369 118.276 30.3296C118.35 30.1827 118.429 30 118.578 29.7458C119.111 28.7609 119.602 27.8872 120.135 27.0453L119.185 26.6084C118.578 27.5218 118.086 28.3241 117.706 29.0191L117.71 29.0151ZM126.365 28.7212C125.225 29.7816 124.696 30.5838 124.696 31.1676C124.696 31.386 124.771 31.5687 124.924 31.7156C125.114 31.8983 125.378 31.9698 125.721 31.9698C126.022 31.9698 126.403 31.8983 126.82 31.7156C127.237 31.533 127.617 31.3503 127.96 31.1319L128.266 30.2184C128.001 30.4011 127.659 30.5481 127.241 30.7307C126.824 30.9134 126.56 30.9849 126.407 30.9849C126.295 30.9849 126.217 30.9849 126.179 30.9134C126.105 30.8777 126.105 30.8062 126.105 30.7307C126.105 30.4766 126.56 29.9285 127.547 29.0151C127.89 28.7212 128.154 28.4313 128.344 28.2129C128.497 28.0302 128.572 27.776 128.572 27.4821C128.572 27.0453 128.344 26.8268 127.811 26.8268C127.167 26.8268 126.481 27.0453 125.647 27.5179L125.989 28.1017C126.522 27.8475 126.824 27.7363 126.977 27.7006H127.13C127.204 27.7006 127.245 27.772 127.245 27.8118C127.245 27.8832 127.171 27.9587 127.093 28.0659C126.981 28.1732 126.865 28.2844 126.75 28.3956C126.634 28.5068 126.522 28.614 126.37 28.7252L126.365 28.7212ZM138.929 29.0151C138.475 29.5989 138.248 30.1469 138.248 30.6195C138.248 31.0921 138.363 31.4218 138.59 31.6402C138.855 31.8586 139.082 31.9698 139.351 31.9698C139.768 31.9698 140.222 31.8229 140.755 31.4575C141.288 31.1279 141.668 30.8022 141.896 30.5083C141.97 30.4369 142.048 30.3971 142.086 30.3614H142.123C142.123 30.3971 142.086 30.4726 142.048 30.5441C142.011 30.6156 141.974 30.7268 141.933 30.7625C141.896 30.834 141.896 30.9095 141.858 31.0167C141.821 31.1279 141.821 31.2351 141.821 31.3463C141.821 31.4932 141.858 31.6402 142.011 31.7832C142.164 31.8944 142.354 31.9658 142.581 31.9658C142.809 31.9658 143.073 31.8944 143.453 31.7117C143.796 31.529 144.098 31.3463 144.403 31.1279L144.668 30.2145C144.478 30.3217 144.213 30.4686 143.87 30.6156C143.528 30.7625 143.338 30.834 143.226 30.834C143.114 30.834 143.073 30.7625 143.073 30.6156C143.073 30.4686 143.189 30.2145 143.375 29.8133L144.589 27.5139L143.602 27.0016L143.449 27.2955C143.185 26.9658 142.767 26.8229 142.272 26.8229C141.776 26.8229 141.21 27.0413 140.561 27.4424C139.917 27.8793 139.384 28.3916 138.929 29.0111V29.0151ZM139.652 30.3296C139.652 30 139.842 29.5989 140.185 29.162C140.528 28.7252 140.945 28.3241 141.4 27.9944C141.854 27.7006 142.234 27.5179 142.54 27.5179C142.805 27.5179 142.995 27.6291 143.185 27.8118L142.462 29.0866C142.346 29.305 142.119 29.5631 141.817 29.8531C141.474 30.1469 141.173 30.3654 140.83 30.5838C140.487 30.8022 140.222 30.9134 140.07 30.9134C139.805 30.9134 139.652 30.7307 139.652 30.3296ZM147.13 26.6084L144.436 31.7156L145.535 32.081L146.56 30.0357C147.283 29.7816 147.928 29.6704 148.498 29.6346C148.192 30.1827 148.006 30.5481 147.928 30.7307C147.853 30.8777 147.812 31.0604 147.812 31.1676C147.812 31.4218 147.886 31.6044 148.039 31.7514C148.229 31.8983 148.419 31.9698 148.646 31.9698C148.952 31.9698 149.481 31.7871 150.241 31.386C150.278 31.5687 150.353 31.7156 150.506 31.7871C150.696 31.8983 150.886 31.9698 151.076 31.9698C151.72 31.9698 152.365 31.533 153.125 30.6553C153.199 30.5441 153.278 30.4726 153.315 30.4369C153.352 30.3654 153.431 30.3257 153.468 30.2542C153.658 31.386 154.075 31.9698 154.683 31.9698C154.91 31.9698 155.137 31.8983 155.443 31.6799C155.744 31.4972 155.976 31.3145 156.203 31.1319L156.505 30.2184C156.314 30.3257 156.087 30.4726 155.782 30.6195C155.48 30.7665 155.249 30.838 155.1 30.838C154.683 30.838 154.418 30.4369 154.34 29.6346C155.29 28.7212 156.236 27.919 157.186 27.2637L156.314 26.8268C155.972 27.1168 155.744 27.3749 155.517 27.5179C155.364 27.6648 155.174 27.8475 154.984 28.0302C154.757 28.2129 154.53 28.4313 154.224 28.7212C154.187 28.1732 154.15 27.5179 154.15 26.7871L153.125 26.2748C153.125 26.5687 153.088 26.8229 153.088 27.077C153.088 27.772 153.162 28.5743 153.278 29.448C152.782 29.996 152.406 30.3614 152.179 30.5798C151.952 30.7625 151.762 30.8737 151.646 30.8737C151.419 30.8737 151.303 30.7268 151.303 30.4726C151.303 30.3614 151.34 30.2184 151.377 30.0357L150.923 30.2542L150.96 30.2184C150.543 30.4011 150.316 30.5123 150.278 30.5481C149.861 30.7665 149.555 30.8777 149.407 30.8777C149.258 30.8777 149.179 30.8062 149.179 30.6593C149.179 30.5481 149.217 30.4051 149.332 30.2224C149.332 30.2224 149.369 30.1509 149.407 30.0755C149.407 30.004 149.444 29.9682 149.444 29.9285L150.733 27.4464L149.745 27.0453L148.874 28.9079C148.646 28.9079 148.304 28.9079 147.849 28.9793C147.395 29.0508 147.089 29.1263 146.977 29.162L148.118 27.0453L147.13 26.6084ZM157.302 29.162C156.806 30.1112 156.542 30.7665 156.542 31.1676C156.542 31.4575 156.616 31.6402 156.769 31.7871C156.885 31.8983 157.033 31.9698 157.186 31.9698C157.756 31.9698 158.665 31.386 159.88 30.1827L159.954 30.2542C159.764 30.5441 159.611 30.8022 159.463 31.0207C158.475 32.5894 157.831 33.8324 157.566 34.7776L158.744 34.996C158.971 34.3765 159.351 33.4988 159.884 32.3312C160.454 31.1994 161.289 29.6307 162.466 27.6251L161.516 27.1525C161.024 27.919 160.566 28.5385 160.111 29.0508C159.657 29.5989 159.277 29.9643 158.934 30.2184C158.591 30.4726 158.364 30.6195 158.215 30.6553H158.099C157.984 30.6553 157.946 30.5838 157.946 30.4726C157.946 30.3614 158.136 29.9603 158.517 29.2693L159.806 27.0056L158.818 26.4932C158.322 27.3312 157.794 28.2089 157.298 29.1581L157.302 29.162ZM162.615 29.162C162.123 30.1112 161.892 30.7665 161.892 31.1676C161.892 31.4575 161.929 31.6402 162.082 31.7871C162.198 31.8983 162.346 31.9698 162.499 31.9698C163.069 31.9698 163.978 31.386 165.193 30.1827L165.267 30.2542C165.077 30.5441 164.924 30.8022 164.776 31.0207C163.788 32.5894 163.144 33.8324 162.917 34.7776L164.057 34.996C164.284 34.3765 164.664 33.4988 165.234 32.3312C165.767 31.1994 166.602 29.6307 167.779 27.6251L166.829 27.1525C166.375 27.919 165.879 28.5385 165.424 29.0508C165.007 29.5989 164.59 29.9643 164.247 30.2184C163.904 30.4726 163.677 30.6195 163.524 30.6553H163.408C163.297 30.6553 163.255 30.5838 163.255 30.4726C163.255 30.3614 163.445 29.9603 163.826 29.2693L165.115 27.0056L164.127 26.4932C163.631 27.3312 163.14 28.2089 162.611 29.1581L162.615 29.162ZM177.116 29.162C176.625 30.1112 176.356 30.7665 176.356 31.1676C176.356 31.4575 176.431 31.6402 176.584 31.7871C176.699 31.8983 176.848 31.9698 177.001 31.9698C177.571 31.9698 178.48 31.386 179.695 30.1827L179.769 30.2542C179.579 30.5441 179.426 30.8022 179.277 31.0207C178.29 32.5894 177.645 33.8324 177.418 34.7776L178.558 34.996C178.786 34.3765 179.166 33.4988 179.699 32.3312C180.269 31.1994 181.103 29.6307 182.281 27.6251L181.331 27.1525C180.839 27.919 180.38 28.5385 179.926 29.0508C179.471 29.5989 179.091 29.9643 178.748 30.2184C178.405 30.4726 178.178 30.6195 178.025 30.6553H177.91C177.794 30.6553 177.757 30.5838 177.757 30.4726C177.757 30.3614 177.947 29.9603 178.327 29.2693L179.616 27.0056L178.629 26.4932C178.133 27.3312 177.641 28.2089 177.108 29.1581L177.116 29.162ZM195.035 26.6084L192.304 31.7156L193.444 32.081L194.469 30.0357C195.192 29.7816 195.836 29.6704 196.365 29.6346C196.101 30.1827 195.911 30.5481 195.832 30.7307C195.758 30.8777 195.679 31.0604 195.679 31.1676C195.679 31.4218 195.795 31.6044 195.944 31.7514C196.096 31.8983 196.324 31.9698 196.551 31.9698C196.894 31.9698 197.538 31.6799 198.526 31.1319C198.6 31.3145 198.716 31.4615 198.869 31.6044C199.133 31.8586 199.513 31.9698 199.972 31.9698C200.732 31.9698 201.414 31.7871 202.021 31.4218C202.591 31.0564 203.046 30.6195 203.389 30.0357C203.69 29.4877 203.843 28.9396 203.843 28.3916C203.843 27.919 203.727 27.5179 203.463 27.1525C203.198 26.8229 202.818 26.6402 202.323 26.6402C201.715 26.6402 201.108 26.9341 200.501 27.4782L201.034 28.0977C201.529 27.6608 201.905 27.4424 202.174 27.4424C202.327 27.4424 202.475 27.5139 202.591 27.5894C202.707 27.7006 202.744 27.8435 202.744 28.1017C202.744 28.3598 202.67 28.6497 202.554 28.9793C202.174 28.8324 201.835 28.7967 201.414 28.7967C201.034 28.7967 200.691 28.8682 200.426 29.0508L200.996 29.7816C201.224 29.5989 201.488 29.4917 201.831 29.4917C201.947 29.4917 202.095 29.5274 202.285 29.5631C202.021 30.0357 201.678 30.4011 201.335 30.695C200.955 30.9889 200.575 31.1319 200.195 31.1319C199.968 31.1319 199.778 31.0604 199.703 30.9134C199.588 30.7665 199.55 30.6235 199.55 30.4408C199.55 30.2939 199.588 30.1112 199.625 29.8928L198.563 30.3296V30.3654C198.336 30.4766 198.22 30.5123 198.183 30.5481C197.766 30.7665 197.46 30.8777 197.27 30.8777C197.154 30.8777 197.08 30.8062 197.08 30.6593C197.08 30.5481 197.117 30.4051 197.233 30.2224C197.233 30.2224 197.233 30.1509 197.27 30.0755C197.307 30.004 197.344 29.9682 197.344 29.9285L198.633 27.4464L197.646 27.0453L196.737 28.9079C196.51 28.9079 196.204 28.9079 195.749 28.9793C195.254 29.0508 194.989 29.1263 194.836 29.162L195.977 27.0453L195.026 26.6084H195.035Z" fill="url(#paint0_linear_592_7035)"/>
<defs>
<linearGradient id="paint0_linear_592_7035" x1="0" y1="0" x2="53.4563" y2="108.895" gradientUnits="userSpaceOnUse">
<stop stop-color="#FF4B9A"/>
<stop offset="0.465827" stop-color="#AD61FF"/>
<stop offset="0.982618" stop-color="#5CDFCB"/>
</linearGradient>
</defs>
</svg>
