<svg width="20" height="20" viewBox="0 0 20 20" fill="none" xmlns="http://www.w3.org/2000/svg">
<path d="M18 4C18 5.10457 17.1046 6 16 6M18 4C18 2.89543 17.1046 2 16 2M18 4H19M16 6C14.8954 6 14 5.10457 14 4M16 6V14M14 4C14 2.89543 14.8954 2 16 2M14 4H1M16 2V1M6 10C6 11.1046 5.10457 12 4 12M6 10C6 8.89543 5.10457 8 4 8M6 10H19M4 12C2.89543 12 2 11.1046 2 10M4 12V14M2 10C2 8.89543 2.89543 8 4 8M2 10H1M4 8V1M6 16C6 17.1046 5.10457 18 4 18M6 16C6 14.8954 5.10457 14 4 14M6 16H14M4 18C2.89543 18 2 17.1046 2 16M4 18V19M2 16C2 14.8954 2.89543 14 4 14M2 16H1M18 16C18 17.1046 17.1046 18 16 18M18 16C18 14.8954 17.1046 14 16 14M18 16H19M16 18C14.8954 18 14 17.1046 14 16M16 18V19M14 16C14 14.8954 14.8954 14 16 14M10 1V19" stroke="#B452D9" stroke-width="2" stroke-linecap="round" stroke-linejoin="round"/>
</svg>
