<svg width="16" height="16" viewBox="0 0 16 16" fill="none" xmlns="http://www.w3.org/2000/svg">
<path d="M0 0V14.8571H9.84615V13.7143H1.23077V1.14286H7.38462V4.57143H11.0769V5.71429H12.3077V3.77143L12.1231 3.6L8.43077 0.171429L8.24615 0H0ZM8.61539 1.94286L10.2154 3.42857H8.61539V1.94286ZM2.46154 5.71429V6.85714H9.84615V5.71429H2.46154ZM12.9231 6.85714V8C11.8769 8.17143 11.0769 8.97143 11.0769 10C11.0769 11.1429 12 12 13.2308 12H13.8462C14.3385 12 14.7692 12.4 14.7692 12.8571C14.7692 13.3143 14.3385 13.7143 13.8462 13.7143H11.6923V14.8571H12.9231V16H14.1538V14.8571C15.2 14.6857 16 13.8857 16 12.8571C16 11.7143 15.0769 10.8571 13.8462 10.8571H13.2308C12.7385 10.8571 12.3077 10.4571 12.3077 10C12.3077 9.54286 12.7385 9.14286 13.2308 9.14286H15.3846V8H14.1538V6.85714H12.9231ZM2.46154 8.57143V9.71429H6.76923V8.57143H2.46154ZM8 8.57143V9.71429H9.84615V8.57143H8ZM2.46154 10.8571V12H6.76923V10.8571H2.46154ZM8 10.8571V12H9.84615V10.8571H8Z" fill="#324BFE"/>
</svg>
