<svg width="27" height="24" viewBox="0 0 27 24" fill="none" xmlns="http://www.w3.org/2000/svg">
<path d="M12.4111 9H17.8576M12.4111 5H23.304H12.4111Z" stroke="white" stroke-width="2" stroke-linecap="round" stroke-linejoin="round"/>
<path d="M6.96463 5H4.78606C4.18447 5 3.69678 5.44772 3.69678 6V8C3.69678 8.55228 4.18447 9 4.78606 9H6.96463C7.56623 9 8.05392 8.55228 8.05392 8V6C8.05392 5.44772 7.56623 5 6.96463 5Z" stroke="white" stroke-width="2" stroke-linecap="round" stroke-linejoin="round"/>
<path d="M12.4111 19H17.8576M12.4111 15H23.304H12.4111Z" stroke="white" stroke-width="2" stroke-linecap="round" stroke-linejoin="round"/>
<path d="M6.96463 15H4.78606C4.18447 15 3.69678 15.4477 3.69678 16V18C3.69678 18.5523 4.18447 19 4.78606 19H6.96463C7.56623 19 8.05392 18.5523 8.05392 18V16C8.05392 15.4477 7.56623 15 6.96463 15Z" stroke="white" stroke-width="2" stroke-linecap="round" stroke-linejoin="round"/>
</svg>
