<svg width="85" height="85" viewBox="0 0 85 85" fill="none" xmlns="http://www.w3.org/2000/svg">
<g clip-path="url(#clip0_9929_2570)">
<path d="M12.4 0H72.25C79.09 0 84.65 5.56 84.65 12.4V72.25C84.65 79.09 79.09 84.65 72.25 84.65H12.4C5.56 84.65 0 79.09 0 72.25V12.4C0 5.56 5.56 0 12.4 0Z" fill="#2E3192"/>
<path d="M72.37 64.7901L41.79 17.8601L11.2 64.7901L41.79 34.0401L72.37 64.7901Z" fill="#66FF33"/>
<path d="M43.1799 64.7899H69.0899L56.1299 51.6499L43.1799 64.7899Z" fill="#FFDE17"/>
<path d="M14.71 64.7899H40.61L27.66 51.6499L14.71 64.7899Z" fill="#ED1940"/>
<path d="M41.7827 37.5113L29.1113 50.1826L41.7827 62.854L54.454 50.1826L41.7827 37.5113Z" fill="#84D1F5"/>
</g>
<defs>
<clipPath id="clip0_9929_2570">
<rect width="84.65" height="84.65" fill="white"/>
</clipPath>
</defs>
</svg>
