<svg width="22" height="22" viewBox="0 0 22 22" fill="none" xmlns="http://www.w3.org/2000/svg">
<path d="M1.10141 15.5H13.3986C13.4776 15.5001 13.5558 15.4845 13.6288 15.4543C13.7018 15.4241 13.7681 15.3798 13.824 15.324C13.8798 15.2681 13.9241 15.2018 13.9543 15.1288C13.9845 15.0558 14.0001 14.9776 14 14.8986V13.1014C14.0001 13.0224 13.9845 12.9442 13.9543 12.8712C13.9241 12.7982 13.8798 12.7319 13.824 12.676C13.7681 12.6202 13.7018 12.5759 13.6288 12.5457C13.5558 12.5155 13.4776 12.4999 13.3986 12.5H1.10141C1.02241 12.4999 0.944179 12.5155 0.871185 12.5457C0.798192 12.5759 0.731869 12.6202 0.676011 12.676C0.620153 12.7319 0.575856 12.7982 0.545654 12.8712C0.515452 12.9442 0.499939 13.0224 0.5 13.1014V14.8986C0.499939 14.9776 0.515452 15.0558 0.545654 15.1288C0.575856 15.2018 0.620153 15.2681 0.676011 15.324C0.731869 15.3798 0.798192 15.4241 0.871185 15.4543C0.944179 15.4845 1.02241 15.5001 1.10141 15.5ZM1.10141 3.5H13.3986C13.4776 3.50006 13.5558 3.48455 13.6288 3.45435C13.7018 3.42414 13.7681 3.37985 13.824 3.32399C13.8798 3.26813 13.9241 3.20181 13.9543 3.12881C13.9845 3.05582 14.0001 2.97759 14 2.89859V1.10141C14.0001 1.02241 13.9845 0.944179 13.9543 0.871185C13.9241 0.798192 13.8798 0.731869 13.824 0.67601C13.7681 0.620152 13.7018 0.575856 13.6288 0.545654C13.5558 0.515452 13.4776 0.499939 13.3986 0.5H1.10141C1.02241 0.499939 0.944179 0.515452 0.871185 0.545654C0.798192 0.575856 0.731869 0.620152 0.676011 0.67601C0.620153 0.731869 0.575856 0.798192 0.545654 0.871185C0.515452 0.944179 0.499939 1.02241 0.5 1.10141V2.89859C0.499939 2.97759 0.515452 3.05582 0.545654 3.12881C0.575856 3.20181 0.620153 3.26813 0.676011 3.32399C0.731869 3.37985 0.798192 3.42414 0.871185 3.45435C0.944179 3.48455 1.02241 3.50006 1.10141 3.5ZM20.75 6.5H1.25C1.05109 6.5 0.860322 6.57902 0.71967 6.71967C0.579018 6.86032 0.5 7.05109 0.5 7.25V8.75C0.5 8.94891 0.579018 9.13968 0.71967 9.28033C0.860322 9.42098 1.05109 9.5 1.25 9.5H20.75C20.9489 9.5 21.1397 9.42098 21.2803 9.28033C21.421 9.13968 21.5 8.94891 21.5 8.75V7.25C21.5 7.05109 21.421 6.86032 21.2803 6.71967C21.1397 6.57902 20.9489 6.5 20.75 6.5ZM20.75 18.5H1.25C1.05109 18.5 0.860322 18.579 0.71967 18.7197C0.579018 18.8603 0.5 19.0511 0.5 19.25V20.75C0.5 20.9489 0.579018 21.1397 0.71967 21.2803C0.860322 21.421 1.05109 21.5 1.25 21.5H20.75C20.9489 21.5 21.1397 21.421 21.2803 21.2803C21.421 21.1397 21.5 20.9489 21.5 20.75V19.25C21.5 19.0511 21.421 18.8603 21.2803 18.7197C21.1397 18.579 20.9489 18.5 20.75 18.5Z" fill="white"/>
</svg>
