<svg width="22" height="26" viewBox="0 0 22 26" fill="none" xmlns="http://www.w3.org/2000/svg">
<path d="M13.6666 7.66667H10.3333C9.80286 7.66667 9.29415 7.87738 8.91908 8.25245C8.54401 8.62753 8.33329 9.13623 8.33329 9.66667C8.33329 10.1971 8.54401 10.7058 8.91908 11.0809C9.29415 11.456 9.80286 11.6667 10.3333 11.6667H11.6666C12.1971 11.6667 12.7058 11.8774 13.0808 12.2525C13.4559 12.6275 13.6666 13.1362 13.6666 13.6667C13.6666 14.1971 13.4559 14.7058 13.0808 15.0809C12.7058 15.456 12.1971 15.6667 11.6666 15.6667H8.33329M11 15.6667V17.6667M11 5.66667V7.66667M1.66663 25V3.66667C1.66663 2.95942 1.94758 2.28115 2.44767 1.78105C2.94777 1.28095 3.62605 1 4.33329 1H17.6666C18.3739 1 19.0521 1.28095 19.5522 1.78105C20.0523 2.28115 20.3333 2.95942 20.3333 3.66667V25L16.3333 22.3333L13.6666 25L11 22.3333L8.33329 25L5.66663 22.3333L1.66663 25Z" stroke="#00B3D3" stroke-width="2" stroke-linecap="round" stroke-linejoin="round"/>
</svg>
