<svg width="154" height="166" viewBox="0 0 154 166" fill="none" xmlns="http://www.w3.org/2000/svg">
<path d="M70 140C108.66 140 140 108.66 140 70C140 31.3401 108.66 0 70 0C31.3401 0 0 31.3401 0 70C0 108.66 31.3401 140 70 140Z" fill="#F5F6FF"/>
<path d="M35.6519 39.2323C37.7721 39.2323 39.4908 37.5135 39.4908 35.3934C39.4908 33.2732 37.7721 31.5544 35.6519 31.5544C33.5317 31.5544 31.813 33.2732 31.813 35.3934C31.813 37.5135 33.5317 39.2323 35.6519 39.2323Z" fill="url(#paint0_linear_5679_12107)"/>
<path d="M87.4035 118.342C89.5394 118.342 91.2709 116.611 91.2709 114.475C91.2709 112.339 89.5394 110.608 87.4035 110.608C85.2676 110.608 83.5361 112.339 83.5361 114.475C83.5361 116.611 85.2676 118.342 87.4035 118.342Z" fill="url(#paint1_linear_5679_12107)"/>
<path d="M98.5319 49.5033C100.813 49.5033 102.662 47.6544 102.662 45.3737C102.662 43.093 100.813 41.2441 98.5319 41.2441C96.2512 41.2441 94.4023 43.093 94.4023 45.3737C94.4023 47.6544 96.2512 49.5033 98.5319 49.5033Z" fill="url(#paint2_linear_5679_12107)"/>
<path d="M34.2538 66.3263C35.6019 66.3263 36.6947 65.2335 36.6947 63.8854C36.6947 62.5374 35.6019 61.4446 34.2538 61.4446C32.9058 61.4446 31.813 62.5374 31.813 63.8854C31.813 65.2335 32.9058 66.3263 34.2538 66.3263Z" fill="url(#paint3_linear_5679_12107)"/>
<g filter="url(#filter0_d_5679_12107)">
<path d="M92.9777 38.6741H45.4757C42.5737 38.6741 40.2212 40.9934 40.2212 43.8544V96.9191C40.2212 99.7802 42.5737 102.099 45.4757 102.099H92.9777C95.8797 102.099 98.2322 99.7802 98.2322 96.9191V43.8544C98.2322 40.9934 95.8797 38.6741 92.9777 38.6741Z" fill="#2D41C4"/>
</g>
<path d="M91.3526 37.936H43.717C40.8069 37.936 38.4478 40.2952 38.4478 43.2053V97.1806C38.4478 100.091 40.8069 102.45 43.717 102.45H91.3526C94.2628 102.45 96.6219 100.091 96.6219 97.1806V43.2053C96.6219 40.2952 94.2628 37.936 91.3526 37.936Z" fill="url(#paint4_linear_5679_12107)"/>
<path d="M68.1072 50.4076C73.9428 50.4076 78.6734 45.6769 78.6734 39.8414C78.6734 34.0058 73.9428 29.2751 68.1072 29.2751C62.2717 29.2751 57.541 34.0058 57.541 39.8414C57.541 45.6769 62.2717 50.4076 68.1072 50.4076Z" fill="url(#paint5_linear_5679_12107)"/>
<path d="M68.1071 39.4408C69.7125 39.4408 71.0139 38.1228 71.0139 36.497C71.0139 34.8712 69.7125 33.5532 68.1071 33.5532C66.5016 33.5532 65.2002 34.8712 65.2002 36.497C65.2002 38.1228 66.5016 39.4408 68.1071 39.4408Z" fill="white"/>
<path d="M70.5987 39.9472C70.4476 39.8746 70.2814 39.8388 70.1138 39.8428C69.9462 39.8468 69.7819 39.8905 69.6344 39.9703C69.161 40.2128 68.6367 40.3393 68.1048 40.3393C67.5729 40.3393 67.0487 40.2128 66.5753 39.9703C66.4278 39.8905 66.2635 39.8468 66.0959 39.8428C65.9283 39.8388 65.7621 39.8746 65.6109 39.9472C64.8525 40.3235 64.1861 40.8621 63.659 41.5247C63.1319 42.1873 62.7571 42.9578 62.561 43.7815C62.5222 43.9399 62.5195 44.1051 62.5533 44.2647C62.5871 44.4243 62.6565 44.5742 62.7563 44.7032C62.8561 44.8323 62.9837 44.9371 63.1296 45.01C63.2756 45.0829 63.4361 45.1219 63.5992 45.1242H72.6336C72.797 45.1228 72.9579 45.0844 73.1043 45.0117C73.2507 44.9391 73.3787 44.8342 73.4787 44.705C73.5787 44.5757 73.648 44.4254 73.6814 44.2654C73.7148 44.1054 73.7115 43.94 73.6717 43.7815C73.4741 42.9553 73.096 42.183 72.5647 41.5201C72.0335 40.8572 71.3621 40.32 70.5987 39.9472Z" fill="white"/>
<path d="M52.1699 57.1631L83.6102 57.1216" stroke="white" stroke-width="4" stroke-linecap="round" stroke-linejoin="round"/>
<path d="M54.9521 64.3419L79.6559 64.3096" stroke="white" stroke-width="4" stroke-linecap="round" stroke-linejoin="round"/>
<path opacity="0.1" d="M55.1715 74.5271C49.81 74.3748 44.9791 71.8463 42.9904 70.6559C42.7012 70.4798 42.3692 70.3867 42.0307 70.3867C41.6921 70.3867 41.3601 70.4798 41.071 70.6559C39.0823 71.8463 34.2514 74.3748 28.8898 74.5271C28.3994 74.5415 27.9343 74.7478 27.5944 75.1015C27.2544 75.4553 27.0668 75.9283 27.0719 76.4189C27.1134 81.3328 28.4976 94.5337 40.9556 103.116C41.269 103.332 41.6408 103.448 42.0215 103.448C42.4022 103.448 42.7739 103.332 43.0873 103.116C55.5453 94.5337 56.9295 81.3328 56.9803 76.4189C56.9854 75.9298 56.799 75.4582 56.4611 75.1047C56.1231 74.7512 55.6603 74.5439 55.1715 74.5271Z" fill="#124074"/>
<path d="M54.0986 73.4831C48.737 73.3308 43.9061 70.8023 41.9174 69.6119C41.6269 69.4397 41.2954 69.3489 40.9577 69.3489C40.62 69.3489 40.2885 69.4397 39.998 69.6119C38.0139 70.8023 33.183 73.3308 27.8168 73.4831C27.5733 73.4873 27.3329 73.5396 27.1097 73.6372C26.8865 73.7347 26.6847 73.8754 26.5162 74.0513C26.3476 74.2272 26.2155 74.4346 26.1275 74.6618C26.0395 74.889 25.9974 75.1313 26.0035 75.3748C26.0312 80.3119 27.4154 93.4897 39.8734 102.076C40.1875 102.293 40.5601 102.409 40.9416 102.409C41.3231 102.409 41.6956 102.293 42.0097 102.076C54.4677 93.4897 55.8519 80.2888 55.8981 75.3748C55.9032 74.8874 55.7182 74.4171 55.3822 74.0638C55.0462 73.7106 54.5857 73.5023 54.0986 73.4831Z" fill="url(#paint6_linear_5679_12107)"/>
<path d="M52.4791 75.0096C47.7774 74.8804 43.5417 72.661 41.8022 71.6182C41.5474 71.4667 41.2565 71.3867 40.9601 71.3867C40.6637 71.3867 40.3728 71.4667 40.118 71.6182C38.3739 72.661 34.1197 74.8804 29.4411 75.0096C29.0111 75.0228 28.6034 75.2042 28.3058 75.5148C28.0081 75.8255 27.8442 76.2404 27.8492 76.6706C27.8908 80.9802 29.0858 92.5523 40.0258 100.078C40.2982 100.262 40.6196 100.361 40.9486 100.361C41.2775 100.361 41.5989 100.262 41.8714 100.078C52.8067 92.5523 54.0064 80.9802 54.0479 76.6706C54.0531 76.2443 53.8924 75.8326 53.5996 75.5227C53.3069 75.2127 52.9051 75.0287 52.4791 75.0096Z" fill="url(#paint7_linear_5679_12107)"/>
<path d="M40.9582 91.5522C44.9565 91.5522 48.1977 88.311 48.1977 84.3127C48.1977 80.3145 44.9565 77.0732 40.9582 77.0732C36.96 77.0732 33.7188 80.3145 33.7188 84.3127C33.7188 88.311 36.96 91.5522 40.9582 91.5522Z" fill="white"/>
<path d="M40.9581 92.0773C39.4211 92.0773 37.9187 91.6215 36.6408 90.7675C35.3629 89.9135 34.367 88.6997 33.779 87.2796C33.191 85.8595 33.0374 84.297 33.3376 82.7896C33.6378 81.2823 34.3783 79.8978 35.4654 78.8113C36.5526 77.7248 37.9375 76.9851 39.445 76.6858C40.9526 76.3866 42.515 76.5411 43.9348 77.1299C45.3545 77.7187 46.5677 78.7153 47.4209 79.9937C48.2741 81.2721 48.7291 82.7748 48.7282 84.3118C48.7257 86.3714 47.9062 88.3459 46.4494 89.8018C44.9926 91.2577 43.0177 92.0761 40.9581 92.0773ZM40.9581 77.603C39.6312 77.603 38.3341 77.9964 37.2308 78.7336C36.1276 79.4708 35.2677 80.5186 34.7599 81.7445C34.2521 82.9703 34.1193 84.3193 34.3781 85.6206C34.637 86.922 35.276 88.1175 36.2142 89.0557C37.1525 89.994 38.3479 90.6329 39.6492 90.8918C40.9506 91.1506 42.2996 91.0178 43.5254 90.51C44.7513 90.0022 45.7991 89.1423 46.5363 88.0391C47.2735 86.9358 47.6669 85.6387 47.6669 84.3118C47.6657 82.5329 46.9585 80.8272 45.7006 79.5693C44.4427 78.3114 42.737 77.6042 40.9581 77.603Z" fill="url(#paint8_linear_5679_12107)"/>
<path d="M40.9578 84.5706C42.0943 84.5706 43.0156 83.6492 43.0156 82.5127C43.0156 81.3762 42.0943 80.4548 40.9578 80.4548C39.8212 80.4548 38.8999 81.3762 38.8999 82.5127C38.8999 83.6492 39.8212 84.5706 40.9578 84.5706Z" fill="url(#paint9_linear_5679_12107)"/>
<path d="M40.9575 88.6169C40.8414 88.6169 40.7264 88.5939 40.6191 88.5493C40.5119 88.5048 40.4146 88.4395 40.3327 88.3571C40.2508 88.2748 40.186 88.1771 40.1419 88.0697C40.0979 87.9622 40.0756 87.8471 40.0762 87.731V82.5171C40.0923 82.2938 40.1924 82.0848 40.3564 81.9323C40.5203 81.7798 40.7359 81.6951 40.9598 81.6951C41.1837 81.6951 41.3993 81.7798 41.5632 81.9323C41.7271 82.0848 41.8272 82.2938 41.8434 82.5171V87.731C41.8434 87.9659 41.75 88.1912 41.5839 88.3574C41.4178 88.5235 41.1924 88.6169 40.9575 88.6169Z" fill="url(#paint10_linear_5679_12107)"/>
<path d="M44.6401 106.473C47.168 106.473 49.2173 104.424 49.2173 101.896C49.2173 99.3684 47.168 97.3191 44.6401 97.3191C42.1122 97.3191 40.063 99.3684 40.063 101.896C40.063 104.424 42.1122 106.473 44.6401 106.473Z" fill="url(#paint11_linear_5679_12107)"/>
<path d="M58.2899 27.6298C60.1527 27.6298 61.6628 26.1197 61.6628 24.2569C61.6628 22.3941 60.1527 20.884 58.2899 20.884C56.4271 20.884 54.917 22.3941 54.917 24.2569C54.917 26.1197 56.4271 27.6298 58.2899 27.6298Z" fill="url(#paint12_linear_5679_12107)"/>
<path d="M108.286 82.9736C110.297 82.9736 111.927 81.3437 111.927 79.3331C111.927 77.3225 110.297 75.6926 108.286 75.6926C106.275 75.6926 104.646 77.3225 104.646 79.3331C104.646 81.3437 106.275 82.9736 108.286 82.9736Z" fill="url(#paint13_linear_5679_12107)"/>
<g filter="url(#filter1_d_5679_12107)">
<path d="M110.789 105.14L73.3132 105.193C71.6999 105.193 70.3914 103.172 70.3867 100.679V85.7877C70.3867 83.2902 71.6905 81.269 73.3038 81.2646L110.78 81.2156C112.388 81.2156 113.697 83.2323 113.702 85.7253V100.621C113.706 103.114 112.398 105.136 110.789 105.14Z" fill="#EB940E"/>
</g>
<g filter="url(#filter2_d_5679_12107)">
<path d="M108.688 105.066L72.6567 105.117C70.8388 105.117 69.3623 102.722 69.3623 99.7601V85.6918C69.3623 82.7296 70.8342 80.3257 72.6521 80.321L108.683 80.2703C110.501 80.2703 111.978 82.665 111.978 85.6272V99.7001C111.978 102.662 110.506 105.066 108.688 105.066Z" fill="url(#paint14_linear_5679_12107)"/>
</g>
<path d="M108.72 86.5912C108.612 86.4891 108.484 86.4094 108.345 86.3567C108.206 86.304 108.058 86.2793 107.909 86.284C107.76 86.2887 107.614 86.3228 107.478 86.3842C107.343 86.4456 107.221 86.5332 107.119 86.6419L99.8565 94.4074L97.1618 91.1775C96.9629 90.9672 96.6911 90.8408 96.4021 90.8243C96.113 90.8078 95.8286 90.9023 95.6069 91.0886C95.3853 91.2748 95.2432 91.5388 95.2098 91.8263C95.1763 92.1139 95.254 92.4034 95.427 92.6356L98.786 96.6406C98.8428 96.756 98.9193 96.8606 99.0121 96.9497C99.2231 97.145 99.4998 97.2537 99.7873 97.2543H99.8288C100.095 97.2541 100.353 97.1611 100.558 96.9913C100.651 96.9082 100.732 96.8118 100.798 96.7052L108.78 88.1738C108.978 87.9542 109.083 87.6659 109.072 87.3703C109.061 87.0747 108.934 86.7951 108.72 86.5912Z" fill="white"/>
<path d="M74.1774 92.1368L86.7916 92.0185" stroke="white" stroke-width="4" stroke-linecap="round" stroke-linejoin="round"/>
<path d="M74.2539 85.8564H90.497" stroke="white" stroke-width="4" stroke-linecap="round" stroke-linejoin="round"/>
<path d="M74.2539 98.2319H90.497" stroke="white" stroke-width="4" stroke-linecap="round" stroke-linejoin="round"/>
<defs>
<filter id="filter0_d_5679_12107" x="32.2212" y="34.6741" width="74.011" height="79.4255" filterUnits="userSpaceOnUse" color-interpolation-filters="sRGB">
<feFlood flood-opacity="0" result="BackgroundImageFix"/>
<feColorMatrix in="SourceAlpha" type="matrix" values="0 0 0 0 0 0 0 0 0 0 0 0 0 0 0 0 0 0 127 0" result="hardAlpha"/>
<feOffset dy="4"/>
<feGaussianBlur stdDeviation="4"/>
<feColorMatrix type="matrix" values="0 0 0 0 0 0 0 0 0 0 0 0 0 0 0 0 0 0 0.12 0"/>
<feBlend mode="normal" in2="BackgroundImageFix" result="effect1_dropShadow_5679_12107"/>
<feBlend mode="normal" in="SourceGraphic" in2="effect1_dropShadow_5679_12107" result="shape"/>
</filter>
<filter id="filter1_d_5679_12107" x="30.3867" y="61.2156" width="123.315" height="103.978" filterUnits="userSpaceOnUse" color-interpolation-filters="sRGB">
<feFlood flood-opacity="0" result="BackgroundImageFix"/>
<feColorMatrix in="SourceAlpha" type="matrix" values="0 0 0 0 0 0 0 0 0 0 0 0 0 0 0 0 0 0 127 0" result="hardAlpha"/>
<feOffset dy="20"/>
<feGaussianBlur stdDeviation="20"/>
<feColorMatrix type="matrix" values="0 0 0 0 0 0 0 0 0 0 0 0 0 0 0 0 0 0 0.04 0"/>
<feBlend mode="normal" in2="BackgroundImageFix" result="effect1_dropShadow_5679_12107"/>
<feBlend mode="normal" in="SourceGraphic" in2="effect1_dropShadow_5679_12107" result="shape"/>
</filter>
<filter id="filter2_d_5679_12107" x="29.3623" y="60.2703" width="122.616" height="104.847" filterUnits="userSpaceOnUse" color-interpolation-filters="sRGB">
<feFlood flood-opacity="0" result="BackgroundImageFix"/>
<feColorMatrix in="SourceAlpha" type="matrix" values="0 0 0 0 0 0 0 0 0 0 0 0 0 0 0 0 0 0 127 0" result="hardAlpha"/>
<feOffset dy="20"/>
<feGaussianBlur stdDeviation="20"/>
<feColorMatrix type="matrix" values="0 0 0 0 0 0 0 0 0 0 0 0 0 0 0 0 0 0 0.04 0"/>
<feBlend mode="normal" in2="BackgroundImageFix" result="effect1_dropShadow_5679_12107"/>
<feBlend mode="normal" in="SourceGraphic" in2="effect1_dropShadow_5679_12107" result="shape"/>
</filter>
<linearGradient id="paint0_linear_5679_12107" x1="35.6519" y1="31.5544" x2="35.6519" y2="39.2323" gradientUnits="userSpaceOnUse">
<stop stop-color="#D8E0FF"/>
<stop offset="1" stop-color="#D8E0FF" stop-opacity="0"/>
</linearGradient>
<linearGradient id="paint1_linear_5679_12107" x1="87.4035" y1="110.608" x2="87.4035" y2="118.342" gradientUnits="userSpaceOnUse">
<stop stop-color="#D8E0FF"/>
<stop offset="1" stop-color="#D8E0FF" stop-opacity="0"/>
</linearGradient>
<linearGradient id="paint2_linear_5679_12107" x1="98.5319" y1="41.2441" x2="98.5319" y2="49.5033" gradientUnits="userSpaceOnUse">
<stop stop-color="#D8E0FF"/>
<stop offset="1" stop-color="#D8E0FF" stop-opacity="0"/>
</linearGradient>
<linearGradient id="paint3_linear_5679_12107" x1="34.2538" y1="61.4446" x2="34.2538" y2="66.3263" gradientUnits="userSpaceOnUse">
<stop stop-color="#D8E0FF"/>
<stop offset="1" stop-color="#D8E0FF" stop-opacity="0"/>
</linearGradient>
<linearGradient id="paint4_linear_5679_12107" x1="67.5348" y1="37.936" x2="67.6753" y2="123.119" gradientUnits="userSpaceOnUse">
<stop stop-color="#4C61E1"/>
<stop offset="1" stop-color="#3B4DB8"/>
</linearGradient>
<linearGradient id="paint5_linear_5679_12107" x1="68.1072" y1="29.2751" x2="57.4028" y2="50.2977" gradientUnits="userSpaceOnUse">
<stop stop-color="#FA5072"/>
<stop offset="1" stop-color="#F55978"/>
</linearGradient>
<linearGradient id="paint6_linear_5679_12107" x1="40.9505" y1="69.3489" x2="40.9505" y2="102.409" gradientUnits="userSpaceOnUse">
<stop stop-color="#56A6FF"/>
<stop offset="1" stop-color="#3B93F5"/>
</linearGradient>
<linearGradient id="paint7_linear_5679_12107" x1="40.9486" y1="71.3867" x2="40.9486" y2="100.361" gradientUnits="userSpaceOnUse">
<stop stop-color="#89C0FF"/>
<stop offset="1" stop-color="#65ADFD"/>
</linearGradient>
<linearGradient id="paint8_linear_5679_12107" x1="40.9581" y1="76.5371" x2="40.9581" y2="92.0773" gradientUnits="userSpaceOnUse">
<stop stop-color="#56A6FF"/>
<stop offset="1" stop-color="#3B93F5"/>
</linearGradient>
<linearGradient id="paint9_linear_5679_12107" x1="40.9578" y1="80.4548" x2="40.9578" y2="84.5706" gradientUnits="userSpaceOnUse">
<stop stop-color="#56A6FF"/>
<stop offset="1" stop-color="#3B93F5"/>
</linearGradient>
<linearGradient id="paint10_linear_5679_12107" x1="40.9598" y1="81.6951" x2="40.9598" y2="88.6169" gradientUnits="userSpaceOnUse">
<stop stop-color="#449AF9"/>
<stop offset="1" stop-color="#3B93F5"/>
</linearGradient>
<linearGradient id="paint11_linear_5679_12107" x1="44.6401" y1="97.3191" x2="44.6401" y2="106.473" gradientUnits="userSpaceOnUse">
<stop stop-color="#D8E0FF"/>
<stop offset="1" stop-color="#D8E0FF" stop-opacity="0"/>
</linearGradient>
<linearGradient id="paint12_linear_5679_12107" x1="58.2899" y1="20.884" x2="58.2899" y2="27.6298" gradientUnits="userSpaceOnUse">
<stop stop-color="#D8E0FF"/>
<stop offset="1" stop-color="#D8E0FF" stop-opacity="0"/>
</linearGradient>
<linearGradient id="paint13_linear_5679_12107" x1="108.286" y1="75.6926" x2="108.286" y2="82.9736" gradientUnits="userSpaceOnUse">
<stop stop-color="#D8E0FF"/>
<stop offset="1" stop-color="#D8E0FF" stop-opacity="0"/>
</linearGradient>
<linearGradient id="paint14_linear_5679_12107" x1="69.3623" y1="105.117" x2="112.973" y2="103.226" gradientUnits="userSpaceOnUse">
<stop stop-color="#FFBC56"/>
<stop offset="1" stop-color="#FFAA28"/>
</linearGradient>
</defs>
</svg>
