<svg width="354" height="290" viewBox="0 0 354 290" fill="none" xmlns="http://www.w3.org/2000/svg">
<path d="M11.6055 133V136" stroke="#D1D8DF" stroke-width="2.921" stroke-linecap="round"/>
<path d="M4.86719 134.625L7.31862 137.149" stroke="#D1D8DF" stroke-width="2.921" stroke-linecap="round"/>
<path d="M2 141.342H5.46629" stroke="#D1D8DF" stroke-width="2.921" stroke-linecap="round"/>
<path d="M4.58594 148.18L7.03737 145.656" stroke="#D1D8DF" stroke-width="2.921" stroke-linecap="round"/>
<path d="M11.6055 149V146" stroke="#D1D8DF" stroke-width="2.921" stroke-linecap="round"/>
<path d="M16.6055 147L14.6055 145" stroke="#D1D8DF" stroke-width="2.921" stroke-linecap="round"/>
<path d="M20.6055 142H17.6055" stroke="#D1D8DF" stroke-width="2.921" stroke-linecap="round"/>
<path d="M18.6055 135L16.6055 137" stroke="#D1D8DF" stroke-width="2.921" stroke-linecap="round"/>
<path d="M172.605 2V4" stroke="#D1D8DF" stroke-width="2.921" stroke-linecap="round"/>
<path d="M166.605 8H168.605" stroke="#D1D8DF" stroke-width="2.921" stroke-linecap="round"/>
<path d="M172.605 14V12" stroke="#D1D8DF" stroke-width="2.921" stroke-linecap="round"/>
<path d="M177.605 8H175.605" stroke="#D1D8DF" stroke-width="2.921" stroke-linecap="round"/>
<path d="M56.6055 86V89" stroke="#D1D8DF" stroke-width="2.921" stroke-linecap="round"/>
<path d="M47.6055 95H50.6055" stroke="#D1D8DF" stroke-width="2.921" stroke-linecap="round"/>
<path d="M56.6055 103V100" stroke="#D1D8DF" stroke-width="2.921" stroke-linecap="round"/>
<path d="M64.6055 95H61.6055" stroke="#D1D8DF" stroke-width="2.921" stroke-linecap="round"/>
<path d="M271.859 195.039C274.249 195.039 276.187 196.978 276.187 199.368C276.187 201.759 274.249 203.697 271.859 203.697C269.469 203.697 267.531 201.759 267.531 199.368" stroke="#D1D8DF" stroke-width="2.921" stroke-linecap="round"/>
<path fill-rule="evenodd" clip-rule="evenodd" d="M291.666 155.763C294.236 154.962 298.175 151.819 299.087 148.438C299.914 151.427 303.38 154.962 306.508 155.229C302.987 156.476 299.621 160.179 299.087 163.088C298.723 160.123 294.068 156.196 291.666 155.763Z" fill="#EBEBED"/>
<path fill-rule="evenodd" clip-rule="evenodd" d="M27.877 193.705C29.1623 193.305 31.131 191.734 31.5869 190.043C32.0003 191.537 33.7331 193.305 35.2968 193.439C33.537 194.061 31.8543 195.913 31.5869 197.368C31.4052 195.885 29.0774 193.921 27.877 193.705Z" fill="#EBEBED"/>
<path fill-rule="evenodd" clip-rule="evenodd" d="M51.7294 54.599C51.7294 56.4536 50.2268 57.9558 48.3735 57.9558C46.5194 57.9558 45.0176 56.4536 45.0176 54.599C45.0176 52.7452 46.5194 51.2422 48.3735 51.2422C50.2268 51.2422 51.7294 52.7452 51.7294 54.599Z" fill="#D1D8DF"/>
<path fill-rule="evenodd" clip-rule="evenodd" d="M275.824 63.6105C275.824 66.7092 273.312 69.2211 270.215 69.2211C267.117 69.2211 264.605 66.7092 264.605 63.6105C264.605 60.5119 267.117 58 270.215 58C273.312 58 275.824 60.5119 275.824 63.6105Z" fill="#EBEBED"/>
<path fill-rule="evenodd" clip-rule="evenodd" d="M353.519 48.4115C353.519 50.8699 351.527 52.862 349.07 52.862C346.613 52.862 344.621 50.8699 344.621 48.4115C344.621 45.9531 346.613 43.9609 349.07 43.9609C351.527 43.9609 353.519 45.9531 353.519 48.4115Z" fill="#EBEBED"/>
<path fill-rule="evenodd" clip-rule="evenodd" d="M114.449 256.269C114.449 257.818 113.193 259.074 111.644 259.074C110.095 259.074 108.84 257.818 108.84 256.269C108.84 254.719 110.095 253.463 111.644 253.463C113.193 253.463 114.449 254.719 114.449 256.269Z" stroke="#D1D8DF" stroke-width="2.921" stroke-linecap="round"/>
<path fill-rule="evenodd" clip-rule="evenodd" d="M112.78 33.0326C112.78 34.8872 111.278 36.3894 109.424 36.3894C107.571 36.3894 106.068 34.8872 106.068 33.0326C106.068 31.1788 107.571 29.6758 109.424 29.6758C111.278 29.6758 112.78 31.1788 112.78 33.0326Z" stroke="#D1D8DF" stroke-width="2.921" stroke-linecap="round"/>
<path fill-rule="evenodd" clip-rule="evenodd" d="M198.383 287.337C196.239 288.153 193.839 287.076 193.023 284.931C192.207 282.786 193.283 280.385 195.429 279.57C197.572 278.754 199.972 279.83 200.788 281.975C201.605 284.12 200.527 286.521 198.383 287.337Z" stroke="#D1D8DF" stroke-width="2.921" stroke-linecap="round"/>
<path fill-rule="evenodd" clip-rule="evenodd" d="M197.105 208H115.1C109.328 208 104.604 203.261 104.604 197.47V80.5275C104.604 74.7362 109.328 70 115.1 70H197.105C202.879 70 207.604 74.7362 207.604 80.5275V197.47C207.604 203.261 202.879 208 197.105 208Z" fill="#D1D8DF"/>
<path fill-rule="evenodd" clip-rule="evenodd" d="M190.105 213H108.1C102.328 213 97.6035 208.261 97.6035 202.47V85.5275C97.6035 79.7362 102.328 75 108.1 75H190.105C195.879 75 200.604 79.7362 200.604 85.5275V202.47C200.604 208.261 195.879 213 190.105 213Z" fill="#E8EBF2"/>
<path fill-rule="evenodd" clip-rule="evenodd" d="M183.296 216.948H101.122C95.3379 216.948 90.6035 212.229 90.6035 206.462V90.0034C90.6035 84.2361 95.3379 79.5195 101.122 79.5195H183.296C189.082 79.5195 193.816 84.2361 193.816 90.0034V206.462C193.816 212.229 189.082 216.948 183.296 216.948Z" fill="#D8DBEA"/>
<path fill-rule="evenodd" clip-rule="evenodd" d="M183.296 216.948H101.122C95.3379 216.948 90.6035 212.229 90.6035 206.462V90.0034C90.6035 84.2361 95.3379 79.5195 101.122 79.5195H183.296C189.082 79.5195 193.816 84.2361 193.816 90.0034V206.462C193.816 212.229 189.082 216.948 183.296 216.948Z" fill="#F1F2F7"/>
<path fill-rule="evenodd" clip-rule="evenodd" d="M171.451 115H110.756C109.022 115 107.604 113.65 107.604 112.001C107.604 110.35 109.022 109 110.756 109H171.451C173.185 109 174.604 110.35 174.604 112.001C174.604 113.65 173.185 115 171.451 115Z" fill="#D1D8DF"/>
<path fill-rule="evenodd" clip-rule="evenodd" d="M171.451 133H110.756C109.022 133 107.604 131.65 107.604 130.001C107.604 128.35 109.022 127 110.756 127H171.451C173.185 127 174.604 128.35 174.604 130.001C174.604 131.65 173.185 133 171.451 133Z" fill="#D1D8DF"/>
<path fill-rule="evenodd" clip-rule="evenodd" d="M171.451 151H110.756C109.022 151 107.604 149.65 107.604 148.001C107.604 146.352 109.022 145 110.756 145H171.451C173.185 145 174.604 146.352 174.604 148.001C174.604 149.65 173.185 151 171.451 151Z" fill="#D1D8DF"/>
<path fill-rule="evenodd" clip-rule="evenodd" d="M171.451 169H110.756C109.022 169 107.604 167.65 107.604 166.001C107.604 164.35 109.022 163 110.756 163H171.451C173.185 163 174.604 164.35 174.604 166.001C174.604 167.65 173.185 169 171.451 169Z" fill="#D1D8DF"/>
<path fill-rule="evenodd" clip-rule="evenodd" d="M142.438 187H110.769C109.028 187 107.604 185.65 107.604 184.001C107.604 182.35 109.028 181 110.769 181H142.438C144.179 181 145.604 182.35 145.604 184.001C145.604 185.65 144.179 187 142.438 187Z" fill="#D1D8DF"/>
<path fill-rule="evenodd" clip-rule="evenodd" d="M206.358 163.737C194.222 175.871 175.433 177.24 161.792 167.872C160.049 166.653 158.389 165.284 156.842 163.737C156.045 162.943 155.295 162.124 154.587 161.261C153.172 159.538 151.933 157.701 150.917 155.803C149.128 152.597 147.912 149.195 147.248 145.679C145.105 134.651 148.309 122.781 156.842 114.252C165.396 105.697 177.268 102.514 188.297 104.636C191.812 105.321 195.217 106.537 198.423 108.305C200.324 109.343 202.136 110.583 203.862 111.997C204.722 112.702 205.542 113.455 206.336 114.252C207.885 115.799 209.275 117.455 210.471 119.201C219.844 132.837 218.472 151.625 206.358 163.737Z" fill="white" fill-opacity="0.1"/>
<path fill-rule="evenodd" clip-rule="evenodd" d="M202.962 161.347C190.336 173.976 169.873 173.973 157.244 161.347C144.632 148.734 144.632 128.27 157.261 115.643C169.873 103.03 190.336 103.03 202.948 115.643C215.575 128.27 215.575 148.734 202.962 161.347ZM209.442 109.156C193.235 92.9482 166.972 92.9482 150.764 109.156C134.559 125.361 134.545 151.64 150.75 167.848C165.501 182.594 188.621 183.924 204.882 171.816C206.47 170.632 208 169.305 209.459 167.848C210.916 166.389 212.243 164.859 213.425 163.271C225.532 147.007 224.191 123.904 209.442 109.156Z" fill="#E0E2EE"/>
<path fill-rule="evenodd" clip-rule="evenodd" d="M273.226 228.942L272.545 229.622C268.044 234.126 260.672 234.126 256.168 229.622L214.604 188.057L231.661 171L273.226 212.565C277.729 217.069 277.729 224.438 273.226 228.942Z" fill="#D60B9D"/>
<path fill-rule="evenodd" clip-rule="evenodd" d="M214.321 162L226.604 174.283L217.884 183L205.604 170.717C207.224 169.509 208.783 168.154 210.274 166.668C211.76 165.182 213.115 163.621 214.321 162Z" fill="#D1D8DF"/>
<path fill-rule="evenodd" clip-rule="evenodd" d="M272.604 212.054L255.655 229L252.604 225.946L269.55 209L272.604 212.054Z" fill="#D60B9D" fill-opacity="0.2"/>
<path fill-rule="evenodd" clip-rule="evenodd" d="M232.604 171.587L215.191 189L212.604 186.413L230.016 169L232.604 171.587Z" fill="#D60B9D" fill-opacity="0.2"/>
<path fill-rule="evenodd" clip-rule="evenodd" d="M194.604 111.299L151.9 154C150.292 151.118 149.198 148.059 148.604 144.898L185.501 108C188.66 108.618 191.721 109.709 194.604 111.299Z" fill="white" fill-opacity="0.5"/>
<path fill-rule="evenodd" clip-rule="evenodd" d="M208.604 121.448L162.436 165C160.783 163.912 159.209 162.687 157.742 161.302C156.987 160.59 156.272 159.859 155.604 159.087L202.333 115C203.151 115.633 203.928 116.307 204.681 117.02C206.149 118.404 207.469 119.886 208.604 121.448Z" fill="white" fill-opacity="0.5"/>
</svg>
