<svg width="14" height="18" viewBox="0 0 14 18" fill="none" xmlns="http://www.w3.org/2000/svg">
<path d="M8.66666 1.5V4.83333C8.66666 5.05435 8.75445 5.26631 8.91073 5.42259C9.06701 5.57887 9.27898 5.66667 9.49999 5.66667H12.8333M8.66666 1.5H2.83332C2.3913 1.5 1.96737 1.67559 1.65481 1.98816C1.34225 2.30072 1.16666 2.72464 1.16666 3.16667V14.8333C1.16666 15.2754 1.34225 15.6993 1.65481 16.0118C1.96737 16.3244 2.3913 16.5 2.83332 16.5H11.1667C11.6087 16.5 12.0326 16.3244 12.3452 16.0118C12.6577 15.6993 12.8333 15.2754 12.8333 14.8333V5.66667M8.66666 1.5L12.8333 5.66667M4.49999 4.83333H5.33332M4.49999 9.83333H9.49999M7.83332 13.1667H9.49999" stroke="#1B5EAA" stroke-width="1.5" stroke-linecap="round" stroke-linejoin="round"/>
</svg>
