<svg width="17" height="20" viewBox="0 0 17 20" fill="none" xmlns="http://www.w3.org/2000/svg">
<path d="M1 19V15C1 14.2044 1.31607 13.4413 1.87868 12.8787C2.44129 12.3161 3.20435 12 4 12H9M9 12L6 15M9 12L6 9M11 1V5C11 5.26522 11.1054 5.51957 11.2929 5.70711C11.4804 5.89464 11.7348 6 12 6H16M11 1H4C3.46957 1 2.96086 1.21071 2.58579 1.58579C2.21071 1.96086 2 2.46957 2 3V9M11 1L16 6M16 6V17C16 17.5304 15.7893 18.0391 15.4142 18.4142C15.0391 18.7893 14.5304 19 14 19H4.5" stroke="#68199D" stroke-width="2" stroke-linecap="round" stroke-linejoin="round"/>
</svg>
