<svg width="26" height="27" viewBox="0 0 26 27" fill="none" xmlns="http://www.w3.org/2000/svg">
<path d="M19.5 20.25V23.625H6.5V20.25H4.875V23.625C4.875 24.0726 5.0462 24.5018 5.35095 24.8182C5.6557 25.1347 6.06902 25.3125 6.5 25.3125H19.5C19.931 25.3125 20.3443 25.1347 20.649 24.8182C20.9538 24.5018 21.125 24.0726 21.125 23.625V20.25H19.5Z" fill="black"/>
<path d="M17.0625 17.7188L15.9136 16.5257L13.8125 18.7076V11.8125H12.1875V18.7076L10.0864 16.5257L8.9375 17.7188L13 21.9375L17.0625 17.7188ZM22.75 3.375V1.6875H17.875V10.125H19.5V6.75H21.9375V5.0625H19.5V3.375H22.75ZM13.8125 10.125H10.5625V1.6875H13.8125C14.4588 1.68817 15.0784 1.95507 15.5354 2.42963C15.9923 2.90418 16.2494 3.54763 16.25 4.21875V7.59375C16.2494 8.26487 15.9923 8.90832 15.5354 9.38287C15.0784 9.85743 14.4588 10.1243 13.8125 10.125ZM12.1875 8.4375H13.8125C14.0279 8.43728 14.2345 8.34831 14.3868 8.19012C14.5391 8.03194 14.6248 7.81746 14.625 7.59375V4.21875C14.6248 3.99504 14.5391 3.78056 14.3868 3.62238C14.2345 3.46419 14.0279 3.37522 13.8125 3.375H12.1875V8.4375ZM7.3125 1.6875H3.25V10.125H4.875V7.59375H7.3125C7.74328 7.59308 8.15623 7.41508 8.46084 7.09875C8.76544 6.78243 8.93686 6.3536 8.9375 5.90625V3.375C8.93707 2.92758 8.76573 2.49862 8.46107 2.18225C8.15642 1.86588 7.74334 1.68795 7.3125 1.6875ZM4.875 5.90625V3.375H7.3125L7.31331 5.90625H4.875Z" fill="#44566C"/>
</svg>
