<svg width="21" height="22" viewBox="0 0 21 22" fill="none" xmlns="http://www.w3.org/2000/svg">
<path d="M18.5625 10.9538H10.1719V2.56321C10.1719 2.46009 10.0875 2.37571 9.98439 2.37571H9.37501C8.14384 2.3737 6.92442 2.61514 5.78691 3.08616C4.6494 3.55717 3.61624 4.24846 2.74689 5.12025C1.89074 5.97375 1.20857 6.98547 0.738295 8.09916C0.248933 9.25425 -0.00217788 10.4963 1.42292e-05 11.7507C-0.00200183 12.9819 0.239442 14.2013 0.710456 15.3388C1.18147 16.4763 1.87276 17.5095 2.74455 18.3789C3.6047 19.239 4.60783 19.9164 5.72345 20.3875C6.87854 20.8768 8.12054 21.1279 9.37501 21.1257C10.6062 21.1278 11.8256 20.8863 12.9631 20.4153C14.1006 19.9443 15.1338 19.253 16.0031 18.3812C16.8633 17.521 17.5406 16.5179 18.0117 15.4023C18.5011 14.2472 18.7522 13.0052 18.75 11.7507V11.1413C18.75 11.0382 18.6656 10.9538 18.5625 10.9538ZM14.8524 17.2773C14.1266 17.9974 13.2659 18.5672 12.3196 18.9541C11.3732 19.341 10.3599 19.5374 9.33751 19.532C7.27267 19.5226 5.33205 18.714 3.87189 17.2539C2.40236 15.7843 1.59376 13.8296 1.59376 11.7507C1.59376 9.67182 2.40236 7.71713 3.87189 6.24759C5.15158 4.96791 6.79923 4.18743 8.57814 4.00931V12.5476H17.1164C16.936 14.3359 16.1485 15.9929 14.8524 17.2773ZM20.625 9.65072L20.5641 8.98978C20.3649 6.83119 19.4063 4.79447 17.8641 3.25697C16.3208 1.71664 14.2883 0.763366 12.1172 0.561649L11.4539 0.500712C11.3438 0.491337 11.25 0.575712 11.25 0.685868V9.68822C11.25 9.79135 11.3344 9.87572 11.4375 9.87572L20.4375 9.85228C20.5477 9.85228 20.6344 9.75853 20.625 9.65072ZM12.8391 8.28666V2.27259C14.3155 2.58161 15.6704 3.31279 16.7391 4.37728C17.8102 5.44603 18.5438 6.80541 18.8485 8.27025L12.8391 8.28666Z" fill="#636E72"/>
</svg>
