<svg width="12" height="12" viewBox="0 0 12 12" fill="none" xmlns="http://www.w3.org/2000/svg">
<path d="M11.3337 5.33346C11.1706 4.16028 10.6264 3.07324 9.78475 2.23979C8.94313 1.40635 7.85083 0.872742 6.67611 0.721165C5.50138 0.569588 4.30941 0.808451 3.28379 1.40096C2.25818 1.99347 1.45582 2.90675 1.00033 4.00013M0.666992 1.33346V4.00013H3.33366M0.666992 6.6668C0.830032 7.83999 1.37428 8.92703 2.2159 9.76047C3.05752 10.5939 4.14982 11.1275 5.32454 11.2791C6.49927 11.4307 7.69124 11.1918 8.71686 10.5993C9.74247 10.0068 10.5448 9.09351 11.0003 8.00013M11.3337 10.6668V8.00013H8.66699M6.00033 4.00013V6.00013M6.00033 8.00013H6.00699" stroke="#FF1818" stroke-linecap="round" stroke-linejoin="round"/>
</svg>
