<svg width="537" height="441" viewBox="0 0 537 441" fill="none" xmlns="http://www.w3.org/2000/svg">
<g id="No Results">
<g id="circle">
<path id="Stroke 1" d="M20.4258 202.77V207.276" stroke="#E9EDF0" stroke-width="2.921" stroke-linecap="round"/>
<g id="Group 8">
<path id="Stroke 2" d="M10.3125 205.207L13.9947 208.998" stroke="#E9EDF0" stroke-width="2.921" stroke-linecap="round"/>
<path id="Stroke 4" d="M6 215.297H11.2065" stroke="#E9EDF0" stroke-width="2.921" stroke-linecap="round"/>
<path id="Stroke 6" d="M9.87891 225.568L13.5611 221.777" stroke="#E9EDF0" stroke-width="2.921" stroke-linecap="round"/>
</g>
<path id="Stroke 9" d="M20.4258 226.799V222.293" stroke="#E9EDF0" stroke-width="2.921" stroke-linecap="round"/>
<path id="Stroke 10" d="M27.9416 223.797L24.9375 220.793" stroke="#E9EDF0" stroke-width="2.921" stroke-linecap="round"/>
<path id="Stroke 11" d="M33.9437 216.287H29.4375" stroke="#E9EDF0" stroke-width="2.921" stroke-linecap="round"/>
<path id="Stroke 12" d="M30.9416 205.775L27.9375 208.779" stroke="#E9EDF0" stroke-width="2.921" stroke-linecap="round"/>
<path id="Stroke 13" d="M262.254 6V9.00411" stroke="#E9EDF0" stroke-width="2.921" stroke-linecap="round"/>
<path id="Stroke 15" d="M253.242 15.0117H256.246" stroke="#E9EDF0" stroke-width="2.921" stroke-linecap="round"/>
<path id="Stroke 16" d="M262.254 24.0275V21.0234" stroke="#E9EDF0" stroke-width="2.921" stroke-linecap="round"/>
<path id="Stroke 17" d="M269.77 15.0117H266.766" stroke="#E9EDF0" stroke-width="2.921" stroke-linecap="round"/>
<path id="Stroke 18" d="M88.0195 132.17V136.676" stroke="#E9EDF0" stroke-width="2.921" stroke-linecap="round"/>
<path id="Stroke 19" d="M74.4961 145.693H79.0023" stroke="#E9EDF0" stroke-width="2.921" stroke-linecap="round"/>
<path id="Stroke 20" d="M88.0195 157.705V153.199" stroke="#E9EDF0" stroke-width="2.921" stroke-linecap="round"/>
<path id="Stroke 21" d="M100.037 145.693H95.5312" stroke="#E9EDF0" stroke-width="2.921" stroke-linecap="round"/>
<g id="Group 42">
<path id="Stroke 22" d="M411.349 295.951C414.938 295.951 417.849 298.863 417.849 302.454C417.849 306.046 414.938 308.956 411.349 308.956C407.759 308.956 404.848 306.046 404.848 302.454" stroke="#E9EDF0" stroke-width="2.921" stroke-linecap="round"/>
<path id="Fill 26" fill-rule="evenodd" clip-rule="evenodd" d="M441.094 236.959C444.954 235.755 450.871 231.034 452.24 225.955C453.482 230.445 458.689 235.755 463.386 236.157C458.098 238.029 453.042 243.592 452.24 247.962C451.694 243.507 444.701 237.608 441.094 236.959Z" fill="#E9EDF0"/>
<path id="Fill 28" fill-rule="evenodd" clip-rule="evenodd" d="M44.8711 293.947C46.8017 293.345 49.7589 290.985 50.4436 288.445C51.0646 290.689 53.6673 293.345 56.0162 293.546C53.3727 294.481 50.8453 297.263 50.4436 299.448C50.1707 297.221 46.6742 294.271 44.8711 293.947Z" fill="#E9EDF0"/>
<path id="Fill 30" fill-rule="evenodd" clip-rule="evenodd" d="M80.6988 84.9991C80.6988 87.7849 78.4417 90.0413 75.658 90.0413C72.873 90.0413 70.6172 87.7849 70.6172 84.9991C70.6172 82.2147 72.873 79.957 75.658 79.957C78.4417 79.957 80.6988 82.2147 80.6988 84.9991Z" fill="#E9EDF0"/>
<path id="Fill 32" fill-rule="evenodd" clip-rule="evenodd" d="M417.305 98.5387C417.305 103.193 413.531 106.966 408.88 106.966C404.225 106.966 400.453 103.193 400.453 98.5387C400.453 93.8843 404.225 90.1113 408.88 90.1113C413.531 90.1113 417.305 93.8843 417.305 98.5387Z" fill="#E9EDF0"/>
<path id="Fill 34" fill-rule="evenodd" clip-rule="evenodd" d="M534.006 75.7084C534.006 79.401 531.014 82.3934 527.324 82.3934C523.632 82.3934 520.641 79.401 520.641 75.7084C520.641 72.0158 523.632 69.0234 527.324 69.0234C531.014 69.0234 534.006 72.0158 534.006 75.7084Z" fill="#E9EDF0"/>
<path id="Stroke 36" fill-rule="evenodd" clip-rule="evenodd" d="M174.902 387.921C174.902 390.249 173.016 392.136 170.688 392.136C168.363 392.136 166.477 390.249 166.477 387.921C166.477 385.594 168.363 383.707 170.688 383.707C173.016 383.707 174.902 385.594 174.902 387.921Z" stroke="#E9EDF0" stroke-width="2.921" stroke-linecap="round"/>
<path id="Stroke 38" fill-rule="evenodd" clip-rule="evenodd" d="M172.398 52.6085C172.398 55.3942 170.141 57.6506 167.357 57.6506C164.573 57.6506 162.316 55.3942 162.316 52.6085C162.316 49.8241 164.573 47.5664 167.357 47.5664C170.141 47.5664 172.398 49.8241 172.398 52.6085Z" stroke="#E9EDF0" stroke-width="2.921" stroke-linecap="round"/>
<path id="Stroke 40" fill-rule="evenodd" clip-rule="evenodd" d="M300.985 434.585C297.763 435.81 294.158 434.192 292.933 430.971C291.708 427.749 293.325 424.142 296.547 422.918C299.767 421.692 303.372 423.309 304.597 426.531C305.824 429.753 304.206 433.359 300.985 434.585Z" stroke="#E9EDF0" stroke-width="2.921" stroke-linecap="round"/>
</g>
</g>
<g id="search">
<g id="documents">
<path id="Fill 1" fill-rule="evenodd" clip-rule="evenodd" d="M299.055 315.424H175.88C167.21 315.424 160.113 308.307 160.113 299.608V123.953C160.113 115.255 167.21 108.141 175.88 108.141H299.055C307.728 108.141 314.825 115.255 314.825 123.953V299.608C314.825 308.307 307.728 315.424 299.055 315.424Z" fill="#E9EDF0"/>
<path id="Fill 3" fill-rule="evenodd" clip-rule="evenodd" d="M288.543 322.936H165.368C156.698 322.936 149.602 315.818 149.602 307.119V131.465C149.602 122.766 156.698 115.652 165.368 115.652H288.543C297.216 115.652 304.313 122.766 304.313 131.465V307.119C304.313 315.818 297.216 322.936 288.543 322.936Z" fill="#E9EDF0"/>
<path id="Fill 5" fill-rule="evenodd" clip-rule="evenodd" d="M278.319 328.863H154.889C146.201 328.863 139.09 321.775 139.09 313.112V138.185C139.09 129.522 146.201 122.438 154.889 122.438H278.319C287.01 122.438 294.121 129.522 294.121 138.185V313.112C294.121 321.775 287.01 328.863 278.319 328.863Z" fill="#E9EDF0"/>
<path id="Fill 8" fill-rule="evenodd" clip-rule="evenodd" d="M278.319 328.863H154.889C146.201 328.863 139.09 321.775 139.09 313.112V138.185C139.09 129.522 146.201 122.438 154.889 122.438H278.319C287.01 122.438 294.121 129.522 294.121 138.185V313.112C294.121 321.775 287.01 328.863 278.319 328.863Z" fill="#E9EDF0"/>
<path id="Fill 11" fill-rule="evenodd" clip-rule="evenodd" d="M260.528 175.735H169.36C166.756 175.735 164.625 173.707 164.625 171.231C164.625 168.75 166.756 166.723 169.36 166.723H260.528C263.131 166.723 265.263 168.75 265.263 171.231C265.263 173.707 263.131 175.735 260.528 175.735Z" fill="#E9EDF0"/>
<path id="Fill 13" fill-rule="evenodd" clip-rule="evenodd" d="M260.528 202.77H169.36C166.756 202.77 164.625 200.743 164.625 198.266C164.625 195.785 166.756 193.758 169.36 193.758H260.528C263.131 193.758 265.263 195.785 265.263 198.266C265.263 200.743 263.131 202.77 260.528 202.77Z" fill="#E9EDF0"/>
<path id="Fill 15" fill-rule="evenodd" clip-rule="evenodd" d="M260.528 229.805H169.36C166.756 229.805 164.625 227.778 164.625 225.301C164.625 222.824 166.756 220.793 169.36 220.793H260.528C263.131 220.793 265.263 222.824 265.263 225.301C265.263 227.778 263.131 229.805 260.528 229.805Z" fill="#E9EDF0"/>
<path id="Fill 17" fill-rule="evenodd" clip-rule="evenodd" d="M260.528 256.846H169.36C166.756 256.846 164.625 254.819 164.625 252.342C164.625 249.862 166.756 247.834 169.36 247.834H260.528C263.131 247.834 265.263 249.862 265.263 252.342C265.263 254.819 263.131 256.846 260.528 256.846Z" fill="#E9EDF0"/>
<path id="Fill 19" fill-rule="evenodd" clip-rule="evenodd" d="M216.948 283.881H169.38C166.765 283.881 164.625 281.854 164.625 279.377C164.625 276.897 166.765 274.869 169.38 274.869H216.948C219.563 274.869 221.703 276.897 221.703 279.377C221.703 281.854 219.563 283.881 216.948 283.881Z" fill="#E9EDF0"/>
</g>
<g id="search_2">
<path id="Fill 21" fill-rule="evenodd" clip-rule="evenodd" d="M312.95 248.945C294.72 267.172 266.498 269.228 246.009 255.155C243.391 253.325 240.898 251.268 238.574 248.945C237.378 247.752 236.25 246.522 235.187 245.226C233.062 242.638 231.2 239.879 229.675 237.028C226.988 232.212 225.161 227.102 224.163 221.82C220.944 205.256 225.757 187.427 238.574 174.615C251.422 161.766 269.254 156.985 285.821 160.172C291.1 161.2 296.215 163.027 301.032 165.684C303.887 167.243 306.609 169.104 309.2 171.229C310.492 172.288 311.723 173.419 312.916 174.615C315.244 176.939 317.331 179.427 319.128 182.049C333.206 202.531 331.146 230.752 312.95 248.945Z" fill="white" fill-opacity="0.1"/>
<path id="Fill 23" fill-rule="evenodd" clip-rule="evenodd" d="M307.853 245.35C288.887 264.32 258.151 264.316 239.182 245.35C220.237 226.406 220.237 195.667 239.207 176.701C258.151 157.756 288.887 157.756 307.832 176.701C326.797 195.667 326.797 226.406 307.853 245.35ZM317.587 166.957C293.243 142.613 253.794 142.613 229.45 166.957C205.109 191.298 205.088 230.772 229.429 255.116C251.585 277.266 286.312 279.263 310.737 261.077C313.123 259.299 315.42 257.305 317.612 255.116C319.8 252.925 321.794 250.627 323.569 248.242C341.755 223.813 339.74 189.11 317.587 166.957Z" fill="#E0E2EE"/>
<path id="Fill 25" fill-rule="evenodd" clip-rule="evenodd" d="M413.389 346.883L412.367 347.905C405.606 354.67 394.533 354.67 387.768 347.905L325.336 285.473L350.957 259.852L413.389 322.284C420.154 329.049 420.154 340.118 413.389 346.883Z" fill="url(#paint0_linear_6701_6512)"/>
<path id="Fill 27" fill-rule="evenodd" clip-rule="evenodd" d="M324.918 246.334L343.367 264.783L330.27 277.877L311.824 259.428C314.259 257.613 316.599 255.578 318.839 253.346C321.072 251.113 323.107 248.768 324.918 246.334Z" fill="#E9EDF0"/>
<path id="Fill 29" fill-rule="evenodd" clip-rule="evenodd" d="M412.459 321.514L387.001 346.969L382.418 342.382L407.872 316.928L412.459 321.514Z" fill="#EE535F"/>
<path id="Fill 31" fill-rule="evenodd" clip-rule="evenodd" d="M352.377 260.731L326.222 286.887L322.336 283.001L348.491 256.846L352.377 260.731Z" fill="url(#paint1_linear_6701_6512)"/>
<path id="Fill 33" fill-rule="evenodd" clip-rule="evenodd" d="M295.301 170.177L231.159 234.317C228.743 229.988 227.1 225.394 226.207 220.645L281.629 165.223C286.374 166.15 290.972 167.789 295.301 170.177Z" fill="white" fill-opacity="0.5"/>
<path id="Fill 35" fill-rule="evenodd" clip-rule="evenodd" d="M316.328 185.42L246.982 250.837C244.499 249.202 242.135 247.362 239.931 245.283C238.796 244.212 237.723 243.114 236.719 241.955L306.909 175.734C308.138 176.685 309.305 177.698 310.436 178.768C312.641 180.847 314.624 183.074 316.328 185.42Z" fill="white" fill-opacity="0.5"/>
</g>
</g>
</g>
<defs>
<linearGradient id="paint0_linear_6701_6512" x1="371.9" y1="213.288" x2="278.772" y2="306.415" gradientUnits="userSpaceOnUse">
<stop stop-color="#FF8960"/>
<stop offset="1" stop-color="#FF62A5"/>
</linearGradient>
<linearGradient id="paint1_linear_6701_6512" x1="337.356" y1="241.825" x2="307.315" y2="271.866" gradientUnits="userSpaceOnUse">
<stop stop-color="#FF404E"/>
<stop offset="1" stop-color="#FF62A5"/>
</linearGradient>
</defs>
</svg>
