<svg width="20" height="20" viewBox="0 0 20 20" fill="none" xmlns="http://www.w3.org/2000/svg">
<path d="M19 4C19 5.65685 16.7614 7 14 7C11.2386 7 9 5.65685 9 4M19 4C19 2.34315 16.7614 1 14 1C11.2386 1 9 2.34315 9 4M19 4V8M9 4V8M9 8C9 9.657 11.239 11 14 11C16.761 11 19 9.657 19 8M9 8V12M19 8V12M9 12C9 13.657 11.239 15 14 15C16.761 15 19 13.657 19 12M9 12V16C9 17.657 11.239 19 14 19C16.761 19 19 17.657 19 16V12M5 7H2.5C2.10218 7 1.72064 7.15804 1.43934 7.43934C1.15804 7.72064 1 8.10218 1 8.5C1 8.89782 1.15804 9.27936 1.43934 9.56066C1.72064 9.84196 2.10218 10 2.5 10H3.5C3.89782 10 4.27936 10.158 4.56066 10.4393C4.84196 10.7206 5 11.1022 5 11.5C5 11.8978 4.84196 12.2794 4.56066 12.5607C4.27936 12.842 3.89782 13 3.5 13H1M3 13V14M3 6V7" stroke="#68199D" stroke-width="2" stroke-linecap="round" stroke-linejoin="round"/>
</svg>
