<svg width="26" height="26" viewBox="0 0 26 26" fill="none" xmlns="http://www.w3.org/2000/svg">
<path d="M25 5C25 7.20914 22.0152 9 18.3333 9C14.6514 9 11.6667 7.20914 11.6667 5M25 5C25 2.79086 22.0152 1 18.3333 1C14.6514 1 11.6667 2.79086 11.6667 5M25 5V10.3333M11.6667 5V10.3333M11.6667 10.3333C11.6667 12.5427 14.652 14.3333 18.3333 14.3333C22.0147 14.3333 25 12.5427 25 10.3333M11.6667 10.3333V15.6667M25 10.3333V15.6667M11.6667 15.6667C11.6667 17.876 14.652 19.6667 18.3333 19.6667C22.0147 19.6667 25 17.876 25 15.6667M11.6667 15.6667V21C11.6667 23.2093 14.652 25 18.3333 25C22.0147 25 25 23.2093 25 21V15.6667M6.33333 9H3C2.46957 9 1.96086 9.21071 1.58579 9.58579C1.21071 9.96086 1 10.4696 1 11C1 11.5304 1.21071 12.0391 1.58579 12.4142C1.96086 12.7893 2.46957 13 3 13H4.33333C4.86377 13 5.37247 13.2107 5.74755 13.5858C6.12262 13.9609 6.33333 14.4696 6.33333 15C6.33333 15.5304 6.12262 16.0391 5.74755 16.4142C5.37247 16.7893 4.86377 17 4.33333 17H1M3.66667 17V18.3333M3.66667 7.66667V9" stroke="#68199D" stroke-width="2" stroke-linecap="round" stroke-linejoin="round"/>
</svg>
