<svg width="20" height="20" viewBox="0 0 20 20" fill="none" xmlns="http://www.w3.org/2000/svg">
<path d="M0 2.75C0 2.02065 0.289731 1.32118 0.805456 0.805457C1.32118 0.289732 2.02065 9.99103e-08 2.75 9.99103e-08H12.714C13.141 -0.000105762 13.5637 0.0839156 13.9582 0.247264C14.3527 0.410612 14.7111 0.650085 15.013 0.952L17.048 2.987C17.658 3.597 18 4.424 18 5.286V9.022C17.5325 8.72228 17.0284 8.48399 16.5 8.313V5.287C16.5 4.822 16.316 4.377 15.987 4.049L13.952 2.014C13.6937 1.75522 13.3607 1.58386 13 1.524V4.25C13 4.54547 12.9418 4.83805 12.8287 5.11104C12.7157 5.38402 12.5499 5.63206 12.341 5.84099C12.1321 6.04992 11.884 6.21566 11.611 6.32873C11.3381 6.4418 11.0455 6.5 10.75 6.5H6.25C5.65326 6.5 5.08097 6.26295 4.65901 5.84099C4.23705 5.41903 4 4.84674 4 4.25V1.5H2.75C2.06 1.5 1.5 2.06 1.5 2.75V15.25C1.5 15.94 2.06 16.5 2.75 16.5H3V11.25C3 10.6533 3.23705 10.081 3.65901 9.65901C4.08097 9.23705 4.65326 9 5.25 9H11.034C10.3993 9.40103 9.83838 9.90845 9.376 10.5H5.25C5.05109 10.5 4.86032 10.579 4.71967 10.7197C4.57902 10.8603 4.5 11.0511 4.5 11.25V16.5H8.313C8.486 17.034 8.725 17.537 9.022 18H2.75C2.02065 18 1.32118 17.7103 0.805456 17.1945C0.289731 16.6788 0 15.9793 0 15.25V2.75ZM5.5 1.5V4.25C5.5 4.664 5.836 5 6.25 5H10.75C10.9489 5 11.1397 4.92098 11.2803 4.78033C11.421 4.63968 11.5 4.44891 11.5 4.25V1.5H5.5ZM20 14.5C20 15.9587 19.4205 17.3576 18.3891 18.3891C17.3576 19.4205 15.9587 20 14.5 20C13.0413 20 11.6424 19.4205 10.6109 18.3891C9.57946 17.3576 9 15.9587 9 14.5C9 13.0413 9.57946 11.6424 10.6109 10.6109C11.6424 9.57946 13.0413 9 14.5 9C15.9587 9 17.3576 9.57946 18.3891 10.6109C19.4205 11.6424 20 13.0413 20 14.5ZM11.5 14C11.3674 14 11.2402 14.0527 11.1464 14.1464C11.0527 14.2402 11 14.3674 11 14.5C11 14.6326 11.0527 14.7598 11.1464 14.8536C11.2402 14.9473 11.3674 15 11.5 15H16.293L14.646 16.646C14.5521 16.7399 14.4994 16.8672 14.4994 17C14.4994 17.1328 14.5521 17.2601 14.646 17.354C14.7399 17.4479 14.8672 17.5006 15 17.5006C15.1328 17.5006 15.2601 17.4479 15.354 17.354L17.854 14.854C17.9006 14.8076 17.9375 14.7524 17.9627 14.6916C17.9879 14.6309 18.0009 14.5658 18.0009 14.5C18.0009 14.4342 17.9879 14.3691 17.9627 14.3084C17.9375 14.2476 17.9006 14.1924 17.854 14.146L15.354 11.646C15.3075 11.5995 15.2523 11.5626 15.1916 11.5375C15.1308 11.5123 15.0657 11.4994 15 11.4994C14.8672 11.4994 14.7399 11.5521 14.646 11.646C14.5521 11.7399 14.4994 11.8672 14.4994 12C14.4994 12.1328 14.5521 12.2601 14.646 12.354L16.293 14H11.5Z" fill="white"/>
</svg>
