<svg width="36" height="30" viewBox="0 0 36 30" fill="none" xmlns="http://www.w3.org/2000/svg">
<path d="M35.9187 1.54355C36.0005 1.33911 36.0206 1.11514 35.9763 0.899421C35.9321 0.683699 35.8255 0.485708 35.6697 0.329994C35.514 0.174279 35.316 0.0676886 35.1003 0.0234368C34.8846 -0.0208149 34.6606 -0.000782055 34.4562 0.0810519L1.72544 13.1738C1.43719 13.2892 1.18636 13.4819 1.00056 13.7306C0.814754 13.9794 0.701181 14.2745 0.672337 14.5837C0.643494 14.8928 0.700497 15.2039 0.837075 15.4828C0.973652 15.7616 1.18451 15.9973 1.44644 16.1641L12.6852 23.3146L16.1299 28.7281C16.2926 28.9737 16.5452 29.1457 16.8334 29.2071C17.1215 29.2685 17.4223 29.2145 17.671 29.0565C17.9197 28.8986 18.0965 28.6493 18.1635 28.3624C18.2304 28.0755 18.1821 27.7738 18.0289 27.5221L14.9329 22.6576L31.7944 5.79605L27.5307 16.4566C27.4721 16.5943 27.4416 16.7424 27.441 16.8921C27.4404 17.0418 27.4696 17.1901 27.5271 17.3284C27.5845 17.4666 27.669 17.592 27.7755 17.6972C27.882 17.8024 28.0084 17.8853 28.1474 17.941C28.2864 17.9967 28.435 18.0241 28.5847 18.0216C28.7344 18.0191 28.8821 17.9868 29.0191 17.9265C29.1561 17.8662 29.2797 17.7791 29.3827 17.6705C29.4857 17.5618 29.5659 17.4336 29.6187 17.2936L35.9187 1.54355ZM30.2037 4.2053L13.3422 21.0668L3.57944 14.8546L30.2037 4.2053Z" fill="white"/>
</svg>
