<svg width="19" height="17" viewBox="0 0 19 17" fill="none" xmlns="http://www.w3.org/2000/svg">
<path d="M9.35 8.5C8.84566 8.5 8.35264 8.64956 7.9333 8.92975C7.51395 9.20995 7.18711 9.60821 6.99411 10.0742C6.8011 10.5401 6.7506 11.0528 6.849 11.5475C6.94739 12.0421 7.19025 12.4965 7.54688 12.8531C7.9035 13.2097 8.35787 13.4526 8.85252 13.551C9.34717 13.6494 9.85989 13.5989 10.3258 13.4059C10.7918 13.2129 11.19 12.886 11.4702 12.4667C11.7504 12.0474 11.9 11.5543 11.9 11.05C11.9 10.3737 11.6313 9.7251 11.1531 9.24688C10.6749 8.76866 10.0263 8.5 9.35 8.5ZM9.35 11.9C9.18189 11.9 9.01755 11.8501 8.87776 11.7567C8.73798 11.6634 8.62904 11.5306 8.5647 11.3753C8.50037 11.22 8.48353 11.0491 8.51633 10.8842C8.54913 10.7193 8.63008 10.5678 8.74896 10.449C8.86783 10.3301 9.01929 10.2491 9.18417 10.2163C9.34906 10.1835 9.51996 10.2004 9.67528 10.2647C9.8306 10.329 9.96335 10.438 10.0567 10.5778C10.1501 10.7175 10.2 10.8819 10.2 11.05C10.2 11.2754 10.1104 11.4916 9.95104 11.651C9.79163 11.8104 9.57543 11.9 9.35 11.9ZM8.7465 6.5535C8.82734 6.63088 8.92266 6.69155 9.027 6.732C9.12875 6.77697 9.23876 6.8002 9.35 6.8002C9.46124 6.8002 9.57125 6.77697 9.673 6.732C9.77734 6.69155 9.87266 6.63088 9.9535 6.5535L11.9 4.641C12.0646 4.47643 12.157 4.25323 12.157 4.0205C12.157 3.78777 12.0646 3.56457 11.9 3.4C11.7354 3.23543 11.5122 3.14298 11.2795 3.14298C11.0468 3.14298 10.8236 3.23543 10.659 3.4L10.2 3.9015V0.85C10.2 0.624566 10.1104 0.408365 9.95104 0.248959C9.79163 0.0895533 9.57543 0 9.35 0C9.12457 0 8.90837 0.0895533 8.74896 0.248959C8.58955 0.408365 8.5 0.624566 8.5 0.85V3.9015L8.041 3.4C7.87643 3.23543 7.65323 3.14298 7.4205 3.14298C7.18777 3.14298 6.96457 3.23543 6.8 3.4C6.63543 3.56457 6.54298 3.78777 6.54298 4.0205C6.54298 4.25323 6.63543 4.47643 6.8 4.641L8.7465 6.5535ZM15.3 11.05C15.3 10.8819 15.2501 10.7175 15.1567 10.5778C15.0633 10.438 14.9306 10.329 14.7753 10.2647C14.62 10.2004 14.4491 10.1835 14.2842 10.2163C14.1193 10.2491 13.9678 10.3301 13.849 10.449C13.7301 10.5678 13.6491 10.7193 13.6163 10.8842C13.5835 11.0491 13.6004 11.22 13.6647 11.3753C13.729 11.5306 13.838 11.6634 13.9778 11.7567C14.1175 11.8501 14.2819 11.9 14.45 11.9C14.6754 11.9 14.8916 11.8104 15.051 11.651C15.2104 11.4916 15.3 11.2754 15.3 11.05ZM16.15 5.1H13.6C13.3746 5.1 13.1584 5.18955 12.999 5.34896C12.8396 5.50837 12.75 5.72457 12.75 5.95C12.75 6.17543 12.8396 6.39163 12.999 6.55104C13.1584 6.71045 13.3746 6.8 13.6 6.8H16.15C16.3754 6.8 16.5916 6.88955 16.751 7.04896C16.9104 7.20837 17 7.42457 17 7.65V14.45C17 14.6754 16.9104 14.8916 16.751 15.051C16.5916 15.2104 16.3754 15.3 16.15 15.3H2.55C2.32457 15.3 2.10837 15.2104 1.94896 15.051C1.78955 14.8916 1.7 14.6754 1.7 14.45V7.65C1.7 7.42457 1.78955 7.20837 1.94896 7.04896C2.10837 6.88955 2.32457 6.8 2.55 6.8H5.1C5.32543 6.8 5.54163 6.71045 5.70104 6.55104C5.86045 6.39163 5.95 6.17543 5.95 5.95C5.95 5.72457 5.86045 5.50837 5.70104 5.34896C5.54163 5.18955 5.32543 5.1 5.1 5.1H2.55C1.8737 5.1 1.2251 5.36866 0.746878 5.84688C0.26866 6.3251 0 6.9737 0 7.65V14.45C0 15.1263 0.26866 15.7749 0.746878 16.2531C1.2251 16.7313 1.8737 17 2.55 17H16.15C16.8263 17 17.4749 16.7313 17.9531 16.2531C18.4313 15.7749 18.7 15.1263 18.7 14.45V7.65C18.7 6.9737 18.4313 6.3251 17.9531 5.84688C17.4749 5.36866 16.8263 5.1 16.15 5.1ZM3.4 11.05C3.4 11.2181 3.44985 11.3825 3.54325 11.5222C3.63665 11.662 3.7694 11.771 3.92472 11.8353C4.08004 11.8996 4.25094 11.9165 4.41583 11.8837C4.58071 11.8509 4.73217 11.7699 4.85104 11.651C4.96991 11.5322 5.05087 11.3807 5.08367 11.2158C5.11646 11.0509 5.09963 10.88 5.0353 10.7247C4.97096 10.5694 4.86202 10.4367 4.72223 10.3433C4.58245 10.2499 4.41811 10.2 4.25 10.2C4.02457 10.2 3.80837 10.2896 3.64896 10.449C3.48955 10.6084 3.4 10.8246 3.4 11.05Z" fill="#00B3D3"/>
</svg>
