<svg width="23" height="24" viewBox="0 0 23 24" fill="none" xmlns="http://www.w3.org/2000/svg">
<path d="M9.07957 0C8.95227 0 8.83018 0.0505713 8.74016 0.140589C8.65014 0.230606 8.59957 0.352696 8.59957 0.48V1.44C8.59957 1.5673 8.65014 1.68939 8.74016 1.77941C8.83018 1.86943 8.95227 1.92 9.07957 1.92H9.79957V3.1908C4.60693 3.7884 0.55957 8.21016 0.55957 13.56C0.55957 19.3159 5.24365 24 10.9996 24C16.7555 24 21.4396 19.3159 21.4396 13.56C21.4412 11.5899 20.8818 9.66009 19.8268 7.99632L20.8439 7.17288L21.297 7.73256C21.3367 7.78157 21.3856 7.8223 21.441 7.85241C21.4963 7.88251 21.5571 7.90142 21.6198 7.90804C21.6825 7.91466 21.7459 7.90886 21.8063 7.89098C21.8668 7.8731 21.9231 7.84349 21.9721 7.80384L22.7185 7.19952C22.8173 7.11935 22.8803 7.00323 22.8935 6.87669C22.9067 6.75014 22.8692 6.62351 22.7891 6.52464L20.3728 3.54C20.3331 3.49099 20.2842 3.45026 20.2288 3.42015C20.1734 3.39005 20.1127 3.37114 20.05 3.36452C19.9873 3.3579 19.9239 3.3637 19.8634 3.38158C19.803 3.39946 19.7467 3.42907 19.6977 3.46872L18.9513 4.07304C18.8524 4.15321 18.7895 4.26933 18.7763 4.39587C18.763 4.52242 18.8006 4.64905 18.8807 4.74792L19.3341 5.3076L18.3213 6.12696C16.7044 4.53384 14.5715 3.4644 12.1996 3.19128V1.92H12.9196C13.0469 1.92 13.169 1.86943 13.259 1.77941C13.349 1.68939 13.3996 1.5673 13.3996 1.44V0.48C13.3996 0.352696 13.349 0.230606 13.259 0.140589C13.169 0.0505713 13.0469 0 12.9196 0L9.07957 0ZM10.9996 4.8C15.8476 4.8 19.7596 8.712 19.7596 13.56C19.7596 18.408 15.8476 22.32 10.9996 22.32C6.15157 22.32 2.23957 18.408 2.23957 13.56C2.23957 8.712 6.15157 4.8 10.9996 4.8ZM11.0001 6.58632L10.9996 13.56L16.5757 17.7473C17.3535 16.7114 17.8275 15.4794 17.9444 14.1894C18.0613 12.8993 17.8166 11.6022 17.2376 10.4434C16.6587 9.28461 15.7685 8.31 14.6668 7.62878C13.5651 6.94757 12.2954 6.58668 11.0001 6.58656V6.58632Z" fill="#323752"/>
</svg>
