<svg width="24" height="24" viewBox="0 0 24 24" fill="none" xmlns="http://www.w3.org/2000/svg">
<path d="M18.6667 6.66666V2.66666C18.6667 2.31304 18.5262 1.9739 18.2761 1.72385C18.0261 1.4738 17.687 1.33333 17.3333 1.33333H4C3.29276 1.33333 2.61448 1.61428 2.11438 2.11438C1.61429 2.61447 1.33334 3.29275 1.33334 3.99999M1.33334 3.99999C1.33334 4.70724 1.61429 5.38552 2.11438 5.88561C2.61448 6.38571 3.29276 6.66666 4 6.66666H20C20.3536 6.66666 20.6928 6.80714 20.9428 7.05719C21.1929 7.30723 21.3333 7.64637 21.3333 7.99999V12M1.33334 3.99999V20C1.33334 20.7072 1.61429 21.3855 2.11438 21.8856C2.61448 22.3857 3.29276 22.6667 4 22.6667H20C20.3536 22.6667 20.6928 22.5262 20.9428 22.2761C21.1929 22.0261 21.3333 21.6869 21.3333 21.3333V17.3333M22.6667 12V17.3333H17.3333C16.6261 17.3333 15.9478 17.0524 15.4477 16.5523C14.9476 16.0522 14.6667 15.3739 14.6667 14.6667C14.6667 13.9594 14.9476 13.2811 15.4477 12.781C15.9478 12.2809 16.6261 12 17.3333 12H22.6667Z" stroke="#53D66B" stroke-width="2" stroke-linecap="round" stroke-linejoin="round"/>
</svg>
