<svg width="14" height="14" viewBox="0 0 14 14" fill="none" xmlns="http://www.w3.org/2000/svg">
<path d="M1.58342 1.16669H12.4168C12.5368 1.20878 12.6456 1.27778 12.7348 1.36841C12.824 1.45903 12.8913 1.56888 12.9315 1.68954C12.9718 1.81019 12.9838 1.93845 12.9668 2.06449C12.9498 2.19053 12.9042 2.31101 12.8334 2.41669L8.66676 7.00002V12.8334L5.33342 10.3334V7.00002L1.16676 2.41669C1.096 2.31101 1.05037 2.19053 1.03336 2.06449C1.01636 1.93845 1.02842 1.81019 1.06864 1.68954C1.10886 1.56888 1.17616 1.45903 1.26539 1.36841C1.35462 1.27778 1.46341 1.20878 1.58342 1.16669Z" stroke="white" stroke-width="2" stroke-linecap="round" stroke-linejoin="round"/>
</svg>
