<svg width="28" height="22" viewBox="0 0 28 22" fill="none" xmlns="http://www.w3.org/2000/svg">
<path d="M11 17.6667C11 19.1394 9.80609 20.3333 8.33333 20.3333C6.86057 20.3333 5.66667 19.1394 5.66667 17.6667M11 17.6667C11 16.1939 9.80609 15 8.33333 15C6.86057 15 5.66667 16.1939 5.66667 17.6667M11 17.6667H19M5.66667 17.6667H3V12.3333M24.3333 17.6667C24.3333 19.1394 23.1394 20.3333 21.6667 20.3333C20.1939 20.3333 19 19.1394 19 17.6667M24.3333 17.6667C24.3333 16.1939 23.1394 15 21.6667 15C20.1939 15 19 16.1939 19 17.6667M24.3333 17.6667H27V9.66667M1.66667 1.66667H16.3333V17.6667M27 9.66667H16.3333M27 9.66667L23 3.00001H16.3333M3 7.00001H8.33333" stroke="#E97027" stroke-width="2" stroke-linecap="round" stroke-linejoin="round"/>
</svg>
