<svg width="20" height="21" viewBox="0 0 20 21" fill="none" xmlns="http://www.w3.org/2000/svg">
<path d="M1.5 0.5C1.10218 0.5 0.720644 0.658035 0.43934 0.93934C0.158035 1.22064 0 1.60218 0 2V15C0 15.3978 0.158035 15.7794 0.43934 16.0607C0.720644 16.342 1.10218 16.5 1.5 16.5H7V13.184C7 12.421 7.316 11.694 7.874 11.174L12 7.321V7C12 6.60218 11.842 6.22064 11.5607 5.93934C11.2794 5.65804 10.8978 5.5 10.5 5.5H9V2C9 1.60218 8.84196 1.22064 8.56066 0.93934C8.27936 0.658035 7.89782 0.5 7.5 0.5H1.5ZM4 4.25C4 4.44891 3.92098 4.63968 3.78033 4.78033C3.63968 4.92098 3.44891 5 3.25 5C3.05109 5 2.86032 4.92098 2.71967 4.78033C2.57902 4.63968 2.5 4.44891 2.5 4.25C2.5 4.05109 2.57902 3.86032 2.71967 3.71967C2.86032 3.57902 3.05109 3.5 3.25 3.5C3.44891 3.5 3.63968 3.57902 3.78033 3.71967C3.92098 3.86032 4 4.05109 4 4.25ZM3.25 8C3.05109 8 2.86032 7.92098 2.71967 7.78033C2.57902 7.63968 2.5 7.44891 2.5 7.25C2.5 7.05109 2.57902 6.86032 2.71967 6.71967C2.86032 6.57902 3.05109 6.5 3.25 6.5C3.44891 6.5 3.63968 6.57902 3.78033 6.71967C3.92098 6.86032 4 7.05109 4 7.25C4 7.44891 3.92098 7.63968 3.78033 7.78033C3.63968 7.92098 3.44891 8 3.25 8ZM4 10.25C4 10.4489 3.92098 10.6397 3.78033 10.7803C3.63968 10.921 3.44891 11 3.25 11C3.05109 11 2.86032 10.921 2.71967 10.7803C2.57902 10.6397 2.5 10.4489 2.5 10.25C2.5 10.0511 2.57902 9.86032 2.71967 9.71967C2.86032 9.57902 3.05109 9.5 3.25 9.5C3.44891 9.5 3.63968 9.57902 3.78033 9.71967C3.92098 9.86032 4 10.0511 4 10.25ZM5.75 5C5.55109 5 5.36032 4.92098 5.21967 4.78033C5.07902 4.63968 5 4.44891 5 4.25C5 4.05109 5.07902 3.86032 5.21967 3.71967C5.36032 3.57902 5.55109 3.5 5.75 3.5C5.94891 3.5 6.13968 3.57902 6.28033 3.71967C6.42098 3.86032 6.5 4.05109 6.5 4.25C6.5 4.44891 6.42098 4.63968 6.28033 4.78033C6.13968 4.92098 5.94891 5 5.75 5ZM6.5 7.25C6.5 7.44891 6.42098 7.63968 6.28033 7.78033C6.13968 7.92098 5.94891 8 5.75 8C5.55109 8 5.36032 7.92098 5.21967 7.78033C5.07902 7.63968 5 7.44891 5 7.25C5 7.05109 5.07902 6.86032 5.21967 6.71967C5.36032 6.57902 5.55109 6.5 5.75 6.5C5.94891 6.5 6.13968 6.57902 6.28033 6.71967C6.42098 6.86032 6.5 7.05109 6.5 7.25ZM5.75 11C5.65151 11 5.55398 10.9806 5.46299 10.9429C5.37199 10.9052 5.28931 10.85 5.21967 10.7803C5.15003 10.7107 5.09478 10.628 5.05709 10.537C5.0194 10.446 5 10.3485 5 10.25C5 10.1515 5.0194 10.054 5.05709 9.96299C5.09478 9.87199 5.15003 9.78931 5.21967 9.71967C5.28931 9.65003 5.37199 9.59478 5.46299 9.55709C5.55398 9.5194 5.65151 9.5 5.75 9.5C5.94891 9.5 6.13968 9.57902 6.28033 9.71967C6.42098 9.86032 6.5 10.0511 6.5 10.25C6.5 10.4489 6.42098 10.6397 6.28033 10.7803C6.13968 10.921 5.94891 11 5.75 11ZM15.194 7.939C14.87 7.63659 14.4432 7.4684 14 7.4684C13.5568 7.4684 13.13 7.63659 12.806 7.939L8.556 11.905C8.38048 12.0688 8.24054 12.267 8.14489 12.4872C8.04924 12.7074 7.99992 12.9449 8 13.185V19C8 19.3978 8.15804 19.7794 8.43934 20.0607C8.72064 20.342 9.10218 20.5 9.5 20.5H11.5C11.8978 20.5 12.2794 20.342 12.5607 20.0607C12.842 19.7794 13 19.3978 13 19V16.5H15V19C15 19.3978 15.158 19.7794 15.4393 20.0607C15.7206 20.342 16.1022 20.5 16.5 20.5H18.5C18.8978 20.5 19.2794 20.342 19.5607 20.0607C19.842 19.7794 20 19.3978 20 19V13.185C20.0001 12.9449 19.9508 12.7074 19.8551 12.4872C19.7595 12.267 19.6195 12.0688 19.444 11.905L15.194 7.939ZM13.829 9.035C13.8753 8.99155 13.9365 8.96737 14 8.96737C14.0635 8.96737 14.1247 8.99155 14.171 9.035L18.421 13.002C18.446 13.0255 18.4659 13.0538 18.4795 13.0853C18.4931 13.1168 18.5001 13.1507 18.5 13.185V19H16.5V16.5C16.5 16.1022 16.342 15.7206 16.0607 15.4393C15.7794 15.158 15.3978 15 15 15H13C12.6022 15 12.2206 15.158 11.9393 15.4393C11.658 15.7206 11.5 16.1022 11.5 16.5V19H9.5V13.185C9.50004 13.1506 9.50717 13.1167 9.52093 13.0852C9.5347 13.0537 9.5548 13.0254 9.58 13.002L13.83 9.035H13.829ZM7.25 0.5H1.75H7.25Z" fill="#636E72"/>
</svg>
