<svg width="20" height="21" viewBox="0 0 20 21" fill="none" xmlns="http://www.w3.org/2000/svg">
<path d="M13 13.9999L10 10.9999L13 7.9999M9 13.9999L6 10.9999L9 7.9999M19 10.9999C19.0009 8.62443 18.0626 6.34495 16.3897 4.65845C14.7168 2.97195 12.445 2.01522 10.0696 1.99685C7.69418 1.97849 5.40785 2.89998 3.70908 4.56041C2.01031 6.22084 1.03688 8.48555 1.00103 10.8607C0.965174 13.2359 1.86981 15.529 3.51769 17.24C5.16557 18.9509 7.42305 19.941 9.79792 19.9943C12.1728 20.0476 14.4724 19.1599 16.1955 17.5247C17.9185 15.8894 18.9252 13.6393 18.996 11.2649L19 10.9999Z" stroke="black" stroke-width="2" stroke-linecap="round" stroke-linejoin="round"/>
</svg>
