<svg width="24" height="24" viewBox="0 0 24 24" fill="none" xmlns="http://www.w3.org/2000/svg">
<path d="M17.5667 7.08571V4.04286C17.5667 3.23584 17.3173 2.46188 16.8735 1.89123C16.4296 1.32059 15.8277 1 15.2 1H3.36667C2.73899 1 2.13702 1.32059 1.69318 1.89123C1.24934 2.46188 1 3.23584 1 4.04286V13.1714C1 13.9784 1.24934 14.7524 1.69318 15.3231C2.13702 15.8937 2.73899 16.2143 3.36667 16.2143H5.73333M8.1 7.08571H19.9333C21.2404 7.08571 22.3 8.44805 22.3 10.1286V19.2571C22.3 20.9377 21.2404 22.3 19.9333 22.3H8.1C6.79293 22.3 5.73333 20.9377 5.73333 19.2571V10.1286C5.73333 8.44805 6.79293 7.08571 8.1 7.08571ZM16.3833 14.6929C16.3833 16.3734 15.3237 17.7357 14.0167 17.7357C12.7096 17.7357 11.65 16.3734 11.65 14.6929C11.65 13.0123 12.7096 11.65 14.0167 11.65C15.3237 11.65 16.3833 13.0123 16.3833 14.6929Z" stroke="#D60B9D" stroke-width="2" stroke-linecap="round" stroke-linejoin="round"/>
</svg>
