<svg width="20" height="23" viewBox="0 0 20 23" fill="none" xmlns="http://www.w3.org/2000/svg">
<path d="M7.968 1.32502C8.26762 1.10624 8.62901 0.988342 9 0.988342C9.37099 0.988342 9.73238 1.10624 10.032 1.32502L17.453 6.74102C18.43 7.45302 17.927 8.99802 16.719 9.00102H1.28C0.0720003 8.99802 -0.43 7.45302 0.546 6.74102L7.967 1.32502H7.968ZM10 5.25002C10 4.9848 9.89464 4.73045 9.70711 4.54291C9.51957 4.35538 9.26522 4.25002 9 4.25002C8.73478 4.25002 8.48043 4.35538 8.29289 4.54291C8.10536 4.73045 8 4.9848 8 5.25002C8 5.51524 8.10536 5.76959 8.29289 5.95713C8.48043 6.14466 8.73478 6.25002 9 6.25002C9.26522 6.25002 9.51957 6.14466 9.70711 5.95713C9.89464 5.76959 10 5.51524 10 5.25002ZM8.25 15H6.25V10H8.25V15ZM9.75 14.567C10.3311 14.0927 11.0166 13.7633 11.75 13.606V10H9.75V14.567ZM13.25 13.5H15.5V10H13.25V13.5ZM8 18.25C8 17.436 8.205 16.67 8.566 16H2.25C1.65326 16 1.08097 16.2371 0.65901 16.659C0.237053 17.081 0 17.6533 0 18.25V18.75C0 19.165 0.336 19.5 0.75 19.5H8.166C8.05541 19.0926 7.99958 18.6722 8 18.25ZM4.75 15H2.5V10H4.75V15ZM20 18.25C20 17.2555 19.6049 16.3016 18.9017 15.5984C18.1984 14.8951 17.2446 14.5 16.25 14.5L16.148 14.507C15.9598 14.5329 15.7883 14.6293 15.6684 14.7767C15.5485 14.9241 15.489 15.1116 15.502 15.3011C15.5149 15.4907 15.5994 15.6683 15.7382 15.798C15.8771 15.9278 16.06 16 16.25 16L16.404 16.006C16.9841 16.0484 17.5253 16.3138 17.914 16.7465C18.3027 17.1793 18.5087 17.7458 18.4888 18.3271C18.4689 18.9084 18.2246 19.4595 17.8072 19.8646C17.3898 20.2697 16.8317 20.4975 16.25 20.5L16.247 20.505L16.145 20.512C15.9562 20.538 15.7844 20.6348 15.6644 20.7828C15.5444 20.9309 15.4853 21.1191 15.499 21.3092C15.5128 21.4992 15.5984 21.6769 15.7384 21.8062C15.8784 21.9354 16.0624 22.0065 16.253 22.005V22L16.453 21.995C17.4111 21.9431 18.3128 21.5259 18.9726 20.8292C19.6325 20.1326 20.0001 19.2095 20 18.25ZM13.5 15.25C13.5 15.0511 13.421 14.8603 13.2803 14.7197C13.1397 14.579 12.9489 14.5 12.75 14.5L12.55 14.505C11.5729 14.5555 10.6543 14.9858 9.99008 15.7042C9.32587 16.4225 8.96871 17.372 8.99481 18.3501C9.02091 19.3281 9.4282 20.2572 10.1298 20.9391C10.8313 21.621 11.7716 22.0017 12.75 22L12.852 21.994C13.0419 21.9699 13.2153 21.8742 13.3369 21.7264C13.4585 21.5785 13.5189 21.3898 13.5059 21.1989C13.4928 21.008 13.4073 20.8292 13.2668 20.6993C13.1263 20.5694 12.9414 20.4981 12.75 20.5L12.596 20.495C12.0132 20.4561 11.4683 20.1921 11.0767 19.7588C10.685 19.3254 10.4772 18.7567 10.4972 18.173C10.5172 17.5892 10.7634 17.0361 11.1838 16.6306C11.6042 16.2251 12.1659 15.9989 12.75 16L12.852 15.994C13.0317 15.9693 13.1964 15.8804 13.3156 15.7436C13.4347 15.6068 13.5002 15.4314 13.5 15.25ZM17 18.25C17 18.0511 16.921 17.8603 16.7803 17.7197C16.6397 17.579 16.4489 17.5 16.25 17.5H12.75L12.648 17.507C12.4597 17.5329 12.2883 17.6293 12.1684 17.7767C12.0485 17.9241 11.989 18.1116 12.002 18.3011C12.0149 18.4907 12.0994 18.6683 12.2382 18.798C12.3771 18.9278 12.56 19 12.75 19H16.25L16.352 18.994C16.5317 18.9693 16.6964 18.8804 16.8156 18.7436C16.9347 18.6068 17.0002 18.4314 17 18.25Z" fill="#907532"/>
</svg>
