<svg width="17" height="17" viewBox="0 0 17 17" fill="none" xmlns="http://www.w3.org/2000/svg">
<path d="M7.64778 15.2956H2.54926C2.32389 15.2956 2.10775 15.206 1.94839 15.0467C1.78903 14.8873 1.69951 14.6712 1.69951 14.4458V2.54926C1.69951 2.32389 1.78903 2.10775 1.94839 1.94839C2.10775 1.78903 2.32389 1.69951 2.54926 1.69951H6.79803V4.24877C6.79803 4.92487 7.06661 5.57329 7.54469 6.05137C8.02277 6.52945 8.67118 6.79803 9.34729 6.79803H11.8966V11.0468C11.8966 11.2722 11.9861 11.4883 12.1454 11.6477C12.3048 11.807 12.5209 11.8966 12.7463 11.8966C12.9717 11.8966 13.1878 11.807 13.3472 11.6477C13.5065 11.4883 13.5961 11.2722 13.5961 11.0468V5.94828C13.5961 5.94828 13.5961 5.94827 13.5961 5.89729C13.5872 5.81923 13.5701 5.74232 13.5451 5.66786V5.59138C13.5042 5.50401 13.4497 5.42369 13.3836 5.35345L8.2851 0.254926C8.21485 0.188829 8.13454 0.13433 8.04717 0.0934728C8.01906 0.0885523 7.9903 0.0885523 7.96219 0.0934728C7.87956 0.0492883 7.79076 0.0177785 7.69877 0H2.54926C1.87315 0 1.22474 0.268582 0.746661 0.746661C0.268582 1.22474 0 1.87315 0 2.54926V14.4458C0 15.1219 0.268582 15.7703 0.746661 16.2484C1.22474 16.7265 1.87315 16.9951 2.54926 16.9951H7.64778C7.87315 16.9951 8.08929 16.9055 8.24865 16.7462C8.40801 16.5868 8.49754 16.3707 8.49754 16.1453C8.49754 15.92 8.40801 15.7038 8.24865 15.5445C8.08929 15.3851 7.87315 15.2956 7.64778 15.2956ZM8.49754 2.89766L10.6984 5.09852H9.34729C9.12192 5.09852 8.90578 5.00899 8.74642 4.84963C8.58706 4.69027 8.49754 4.47414 8.49754 4.24877V2.89766ZM4.24877 10.197H9.34729C9.57266 10.197 9.7888 10.1075 9.94816 9.94816C10.1075 9.7888 10.197 9.57266 10.197 9.34729C10.197 9.12192 10.1075 8.90578 9.94816 8.74642C9.7888 8.58706 9.57266 8.49754 9.34729 8.49754H4.24877C4.0234 8.49754 3.80726 8.58706 3.6479 8.74642C3.48854 8.90578 3.39901 9.12192 3.39901 9.34729C3.39901 9.57266 3.48854 9.7888 3.6479 9.94816C3.80726 10.1075 4.0234 10.197 4.24877 10.197ZM7.64778 11.8966H4.24877C4.0234 11.8966 3.80726 11.9861 3.6479 12.1454C3.48854 12.3048 3.39901 12.5209 3.39901 12.7463C3.39901 12.9717 3.48854 13.1878 3.6479 13.3472C3.80726 13.5065 4.0234 13.5961 4.24877 13.5961H7.64778C7.87315 13.5961 8.08929 13.5065 8.24865 13.3472C8.40801 13.1878 8.49754 12.9717 8.49754 12.7463C8.49754 12.5209 8.40801 12.3048 8.24865 12.1454C8.08929 11.9861 7.87315 11.8966 7.64778 11.8966ZM4.24877 6.79803H5.09852C5.32389 6.79803 5.54003 6.7085 5.69939 6.54914C5.85875 6.38978 5.94828 6.17364 5.94828 5.94828C5.94828 5.72291 5.85875 5.50677 5.69939 5.34741C5.54003 5.18805 5.32389 5.09852 5.09852 5.09852H4.24877C4.0234 5.09852 3.80726 5.18805 3.6479 5.34741C3.48854 5.50677 3.39901 5.72291 3.39901 5.94828C3.39901 6.17364 3.48854 6.38978 3.6479 6.54914C3.80726 6.7085 4.0234 6.79803 4.24877 6.79803ZM15.8989 12.143C15.8199 12.0633 15.7259 12.0001 15.6224 11.957C15.5188 11.9138 15.4077 11.8916 15.2956 11.8916C15.1834 11.8916 15.0723 11.9138 14.9688 11.957C14.8652 12.0001 14.7712 12.0633 14.6922 12.143L11.8966 14.9472L10.8004 13.8425C10.7211 13.7633 10.6271 13.7004 10.5236 13.6575C10.42 13.6146 10.3091 13.5926 10.197 13.5926C10.085 13.5926 9.97404 13.6146 9.87053 13.6575C9.76701 13.7004 9.67295 13.7633 9.59372 13.8425C9.51449 13.9217 9.45164 14.0158 9.40876 14.1193C9.36588 14.2228 9.34381 14.3338 9.34381 14.4458C9.34381 14.5579 9.36588 14.6688 9.40876 14.7723C9.45164 14.8758 9.51449 14.9699 9.59372 15.0491L11.2932 16.7486C11.3722 16.8283 11.4662 16.8915 11.5698 16.9346C11.6733 16.9778 11.7844 17 11.8966 17C12.0087 17 12.1198 16.9778 12.2233 16.9346C12.3269 16.8915 12.4209 16.8283 12.4999 16.7486L15.8989 13.3496C15.9785 13.2706 16.0418 13.1766 16.0849 13.0731C16.128 12.9695 16.1502 12.8585 16.1502 12.7463C16.1502 12.6341 16.128 12.5231 16.0849 12.4195C16.0418 12.316 15.9785 12.222 15.8989 12.143Z" fill="#00B3D3"/>
</svg>
