<svg width="22" height="24" viewBox="0 0 22 24" fill="none" xmlns="http://www.w3.org/2000/svg">
<path d="M5 9.5H3V16.5H5V9.5Z" fill="white"/>
<path d="M11 9.5H9V16.5H11V9.5Z" fill="white"/>
<path d="M20 5.5L10 0.5L0 5.5V7.5H20V5.5ZM4.47 5.5L10 2.74L15.53 5.5H4.47Z" fill="white"/>
<path d="M0 18.5V20.5H12.4C12.19 19.86 12.08 19.19 12.04 18.5H0Z" fill="white"/>
<path d="M17 11.76V9.5H15V12.76L17 11.76Z" fill="white"/>
<path d="M18 13.5L14 15.5V18.05C14 20.57 15.71 22.93 18 23.5C20.29 22.93 22 20.57 22 18.05V15.5L18 13.5ZM17.28 20.5L15.25 18.47L16.31 17.41L17.28 18.38L19.69 16L20.75 17.06L17.28 20.5Z" fill="white"/>
</svg>
