<svg width="20" height="20" viewBox="0 0 20 20" fill="none" xmlns="http://www.w3.org/2000/svg">
<path d="M11.5 8C11.78 8 12 8.22 12 8.5V10H6V8.5C6 8.22 6.22 8 6.5 8H11.5ZM15.5 9C16 9 16.5 9.07 17 9.18V7H15V9.03C15.17 9 15.33 9 15.5 9ZM3 16V7H1V18H9.5C9.24 17.38 9.09 16.7 9.03 16H3ZM18 6H0V0H18V6ZM16 2H2V4H16V2ZM20 15.5C20 18 18 20 15.5 20C13 20 11 18 11 15.5C11 13 13 11 15.5 11C18 11 20 13 20 15.5ZM17 18.08L12.92 14C12.65 14.42 12.5 14.94 12.5 15.5C12.5 17.16 13.84 18.5 15.5 18.5C16.06 18.5 16.58 18.35 17 18.08ZM18.5 15.5C18.5 13.84 17.16 12.5 15.5 12.5C14.94 12.5 14.42 12.65 14 12.92L18.08 17C18.35 16.58 18.5 16.06 18.5 15.5Z" fill="white"/>
</svg>
