<svg width="17" height="17" viewBox="0 0 17 17" fill="none" xmlns="http://www.w3.org/2000/svg">
<path d="M16.2273 12.3636H0.772727C0.567787 12.3636 0.371241 12.445 0.226327 12.59C0.0814121 12.7349 0 12.9314 0 13.1364C0 13.3413 0.0814121 13.5379 0.226327 13.6828C0.371241 13.8277 0.567787 13.9091 0.772727 13.9091H16.2273C16.4322 13.9091 16.6288 13.8277 16.7737 13.6828C16.9186 13.5379 17 13.3413 17 13.1364C17 12.9314 16.9186 12.7349 16.7737 12.59C16.6288 12.445 16.4322 12.3636 16.2273 12.3636ZM16.2273 15.4545H0.772727C0.567787 15.4545 0.371241 15.536 0.226327 15.6809C0.0814121 15.8258 0 16.0223 0 16.2273C0 16.4322 0.0814121 16.6288 0.226327 16.7737C0.371241 16.9186 0.567787 17 0.772727 17H16.2273C16.4322 17 16.6288 16.9186 16.7737 16.7737C16.9186 16.6288 17 16.4322 17 16.2273C17 16.0223 16.9186 15.8258 16.7737 15.6809C16.6288 15.536 16.4322 15.4545 16.2273 15.4545ZM3.86364 4.63636C3.71081 4.63636 3.56141 4.68168 3.43433 4.76659C3.30726 4.8515 3.20822 4.97218 3.14973 5.11338C3.09124 5.25458 3.07594 5.40995 3.10576 5.55984C3.13557 5.70974 3.20917 5.84742 3.31724 5.95549C3.4253 6.06356 3.56299 6.13715 3.71288 6.16697C3.86278 6.19679 4.01815 6.18148 4.15935 6.123C4.30054 6.06451 4.42123 5.96547 4.50614 5.8384C4.59104 5.71132 4.63636 5.56192 4.63636 5.40909C4.63636 5.20415 4.55495 5.0076 4.41004 4.86269C4.26512 4.71778 4.06858 4.63636 3.86364 4.63636ZM14.6818 0H2.31818C1.70336 0 1.11372 0.244236 0.67898 0.67898C0.244236 1.11372 0 1.70336 0 2.31818V8.5C0 9.11482 0.244236 9.70446 0.67898 10.1392C1.11372 10.5739 1.70336 10.8182 2.31818 10.8182H14.6818C15.2966 10.8182 15.8863 10.5739 16.321 10.1392C16.7558 9.70446 17 9.11482 17 8.5V2.31818C17 1.70336 16.7558 1.11372 16.321 0.67898C15.8863 0.244236 15.2966 0 14.6818 0ZM15.4545 8.5C15.4545 8.70494 15.3731 8.90149 15.2282 9.0464C15.0833 9.19131 14.8868 9.27273 14.6818 9.27273H2.31818C2.11324 9.27273 1.9167 9.19131 1.77178 9.0464C1.62687 8.90149 1.54545 8.70494 1.54545 8.5V2.31818C1.54545 2.11324 1.62687 1.9167 1.77178 1.77178C1.9167 1.62687 2.11324 1.54545 2.31818 1.54545H14.6818C14.8868 1.54545 15.0833 1.62687 15.2282 1.77178C15.3731 1.9167 15.4545 2.11324 15.4545 2.31818V8.5ZM8.5 3.09091C8.04151 3.09091 7.59331 3.22687 7.21209 3.48159C6.83086 3.73632 6.53374 4.09837 6.35828 4.52196C6.18282 4.94555 6.13691 5.41166 6.22636 5.86135C6.31581 6.31103 6.53659 6.72409 6.8608 7.04829C7.185 7.3725 7.59806 7.59328 8.04774 7.68273C8.49743 7.77218 8.96354 7.72627 9.38713 7.55081C9.81072 7.37535 10.1728 7.07823 10.4275 6.697C10.6822 6.31578 10.8182 5.86758 10.8182 5.40909C10.8182 4.79427 10.5739 4.20463 10.1392 3.76989C9.70446 3.33515 9.11482 3.09091 8.5 3.09091ZM8.5 6.18182C8.34717 6.18182 8.19777 6.1365 8.07069 6.05159C7.94362 5.96668 7.84458 5.846 7.78609 5.7048C7.72761 5.5636 7.7123 5.40823 7.74212 5.25834C7.77194 5.10844 7.84553 4.97076 7.9536 4.86269C8.06167 4.75462 8.19935 4.68103 8.34925 4.65121C8.49914 4.6214 8.65451 4.6367 8.79571 4.69518C8.93691 4.75367 9.05759 4.85271 9.1425 4.97979C9.22741 5.10686 9.27273 5.25626 9.27273 5.40909C9.27273 5.61403 9.19131 5.81058 9.0464 5.95549C8.90149 6.10041 8.70494 6.18182 8.5 6.18182ZM13.1364 4.63636C12.9835 4.63636 12.8341 4.68168 12.7071 4.76659C12.58 4.8515 12.4809 4.97218 12.4225 5.11338C12.364 5.25458 12.3487 5.40995 12.3785 5.55984C12.4083 5.70974 12.4819 5.84742 12.59 5.95549C12.698 6.06356 12.8357 6.13715 12.9856 6.16697C13.1355 6.19679 13.2909 6.18148 13.4321 6.123C13.5733 6.06451 13.694 5.96547 13.7789 5.8384C13.8638 5.71132 13.9091 5.56192 13.9091 5.40909C13.9091 5.20415 13.8277 5.0076 13.6828 4.86269C13.5379 4.71778 13.3413 4.63636 13.1364 4.63636Z" fill="#00B3D3"/>
</svg>
