<svg width="16" height="20" viewBox="0 0 16 20" fill="none" xmlns="http://www.w3.org/2000/svg">
<path d="M5 3H3C2.46957 3 1.96086 3.21071 1.58579 3.58579C1.21071 3.96086 1 4.46957 1 5V17C1 17.5304 1.21071 18.0391 1.58579 18.4142C1.96086 18.7893 2.46957 19 3 19H13C13.5304 19 14.0391 18.7893 14.4142 18.4142C14.7893 18.0391 15 17.5304 15 17V5C15 4.46957 14.7893 3.96086 14.4142 3.58579C14.0391 3.21071 13.5304 3 13 3H11M5 3C5 4.10457 5.89543 5 7 5H9C10.1046 5 11 4.10457 11 3M5 3C5 1.89543 5.89543 1 7 1H9C10.1046 1 11 1.89543 11 3M5 12H5.01M5 15H5.01M8 14L9 15L12 12" stroke="#00B8BA" stroke-width="2" stroke-linecap="round" stroke-linejoin="round"/>
</svg>
