<svg width="105" height="108" viewBox="0 0 105 108" fill="none" xmlns="http://www.w3.org/2000/svg">
<path opacity="0.2" d="M36.9766 9.00158C39.308 9.00158 41.1981 7.11156 41.1981 4.78009C41.1981 2.44863 39.308 0.558594 36.9766 0.558594C34.6451 0.558594 32.7551 2.44863 32.7551 4.78009C32.7551 7.11156 34.6451 9.00158 36.9766 9.00158Z" fill="url(#paint0_linear_5679_11983)"/>
<path opacity="0.2" d="M99.2694 56.4704C102.434 56.4704 105 53.9046 105 50.7396C105 47.5746 102.434 45.0088 99.2694 45.0088C96.1043 45.0088 93.5386 47.5746 93.5386 50.7396C93.5386 53.9046 96.1043 56.4704 99.2694 56.4704Z" fill="url(#paint1_linear_5679_11983)"/>
<path opacity="0.2" d="M30.3763 97.6655C32.8871 97.6655 34.9225 95.63 34.9225 93.1192C34.9225 90.6084 32.8871 88.573 30.3763 88.573C27.8655 88.573 25.8301 90.6084 25.8301 93.1192C25.8301 95.63 27.8655 97.6655 30.3763 97.6655Z" fill="url(#paint2_linear_5679_11983)"/>
<path opacity="0.2" d="M69.6091 107.35C71.0918 107.35 72.2938 106.148 72.2938 104.665C72.2938 103.183 71.0918 101.981 69.6091 101.981C68.1263 101.981 66.9243 103.183 66.9243 104.665C66.9243 106.148 68.1263 107.35 69.6091 107.35Z" fill="url(#paint3_linear_5679_11983)"/>
<path d="M86.5085 31.1094H15.2142C13.984 31.1094 12.9868 32.0421 12.9868 33.1927V81.9342C12.9868 83.0848 13.984 84.0176 15.2142 84.0176H86.5085C87.7387 84.0176 88.7359 83.0848 88.7359 81.9342V33.1927C88.7359 32.0421 87.7387 31.1094 86.5085 31.1094Z" fill="#3F4164"/>
<path d="M88.3381 29.28H17.0438C15.8136 29.28 14.8164 30.2128 14.8164 31.3633V80.1049C14.8164 81.2555 15.8136 82.1882 17.0438 82.1882H88.3381C89.5683 82.1882 90.5655 81.2555 90.5655 80.1049V31.3633C90.5655 30.2128 89.5683 29.28 88.3381 29.28Z" fill="#696B8C"/>
<path d="M88.0957 29.28H17.2908C16.6353 29.28 16.0066 29.5401 15.5427 30.0031C15.0788 30.4662 14.8176 31.0944 14.8164 31.7498V39.2415H90.5655V31.7498C90.5655 31.0948 90.3053 30.4666 89.8421 30.0034C89.3789 29.5402 88.7507 29.28 88.0957 29.28Z" fill="#8D8EAC"/>
<path d="M19.7559 34.2607H31.9035" stroke="white" stroke-width="4" stroke-linecap="round" stroke-linejoin="round"/>
<path d="M36.0796 34.2607H83.3759" stroke="white" stroke-width="4" stroke-linecap="round" stroke-linejoin="round"/>
<path d="M36.7836 44.0071H21.5625C20.5647 44.0071 19.7559 44.7046 19.7559 45.5651V73.55C19.7559 74.4105 20.5647 75.108 21.5625 75.108H36.7836C37.7814 75.108 38.5902 74.4105 38.5902 73.55V45.5651C38.5902 44.7046 37.7814 44.0071 36.7836 44.0071Z" fill="url(#paint4_linear_5679_11983)"/>
<path d="M81.5737 44.0071H66.3525C65.3547 44.0071 64.5459 44.7046 64.5459 45.5651V73.55C64.5459 74.4105 65.3547 75.108 66.3525 75.108H81.5737C82.5714 75.108 83.3803 74.4105 83.3803 73.55V45.5651C83.3803 44.7046 82.5714 44.0071 81.5737 44.0071Z" fill="url(#paint5_linear_5679_11983)"/>
<path d="M59.1811 44.0071H43.9599C42.9622 44.0071 42.1533 44.7046 42.1533 45.5651V73.55C42.1533 74.4105 42.9622 75.108 43.9599 75.108H59.1811C60.1788 75.108 60.9877 74.4105 60.9877 73.55V45.5651C60.9877 44.7046 60.1788 44.0071 59.1811 44.0071Z" fill="url(#paint6_linear_5679_11983)"/>
<path d="M82.1176 17.5254H50.1888C48.9587 17.5254 47.9614 18.5226 47.9614 19.7528V72.4094C47.9614 73.6396 48.9587 74.6368 50.1888 74.6368H82.1176C83.3477 74.6368 84.3449 73.6396 84.3449 72.4094V19.7528C84.3449 18.5226 83.3477 17.5254 82.1176 17.5254Z" fill="#D3714B"/>
<path d="M83.0326 17.5254H51.1038C49.8737 17.5254 48.8765 18.5226 48.8765 19.7528V72.4094C48.8765 73.6396 49.8737 74.6368 51.1038 74.6368H83.0326C84.2628 74.6368 85.26 73.6396 85.26 72.4094V19.7528C85.26 18.5226 84.2628 17.5254 83.0326 17.5254Z" fill="url(#paint7_linear_5679_11983)"/>
<path d="M76.4923 26.2385H57.539C56.5413 26.2385 55.7324 27.0474 55.7324 28.0451V45.3564C55.7324 46.3542 56.5413 47.1631 57.539 47.1631H76.4923C77.4901 47.1631 78.2989 46.3542 78.2989 45.3564V28.0451C78.2989 27.0474 77.4901 26.2385 76.4923 26.2385Z" fill="url(#paint8_linear_5679_11983)"/>
<path d="M72.6186 33.3503H61.5137C60.8317 33.3503 60.2788 33.9032 60.2788 34.5852V43.7737C60.2788 44.4557 60.8317 45.0086 61.5137 45.0086H72.6186C73.3006 45.0086 73.8535 44.4557 73.8535 43.7737V34.5852C73.8535 33.9032 73.3006 33.3503 72.6186 33.3503Z" fill="url(#paint9_linear_5679_11983)"/>
<path d="M67.066 42.036C68.6094 42.036 69.8605 40.7849 69.8605 39.2415C69.8605 37.6982 68.6094 36.447 67.066 36.447C65.5226 36.447 64.2715 37.6982 64.2715 39.2415C64.2715 40.7849 65.5226 42.036 67.066 42.036Z" fill="url(#paint10_linear_5679_11983)"/>
<path d="M67.0663 42.292C66.4629 42.292 65.8731 42.113 65.3714 41.7778C64.8697 41.4426 64.4787 40.9662 64.2478 40.4087C64.0169 39.8513 63.9565 39.2379 64.0742 38.6462C64.192 38.0544 64.4825 37.5108 64.9091 37.0842C65.3358 36.6575 65.8793 36.367 66.4711 36.2493C67.0629 36.1316 67.6763 36.192 68.2337 36.4229C68.7911 36.6538 69.2676 37.0448 69.6028 37.5465C69.938 38.0481 70.1169 38.638 70.1169 39.2413C70.1169 40.0504 69.7955 40.8263 69.2234 41.3984C68.6513 41.9705 67.8753 42.292 67.0663 42.292ZM67.0663 36.7029C66.5644 36.7038 66.0741 36.8535 65.6573 37.133C65.2404 37.4124 64.9158 37.8092 64.7244 38.2731C64.5329 38.737 64.4833 39.2472 64.5818 39.7393C64.6802 40.2314 64.9224 40.6833 65.2775 41.0379C65.6327 41.3924 66.085 41.6337 66.5773 41.7313C67.0696 41.8288 67.5797 41.7783 68.0433 41.5861C68.5068 41.3938 68.903 41.0684 69.1817 40.6511C69.4605 40.2338 69.6092 39.7432 69.6092 39.2413C69.608 38.5677 69.3396 37.922 68.8628 37.4461C68.386 36.9702 67.7399 36.7029 67.0663 36.7029Z" fill="#775316"/>
<path fill-rule="evenodd" clip-rule="evenodd" d="M67.5005 39.2131C67.7182 39.0711 67.8621 38.8254 67.8621 38.5461C67.8621 38.1065 67.5058 37.7502 67.0663 37.7502C66.6268 37.7502 66.2705 38.1065 66.2705 38.5461C66.2705 38.8348 66.4243 39.0876 66.6544 39.2271V40.5539C66.6532 40.6092 66.6629 40.6641 66.6829 40.7156C66.7029 40.7672 66.7329 40.8142 66.7711 40.8541C66.8094 40.8941 66.8551 40.9261 66.9057 40.9483C66.9563 40.9706 67.0108 40.9826 67.066 40.9838C67.1232 40.9857 67.1802 40.9759 67.2334 40.955C67.2867 40.9341 67.3351 40.9026 67.3758 40.8624C67.4165 40.8221 67.4485 40.774 67.47 40.721C67.4914 40.668 67.5018 40.6111 67.5005 40.5539V39.2131Z" fill="#7D591D"/>
<path d="M64.1115 33.3505V31.8641C64.096 31.4745 64.1594 31.0858 64.2978 30.7213C64.4362 30.3569 64.6468 30.0241 64.9169 29.743C65.1871 29.4619 65.5112 29.2382 65.8699 29.0854C66.2286 28.9327 66.6145 28.8539 67.0044 28.8539C67.3943 28.8539 67.7801 28.9327 68.1388 29.0854C68.4975 29.2382 68.8217 29.4619 69.0918 29.743C69.362 30.0241 69.5726 30.3569 69.711 30.7213C69.8494 31.0858 69.9127 31.4745 69.8972 31.8641V33.3414H71.1413V31.8641C71.1413 30.7675 70.7057 29.7159 69.9303 28.9405C69.1549 28.1651 68.1032 27.7295 67.0067 27.7295C65.9101 27.7295 64.8585 28.1651 64.0831 28.9405C63.3077 29.7159 62.8721 30.7675 62.8721 31.8641V33.3414L64.1115 33.3505Z" fill="url(#paint11_linear_5679_11983)"/>
<path opacity="0.2" d="M85.2601 23.3615C88.4251 23.3615 90.9909 20.7957 90.9909 17.6307C90.9909 14.4657 88.4251 11.8999 85.2601 11.8999C82.0951 11.8999 79.5293 14.4657 79.5293 17.6307C79.5293 20.7957 82.0951 23.3615 85.2601 23.3615Z" fill="url(#paint12_linear_5679_11983)"/>
<path opacity="0.2" d="M97.2908 91.0429C99.6223 91.0429 101.512 89.1528 101.512 86.8214C101.512 84.4899 99.6223 82.5999 97.2908 82.5999C94.9594 82.5999 93.0693 84.4899 93.0693 86.8214C93.0693 89.1528 94.9594 91.0429 97.2908 91.0429Z" fill="url(#paint13_linear_5679_11983)"/>
<path opacity="0.2" d="M4.55995 35.3584C7.07834 35.3584 9.11989 33.3169 9.11989 30.7985C9.11989 28.2801 7.07834 26.2385 4.55995 26.2385C2.04156 26.2385 0 28.2801 0 30.7985C0 33.3169 2.04156 35.3584 4.55995 35.3584Z" fill="url(#paint14_linear_5679_11983)"/>
<path d="M77.9104 57.3394H56.2312C55.5946 57.3394 55.0786 57.8554 55.0786 58.4919V64.3462C55.0786 64.9828 55.5946 65.4988 56.2312 65.4988H77.9104C78.5469 65.4988 79.0629 64.9828 79.0629 64.3462V58.4919C79.0629 57.8554 78.5469 57.3394 77.9104 57.3394Z" fill="white"/>
<path d="M55.0786 64.2182C55.078 64.3862 55.1106 64.5526 55.1744 64.7079C55.2383 64.8633 55.3322 65.0045 55.4507 65.1235C55.5693 65.2425 55.7102 65.3369 55.8653 65.4013C56.0204 65.4657 56.1867 65.4988 56.3547 65.4988H77.7823C77.9503 65.4988 78.1166 65.4657 78.2717 65.4013C78.4268 65.3369 78.5677 65.2425 78.6862 65.1235C78.8048 65.0045 78.8987 64.8633 78.9625 64.7079C79.0264 64.5526 79.059 64.3862 79.0584 64.2182V63.9758H55.0786V64.2182Z" fill="#D3714B"/>
<path d="M60.1553 64.5249L61.4312 62.7729L59.5142 62.2017L59.8125 61.2495L61.7295 61.9541L61.6724 59.7705H62.6372L62.5737 61.9922L64.4653 61.2876L64.7573 62.2588L62.8086 62.8364L64.0591 64.5566L63.272 65.147L62.0977 63.3188L60.9487 65.1025L60.1553 64.5249ZM68.3539 64.5249L69.6298 62.7729L67.7128 62.2017L68.0111 61.2495L69.9281 61.9541L69.871 59.7705H70.8358L70.7724 61.9922L72.664 61.2876L72.956 62.2588L71.0072 62.8364L72.2577 64.5566L71.4706 65.147L70.2963 63.3188L69.1474 65.1025L68.3539 64.5249ZM60.1553 79.5249L61.4312 77.7729L59.5142 77.2017L59.8125 76.2495L61.7295 76.9541L61.6724 74.7705H62.6372L62.5737 76.9922L64.4653 76.2876L64.7573 77.2588L62.8086 77.8364L64.0591 79.5566L63.272 80.147L62.0977 78.3188L60.9487 80.1025L60.1553 79.5249Z" fill="#F59773"/>
<path d="M60.1553 64.5249L61.4312 62.7729L59.5142 62.2017L59.8125 61.2495L61.7295 61.9541L61.6724 59.7705H62.6372L62.5737 61.9922L64.4653 61.2876L64.7573 62.2588L62.8086 62.8364L64.0591 64.5566L63.272 65.147L62.0977 63.3188L60.9487 65.1025L60.1553 64.5249ZM68.3539 64.5249L69.6298 62.7729L67.7128 62.2017L68.0111 61.2495L69.9281 61.9541L69.871 59.7705H70.8358L70.7724 61.9922L72.664 61.2876L72.956 62.2588L71.0072 62.8364L72.2577 64.5566L71.4706 65.147L70.2963 63.3188L69.1474 65.1025L68.3539 64.5249ZM60.1553 79.5249L61.4312 77.7729L59.5142 77.2017L59.8125 76.2495L61.7295 76.9541L61.6724 74.7705H62.6372L62.5737 76.9922L64.4653 76.2876L64.7573 77.2588L62.8086 77.8364L64.0591 79.5566L63.272 80.147L62.0977 78.3188L60.9487 80.1025L60.1553 79.5249Z" fill="#FFCE7D"/>
<defs>
<linearGradient id="paint0_linear_5679_11983" x1="36.9766" y1="0.558594" x2="36.9766" y2="12.2645" gradientUnits="userSpaceOnUse">
<stop stop-color="#F59773"/>
<stop offset="1" stop-color="#FFCE7D" stop-opacity="0"/>
</linearGradient>
<linearGradient id="paint1_linear_5679_11983" x1="99.2694" y1="45.0088" x2="99.2694" y2="60.9" gradientUnits="userSpaceOnUse">
<stop stop-color="#F59773"/>
<stop offset="1" stop-color="#FFCE7D" stop-opacity="0"/>
</linearGradient>
<linearGradient id="paint2_linear_5679_11983" x1="30.3763" y1="88.573" x2="30.3763" y2="101.179" gradientUnits="userSpaceOnUse">
<stop stop-color="#F59773"/>
<stop offset="1" stop-color="#FFCE7D" stop-opacity="0"/>
</linearGradient>
<linearGradient id="paint3_linear_5679_11983" x1="69.6091" y1="101.981" x2="69.6091" y2="109.425" gradientUnits="userSpaceOnUse">
<stop stop-color="#F59773"/>
<stop offset="1" stop-color="#FFCE7D" stop-opacity="0"/>
</linearGradient>
<linearGradient id="paint4_linear_5679_11983" x1="29.173" y1="44.0071" x2="29.173" y2="75.108" gradientUnits="userSpaceOnUse">
<stop stop-color="white"/>
<stop offset="1" stop-color="white" stop-opacity="0.8"/>
</linearGradient>
<linearGradient id="paint5_linear_5679_11983" x1="73.9631" y1="44.0071" x2="73.9631" y2="75.108" gradientUnits="userSpaceOnUse">
<stop stop-color="white"/>
<stop offset="1" stop-color="white" stop-opacity="0.8"/>
</linearGradient>
<linearGradient id="paint6_linear_5679_11983" x1="51.5705" y1="44.0071" x2="51.5705" y2="75.108" gradientUnits="userSpaceOnUse">
<stop stop-color="white"/>
<stop offset="1" stop-color="white" stop-opacity="0.8"/>
</linearGradient>
<linearGradient id="paint7_linear_5679_11983" x1="67.0682" y1="17.5254" x2="67.0682" y2="74.6368" gradientUnits="userSpaceOnUse">
<stop stop-color="#FFB89D"/>
<stop offset="1" stop-color="#F59773"/>
</linearGradient>
<linearGradient id="paint8_linear_5679_11983" x1="67.0157" y1="26.2385" x2="67.0157" y2="47.1631" gradientUnits="userSpaceOnUse">
<stop stop-color="white"/>
<stop offset="1" stop-color="white" stop-opacity="0.8"/>
</linearGradient>
<linearGradient id="paint9_linear_5679_11983" x1="67.0661" y1="33.3503" x2="67.0661" y2="45.0086" gradientUnits="userSpaceOnUse">
<stop stop-color="#F3BA59"/>
<stop offset="1" stop-color="#7D591D"/>
</linearGradient>
<linearGradient id="paint10_linear_5679_11983" x1="67.066" y1="36.447" x2="67.066" y2="42.036" gradientUnits="userSpaceOnUse">
<stop stop-color="#F3BA59"/>
<stop offset="1" stop-color="#7D591D"/>
</linearGradient>
<linearGradient id="paint11_linear_5679_11983" x1="67.0067" y1="27.7295" x2="67.0067" y2="33.3505" gradientUnits="userSpaceOnUse">
<stop stop-color="#D7D7D7"/>
<stop offset="1" stop-color="#8B672A"/>
</linearGradient>
<linearGradient id="paint12_linear_5679_11983" x1="85.2601" y1="11.8999" x2="85.2601" y2="27.7911" gradientUnits="userSpaceOnUse">
<stop stop-color="#F59773"/>
<stop offset="1" stop-color="#FFCE7D" stop-opacity="0"/>
</linearGradient>
<linearGradient id="paint13_linear_5679_11983" x1="97.2908" y1="82.5999" x2="97.2908" y2="94.3058" gradientUnits="userSpaceOnUse">
<stop stop-color="#F59773"/>
<stop offset="1" stop-color="#FFCE7D" stop-opacity="0"/>
</linearGradient>
<linearGradient id="paint14_linear_5679_11983" x1="4.55995" y1="26.2385" x2="4.55995" y2="38.883" gradientUnits="userSpaceOnUse">
<stop stop-color="#F59773"/>
<stop offset="1" stop-color="#FFCE7D" stop-opacity="0"/>
</linearGradient>
</defs>
</svg>
