<svg width="23" height="20" viewBox="0 0 23 20" fill="none" xmlns="http://www.w3.org/2000/svg">
<path d="M20.2146 5H18.8976C19.0574 4.51378 19.1342 4.00779 19.1253 3.5C19.1253 1.57 17.4151 0 15.3128 0C13.546 0 12.3663 1.482 11.6049 3.085C10.8543 1.57 9.61473 0 7.68778 0C5.58546 0 3.87528 1.57 3.87528 3.5C3.87528 4.096 3.96133 4.589 4.10294 5H2.78599C1.58451 5 0.607422 5.897 0.607422 7V9C0.607422 10.103 1.58451 11 2.78599 11V18C2.78599 19.103 3.76308 20 4.96456 20H18.036C19.2375 20 20.2146 19.103 20.2146 18V11C21.416 11 22.3931 10.103 22.3931 9V7C22.3931 5.897 21.416 5 20.2146 5ZM15.3128 2C16.2136 2 16.9467 2.673 16.9467 3.5C16.9467 5 16.2648 5 15.8574 5H13.1582C13.7148 3.424 14.523 2 15.3128 2ZM6.05385 3.5C6.05385 2.673 6.78694 2 7.68778 2C8.65506 2 9.55482 3.525 10.082 5H7.14314C6.73574 5 6.05385 5 6.05385 3.5ZM2.78599 7H10.411V9H2.78599V7ZM4.96456 18V11H10.411V18H4.96456ZM18.036 18H12.5896V11H18.036V18ZM12.5896 9V7.085L12.6081 7H20.2146L20.2157 9H12.5896Z" fill="white"/>
</svg>
