<svg width="19" height="17" viewBox="0 0 19 17" fill="none" xmlns="http://www.w3.org/2000/svg">
<path d="M8.043 3.39661L8.50212 2.89498V5.94724C8.50212 6.17273 8.59169 6.38899 8.75114 6.54843C8.91059 6.70788 9.12684 6.79746 9.35233 6.79746C9.57782 6.79746 9.79408 6.70788 9.95352 6.54843C10.113 6.38899 10.2025 6.17273 10.2025 5.94724V2.89498L10.6617 3.3626C10.7388 3.44977 10.8331 3.52015 10.9386 3.5694C11.0441 3.61865 11.1586 3.6457 11.2749 3.64889C11.3913 3.65208 11.5071 3.63133 11.6151 3.58793C11.7232 3.54454 11.8211 3.47942 11.903 3.39661C11.9827 3.31757 12.0459 3.22354 12.0891 3.11993C12.1322 3.01632 12.1545 2.9052 12.1545 2.79296C12.1545 2.68072 12.1322 2.56959 12.0891 2.46599C12.0459 2.36238 11.9827 2.26835 11.903 2.18931L9.95598 0.242322C9.87512 0.164918 9.77978 0.104243 9.67541 0.0637774C9.46842 -0.0212591 9.23624 -0.0212591 9.02925 0.0637774C8.92489 0.104243 8.82954 0.164918 8.74868 0.242322L6.8017 2.1553C6.63709 2.31991 6.54461 2.54316 6.54461 2.77595C6.54461 3.00874 6.63709 3.232 6.8017 3.39661C6.9663 3.56122 7.18956 3.65369 7.42235 3.65369C7.65514 3.65369 7.8784 3.56122 8.043 3.39661ZM9.35233 8.49788C8.84786 8.49788 8.35472 8.64747 7.93527 8.92774C7.51582 9.20801 7.1889 9.60636 6.99585 10.0724C6.8028 10.5385 6.75229 11.0513 6.8507 11.5461C6.94912 12.0409 7.19205 12.4954 7.54876 12.8521C7.90547 13.2088 8.35995 13.4517 8.85473 13.5501C9.3495 13.6486 9.86235 13.598 10.3284 13.405C10.7945 13.2119 11.1928 12.885 11.4731 12.4656C11.7534 12.0461 11.903 11.553 11.903 11.0485C11.903 10.372 11.6342 9.72328 11.1559 9.24494C10.6776 8.76661 10.0288 8.49788 9.35233 8.49788ZM9.35233 11.8987C9.18418 11.8987 9.0198 11.8489 8.87998 11.7554C8.74016 11.662 8.63119 11.5292 8.56684 11.3739C8.50249 11.2185 8.48565 11.0476 8.51846 10.8826C8.55126 10.7177 8.63224 10.5662 8.75114 10.4473C8.87004 10.3284 9.02154 10.2474 9.18646 10.2146C9.35139 10.1818 9.52234 10.1987 9.67769 10.263C9.83305 10.3274 9.96583 10.4363 10.0593 10.5762C10.1527 10.716 10.2025 10.8804 10.2025 11.0485C10.2025 11.274 10.113 11.4903 9.95352 11.6497C9.79408 11.8092 9.57782 11.8987 9.35233 11.8987ZM3.40085 11.0485C3.40085 11.2167 3.45071 11.3811 3.54413 11.5209C3.63756 11.6607 3.77034 11.7697 3.9257 11.834C4.08105 11.8984 4.252 11.9152 4.41693 11.8824C4.58185 11.8496 4.73335 11.7686 4.85225 11.6497C4.97115 11.5308 5.05213 11.3793 5.08494 11.2144C5.11774 11.0495 5.1009 10.8785 5.03655 10.7232C4.9722 10.5678 4.86323 10.435 4.72341 10.3416C4.5836 10.2482 4.41922 10.1983 4.25106 10.1983C4.02557 10.1983 3.80931 10.2879 3.64987 10.4473C3.49042 10.6068 3.40085 10.823 3.40085 11.0485ZM15.3038 11.0485C15.3038 10.8804 15.254 10.716 15.1605 10.5762C15.0671 10.4363 14.9343 10.3274 14.779 10.263C14.6236 10.1987 14.4527 10.1818 14.2877 10.2146C14.1228 10.2474 13.9713 10.3284 13.8524 10.4473C13.7335 10.5662 13.6525 10.7177 13.6197 10.8826C13.5869 11.0476 13.6038 11.2185 13.6681 11.3739C13.7325 11.5292 13.8414 11.662 13.9812 11.7554C14.1211 11.8489 14.2854 11.8987 14.4536 11.8987C14.6791 11.8987 14.8953 11.8092 15.0548 11.6497C15.2142 11.4903 15.3038 11.274 15.3038 11.0485ZM16.154 5.09703H12.7532C12.5277 5.09703 12.3114 5.18661 12.152 5.34605C11.9925 5.5055 11.903 5.72175 11.903 5.94724C11.903 6.17273 11.9925 6.38899 12.152 6.54843C12.3114 6.70788 12.5277 6.79746 12.7532 6.79746H16.154C16.3795 6.79746 16.5958 6.88703 16.7552 7.04648C16.9147 7.20592 17.0042 7.42218 17.0042 7.64767V14.4494C17.0042 14.6749 16.9147 14.8911 16.7552 15.0506C16.5958 15.21 16.3795 15.2996 16.154 15.2996H2.55064C2.32515 15.2996 2.10889 15.21 1.94945 15.0506C1.79 14.8911 1.70042 14.6749 1.70042 14.4494V7.64767C1.70042 7.42218 1.79 7.20592 1.94945 7.04648C2.10889 6.88703 2.32515 6.79746 2.55064 6.79746H5.95148C6.17697 6.79746 6.39323 6.70788 6.55267 6.54843C6.71212 6.38899 6.8017 6.17273 6.8017 5.94724C6.8017 5.72175 6.71212 5.5055 6.55267 5.34605C6.39323 5.18661 6.17697 5.09703 5.95148 5.09703H2.55064C1.87417 5.09703 1.2254 5.36576 0.747064 5.8441C0.268727 6.32243 0 6.9712 0 7.64767V14.4494C0 15.1258 0.268727 15.7746 0.747064 16.2529C1.2254 16.7313 1.87417 17 2.55064 17H16.154C16.8305 17 17.4793 16.7313 17.9576 16.2529C18.4359 15.7746 18.7047 15.1258 18.7047 14.4494V7.64767C18.7047 6.9712 18.4359 6.32243 17.9576 5.8441C17.4793 5.36576 16.8305 5.09703 16.154 5.09703Z" fill="#00B3D3"/>
</svg>
