<svg width="73" height="15" viewBox="0 0 73 15" fill="none" xmlns="http://www.w3.org/2000/svg">
<path d="M72.8522 1.80095H70.8548C70.5147 2.33205 69.808 3.03677 69.224 3.20869V1.80095H67.5401V8.44814H69.224V4.99262L69.5094 4.85134C70.2161 5.64798 71.044 7.07274 71.2613 8.44814H73C72.8374 7.61916 72.5919 6.83783 72.2401 6.07013C71.8601 5.27179 71.4254 4.59941 70.9361 4.02065C71.6827 3.5202 72.5121 2.54993 72.8522 1.79925V1.80095ZM67.8121 12.5607C67.6761 12.7633 67.5534 12.9199 67.4322 13.0458C67.3094 13.1718 67.2148 13.2331 67.1601 13.2331C67.0788 13.2331 67.0374 13.1701 67.0374 13.0612C67.0374 13.0135 67.0507 12.9522 67.064 12.8739L66.6841 13.0935C66.6574 13.1565 66.6427 13.2348 66.6427 13.3284C66.6427 13.4374 66.6841 13.5157 66.7373 13.594C66.8053 13.6723 66.8866 13.7029 67.0093 13.7029C67.132 13.7029 67.2533 13.6552 67.376 13.5463C67.4987 13.4527 67.6199 13.3267 67.7293 13.1718C67.8239 13.0305 67.96 12.8433 68.096 12.6407L68.1507 12.6714C68.1374 12.6867 68.1241 12.7343 68.096 12.7803C67.96 13.0152 67.8919 13.2331 67.8919 13.3897C67.8919 13.4833 67.9186 13.5616 67.9733 13.6246C68.028 13.6723 68.096 13.7029 68.164 13.7029C68.2719 13.7029 68.4759 13.5786 68.8027 13.3437L68.9106 12.9522C68.8559 12.9982 68.7746 13.0458 68.68 13.0935C68.5986 13.1412 68.5306 13.1718 68.5025 13.1871H68.4478C68.3931 13.1718 68.3665 13.1241 68.3665 13.0612C68.3665 13.0135 68.3798 12.9046 68.4345 12.748C68.4893 12.576 68.544 12.4347 68.5972 12.2952L68.9091 11.5598L68.5691 11.3572C68.4745 11.5445 68.3517 11.7317 68.2157 11.9513C68.093 12.1709 67.9437 12.3735 67.8077 12.5607H67.8121ZM66.2228 13.8595C66.4135 13.3744 66.7121 12.702 67.1335 11.8424L66.7935 11.6398C66.6308 11.9683 66.4534 12.2339 66.3041 12.4535C66.1415 12.6884 65.9921 12.845 65.8694 12.9539C65.7467 13.0629 65.6654 13.1259 65.6122 13.1412H65.5708C65.5294 13.1412 65.5161 13.1105 65.5161 13.0629C65.5161 13.0152 65.5841 12.8433 65.7201 12.5471L66.1814 11.5768L65.828 11.3572C65.6506 11.7164 65.4747 12.0926 65.2854 12.4994C65.108 12.9063 65.0267 13.1871 65.0267 13.3591C65.0267 13.4833 65.04 13.5616 65.0947 13.6246C65.1361 13.6723 65.1893 13.7029 65.244 13.7029C65.4614 13.7029 65.7733 13.4527 66.208 12.9369L66.2346 12.9675C66.1666 13.0918 66.1119 13.2025 66.0587 13.2961C65.7053 13.9685 65.488 14.5012 65.3934 14.9064L65.8014 15C65.8827 14.7345 66.0188 14.3583 66.2228 13.8578V13.8595ZM64.9454 8.44814H66.6294V1.80095H64.9454V3.6768H62.9894V1.80095H61.3055V8.44814H62.9894V5.16455H64.9454V8.44814ZM61.1147 11.4202C61.0201 11.4202 60.9107 11.4509 60.7747 11.4985C60.652 11.5615 60.544 11.6228 60.4346 11.7181L60.584 11.9683C60.6106 11.953 60.6254 11.9377 60.652 11.9224C60.6653 11.9224 60.6786 11.9071 60.6934 11.8917C60.8161 11.8134 60.8974 11.7828 60.9373 11.7828C61.0053 11.7828 61.0452 11.8305 61.0452 11.9241C61.0452 12.0654 60.9506 12.3003 60.7865 12.6441C60.5559 13.0969 60.3652 13.3318 60.2025 13.3318C60.0946 13.3318 60.0532 13.2382 60.0532 13.0816C60.0532 13.0033 60.0665 12.9097 60.1079 12.816L59.7146 13.0033C59.7013 13.0663 59.688 13.1446 59.688 13.2229C59.688 13.3642 59.7294 13.4731 59.796 13.5667C59.8773 13.6603 59.9719 13.708 60.0946 13.708C60.1892 13.708 60.2986 13.6774 60.4213 13.6144C60.5293 13.5514 60.6653 13.4578 60.8146 13.3165C60.9639 13.1752 61.1413 13.0033 61.3173 12.7854C61.3306 12.7701 61.3587 12.7548 61.372 12.7224C61.3986 12.6918 61.4267 12.6748 61.44 12.6594C61.4533 12.6288 61.4814 12.6118 61.508 12.5811L61.5213 12.5965L61.0733 13.5974L61.3454 13.754C61.44 13.5497 61.5361 13.3948 61.6174 13.2688C61.6854 13.1429 61.7667 13.0493 61.8214 12.988C61.8761 12.925 61.9441 12.862 62.0121 12.8007L62.0388 12.7701L62.0654 12.7394L62.092 12.7548C62.0831 12.765 62.0787 12.7752 62.0787 12.7854L62.0654 12.8007C62.0654 12.816 62.0521 12.816 62.0521 12.8314C61.9574 12.988 61.916 13.1293 61.916 13.2842C61.916 13.565 62.024 13.7063 62.2428 13.7063C62.4468 13.7063 62.6908 13.582 62.9894 13.3471L63.0988 12.9556C63.0175 13.0186 62.8948 13.0816 62.7322 13.1752C62.5828 13.2535 62.4882 13.2995 62.4335 13.2995C62.3655 13.2995 62.3389 13.2212 62.3389 13.0646C62.3389 12.9233 62.4069 12.7514 62.5429 12.5488C62.6922 12.3445 62.9096 12.1573 63.2215 11.9547L63.0722 11.6568C62.9643 11.7045 62.8135 11.7981 62.6242 11.9377C62.4202 12.079 62.1896 12.2969 61.9175 12.5641C61.8628 12.6101 61.8362 12.6424 61.8362 12.6424H61.8096C61.8229 12.6118 61.8643 12.5011 61.9456 12.3292L62.231 11.7351L62.0136 11.5785C61.8909 11.7981 61.7283 12.0007 61.5657 12.1879C61.403 12.3752 61.2537 12.5318 61.1443 12.6254H61.1177C61.1443 12.5794 61.1591 12.5624 61.1591 12.5471C61.1724 12.5318 61.1857 12.5165 61.1857 12.4994C61.1946 12.4892 61.2034 12.479 61.2123 12.4688C61.2123 12.4535 61.2256 12.4382 61.2389 12.4058C61.3749 12.2032 61.4429 11.999 61.4429 11.8271C61.4429 11.5462 61.3335 11.4202 61.1162 11.4202H61.1147ZM59.0641 8.44814H60.7629C60.6401 7.71278 60.5041 7.00976 60.3282 6.2744C60.3149 6.21142 60.2868 6.10247 60.2602 5.96119L60.0429 5.16285C59.9334 4.83432 59.8388 4.52111 59.7442 4.22492C59.6363 3.92703 59.5402 3.66148 59.4456 3.42658C59.2149 2.84782 58.9562 2.31673 58.6709 1.80095H57.0682C56.8908 2.09714 56.7563 2.37971 56.6335 2.64526L56.4975 2.95847L56.4295 3.14571C56.3482 3.31763 56.2935 3.50488 56.2255 3.69383C55.9535 4.39685 55.7095 5.17987 55.4922 6.07183C55.3828 6.49399 55.2882 6.87018 55.2068 7.21403C55.1255 7.55788 55.0575 7.96471 54.9762 8.44984H56.6735C56.7415 8.04301 56.8095 7.66852 56.8908 7.32467H58.8882C58.9695 7.63788 59.0109 8.10599 59.0641 8.44984V8.44814ZM58.5481 5.93055H57.2161C57.3787 5.22753 57.6241 4.41387 57.8814 3.77213C58.1534 4.30322 58.4254 5.32115 58.5467 5.93055H58.5481ZM54.5415 5.00794C53.9442 4.07002 52.3135 4.00704 51.2268 4.17896V3.28699H54.2562V1.80095H49.5281V8.44814H52.2588C52.8561 8.44814 53.5495 8.32388 54.0655 7.963C54.9762 7.32127 55.1255 5.97651 54.5415 5.00624V5.00794ZM53.1828 6.21312C53.1695 6.77655 52.7748 7.05742 52.0548 7.05742H51.2268L51.2135 5.49308C51.7561 5.41478 53.1828 5.25817 53.1828 6.21312ZM49.5961 11.8747C49.5961 11.7505 49.5695 11.6551 49.5148 11.5768C49.4601 11.4832 49.3788 11.4509 49.2561 11.4509C49.1068 11.4509 48.9574 11.4985 48.78 11.5921C48.6041 11.7011 48.44 11.8271 48.2773 11.999C48.1147 12.1709 47.9787 12.3581 47.8841 12.5624C47.7747 12.765 47.7347 12.9692 47.7347 13.1565C47.7347 13.5157 47.8974 13.7046 48.2108 13.7046C48.3054 13.7046 48.4015 13.6893 48.4961 13.674C48.5908 13.6433 48.7002 13.611 48.8229 13.565C48.9456 13.5174 49.0949 13.4391 49.2709 13.3454L49.3803 12.9539C48.9323 13.1888 48.6189 13.2978 48.4429 13.2978C48.3749 13.2978 48.3202 13.2825 48.2803 13.2348C48.2537 13.1871 48.2389 13.1412 48.2389 13.0935C48.2389 12.9522 48.2803 12.7956 48.3749 12.5931C48.4562 12.3888 48.5656 12.2169 48.7002 12.0773C48.8229 11.9207 48.9308 11.8577 49.0269 11.8577C49.0683 11.8577 49.0816 11.8577 49.1082 11.873C49.1215 11.9037 49.1348 11.9207 49.1348 11.936C49.1348 11.9666 49.1082 12.0449 49.0668 12.1403L49.3788 12.3598C49.4468 12.2815 49.5015 12.2032 49.5414 12.1249C49.5813 12.0313 49.5961 11.953 49.5961 11.8747ZM44.8148 3.2887H46.6762V1.80095H41.2695V3.28699H43.1309V8.44814H44.8148V3.28699V3.2887ZM40.7668 12.4228C40.5909 12.4535 40.4815 12.4858 40.4401 12.5011L40.8481 11.5938L40.5081 11.4066L39.5293 13.5957L39.9241 13.7523L40.3041 12.8756C40.5613 12.7667 40.7934 12.719 40.9827 12.7037C40.8747 12.9386 40.8067 13.0952 40.7786 13.1735C40.752 13.2365 40.7387 13.3148 40.7387 13.3608C40.7387 13.4697 40.7653 13.548 40.8333 13.611C40.888 13.674 40.9561 13.7046 41.0507 13.7046C41.1586 13.7046 41.404 13.5803 41.7707 13.3454L41.8653 12.9539C41.716 13.0322 41.648 13.0799 41.6347 13.0952C41.472 13.1888 41.3626 13.2365 41.3094 13.2365C41.2562 13.2365 41.2281 13.2059 41.2281 13.1429C41.2281 13.0952 41.2547 13.0339 41.2828 12.9556C41.2961 12.9556 41.2961 12.925 41.3094 12.8926C41.3227 12.862 41.3227 12.8467 41.336 12.8297L41.784 11.7658L41.4439 11.5938L41.1172 12.3922C41.0359 12.3922 40.9132 12.3922 40.7639 12.4228H40.7668ZM39.0015 8.44984H40.6855V1.80095H39.0015C38.4575 2.37971 37.6295 3.64616 37.3575 4.55345H37.3309C37.0589 3.64616 36.2309 2.37971 35.6869 1.80095H34.0029V8.44814H35.6869V4.32025C36.1348 4.96198 36.5976 6.38504 36.7868 7.33829H37.9016C38.0923 6.38504 38.5536 4.96028 39.0015 4.32025V8.44984ZM34.5736 11.5002C34.3976 11.5002 34.2069 11.5938 33.9763 11.7658C33.7456 11.953 33.5549 12.1726 33.3923 12.4382C33.2297 12.6884 33.1483 12.9233 33.1483 13.1259C33.1483 13.3284 33.1897 13.4697 33.2711 13.5633C33.3524 13.6569 33.447 13.7046 33.5431 13.7046C33.6924 13.7046 33.855 13.6416 34.0458 13.485C34.2217 13.3437 34.3577 13.2042 34.4538 13.0782C34.4804 13.0475 34.4952 13.0305 34.5085 13.0152H34.5351C34.5351 13.0305 34.5218 13.0629 34.5085 13.0935C34.4819 13.1241 34.4819 13.1718 34.4686 13.1871C34.4553 13.2178 34.442 13.2501 34.4272 13.2961C34.4272 13.3437 34.4139 13.3897 34.4139 13.4374C34.4139 13.5003 34.4405 13.5633 34.4952 13.6246C34.5499 13.6723 34.6179 13.7029 34.6992 13.7029C34.7673 13.7029 34.8752 13.6723 34.9979 13.594C35.1339 13.5157 35.2418 13.4374 35.3379 13.3437L35.4473 12.9522C35.3793 12.9982 35.2847 13.0612 35.162 13.1241C35.0393 13.1871 34.958 13.2178 34.9314 13.2178C34.89 13.2178 34.8634 13.1871 34.8634 13.1241C34.8634 13.0612 34.9048 12.9522 34.9861 12.7803L35.4207 11.7947L35.0674 11.5751L35.0127 11.7011C34.9033 11.5598 34.7687 11.4985 34.578 11.4985L34.5736 11.5002ZM34.2749 12.0007C34.4376 11.8747 34.5736 11.7964 34.683 11.7964C34.7643 11.7964 34.8456 11.8441 34.9003 11.9224L34.6564 12.4688C34.615 12.5624 34.5337 12.6731 34.4124 12.7973C34.303 12.9233 34.1818 13.0169 34.0591 13.1105C33.9364 13.2042 33.855 13.2518 33.787 13.2518C33.6924 13.2518 33.651 13.1735 33.651 13.0016C33.651 12.8603 33.7057 12.6884 33.8417 12.5011C33.9645 12.3139 34.1005 12.142 34.2764 12.0007H34.2749ZM33.2563 6.54165C33.3923 6.1195 33.4736 5.63436 33.4736 5.11859C33.4736 4.9773 33.4603 4.8224 33.447 4.64877C33.4204 4.49217 33.3923 4.32024 33.3657 4.16364C33.3391 4.00704 33.2977 3.86575 33.2578 3.72617C33.2031 3.58488 33.1631 3.46062 33.0951 3.31934C32.8364 2.78824 32.483 2.38141 32.0351 2.08352C31.8044 1.94224 31.5457 1.8333 31.2752 1.75499C30.7311 1.61371 30.0392 1.61371 29.4951 1.75499C29.2231 1.8333 28.9658 1.94224 28.7337 2.08352C28.2857 2.38141 27.9324 2.78824 27.6603 3.31934C27.6056 3.46062 27.5657 3.58488 27.511 3.72617C27.4696 3.86745 27.4297 4.00704 27.4031 4.16364C27.3765 4.32024 27.3484 4.49217 27.3218 4.64877C27.3085 4.8207 27.2952 4.9773 27.2952 5.11859C27.2952 5.63436 27.3765 6.1195 27.5125 6.54165C27.6485 6.9638 27.8658 7.33999 28.1379 7.6515C28.4099 7.94939 28.7352 8.18259 29.1166 8.3392C29.9046 8.68305 30.8686 8.68305 31.6566 8.3392C32.0366 8.18259 32.3633 7.94768 32.6339 7.6515C32.9059 7.33829 33.1232 6.9638 33.2592 6.54165H33.2563ZM31.7216 5.24285L31.7083 5.47776L31.6536 5.88459C31.5856 6.16546 31.4629 6.44802 31.2589 6.69825C31.0549 6.94848 30.7828 7.08976 30.4162 7.08976H30.3482C29.9815 7.08976 29.7095 6.94848 29.5054 6.69825C29.3014 6.44802 29.1787 6.16716 29.1122 5.88459L29.0575 5.47776L29.0442 5.24285V5.11859C29.0442 4.80538 29.0841 4.49387 29.1669 4.18066C29.2482 3.86745 29.3975 3.63255 29.6015 3.42998C29.7923 3.27338 30.0096 3.17975 30.2802 3.16443C30.3482 3.14911 30.4162 3.14911 30.4842 3.16443C30.7562 3.17975 30.9735 3.27338 31.1628 3.42998C31.3668 3.63255 31.5161 3.86745 31.5975 4.18066C31.6788 4.49387 31.7202 4.80538 31.7202 5.11859V5.24285H31.7216ZM27.035 10.7019C26.859 10.7019 26.7629 10.5606 26.7629 10.3104L26.3549 10.3257C26.3549 10.7955 26.5323 11.0134 26.8842 11.0134C27.1828 11.0134 27.4415 10.8721 27.6855 10.5606C27.6988 10.5453 27.7269 10.4976 27.7801 10.4346L27.5894 10.2474C27.372 10.5453 27.1946 10.7019 27.032 10.7019H27.035ZM25.0923 8.44984H26.7895V1.80095C25.9202 1.80095 25.1603 1.70733 24.2762 1.87926C21.3828 2.45801 21.3148 5.5867 21.4775 8.44814H23.1747C23.0934 6.74421 23.0668 4.85134 23.8001 3.95937C24.1801 3.48956 24.5881 3.45892 25.0908 3.45892V8.44814L25.0923 8.44984ZM22.0895 9.9512C21.8308 10.1078 21.6002 10.3257 21.3695 10.5929C21.1389 10.8738 20.9615 11.187 20.8269 11.5309C20.6909 11.8747 20.6229 12.2339 20.6229 12.5948C20.6229 12.8297 20.6495 13.0322 20.7308 13.2042C20.7988 13.3761 20.9083 13.5174 21.0428 13.611C21.1655 13.6893 21.3148 13.7352 21.4775 13.7352C21.6401 13.7352 21.8175 13.7046 21.9934 13.6263C22.1694 13.548 22.3335 13.4544 22.4547 13.3454L22.5626 12.9539C22.4399 13.0629 22.2906 13.1412 22.128 13.2195C21.9653 13.2978 21.816 13.3284 21.68 13.3284C21.476 13.3284 21.3267 13.2654 21.232 13.1565C21.1374 13.0322 21.0827 12.8433 21.0827 12.5931C21.0827 12.3105 21.1507 12.0143 21.2586 11.7164C21.3681 11.4185 21.5174 11.1377 21.7066 10.8874C21.8826 10.6372 22.0733 10.4346 22.2773 10.2933C22.468 10.1367 22.644 10.0584 22.8066 10.0584C22.8879 10.0584 22.9426 10.0891 22.9825 10.1367C23.0239 10.1844 23.0372 10.2457 23.0372 10.2933C23.0372 10.4023 22.9692 10.5283 22.8465 10.6849C22.7105 10.8415 22.5878 10.9657 22.4518 11.0764L22.8051 11.3113C23.0224 11.1547 23.1851 10.9981 23.2945 10.8261C23.4024 10.6695 23.4571 10.4976 23.4571 10.3257C23.4571 10.1538 23.4024 10.0125 23.2945 9.88822C23.1718 9.77928 23.0224 9.7163 22.8184 9.7163C22.5878 9.7163 22.3424 9.7946 22.0851 9.9512H22.0895ZM20.8269 6.54165C20.9763 6.1195 21.0443 5.63436 21.0443 5.11859C21.0443 4.9773 21.031 4.8224 21.0177 4.64877C21.0044 4.49217 20.9763 4.32024 20.9363 4.16364C20.9097 4.00704 20.8683 3.86575 20.8284 3.72617C20.787 3.58488 20.7338 3.46062 20.6791 3.31934C20.4071 2.78824 20.0537 2.38141 19.6057 2.08352C19.3751 1.94224 19.1297 1.8333 18.8591 1.75499C18.6152 1.69201 18.3564 1.66137 18.0844 1.64605H17.8405C17.5684 1.66137 17.3112 1.69201 17.0658 1.75499C16.7937 1.8333 16.5498 1.94224 16.3191 2.08352C15.8712 2.38141 15.5178 2.78824 15.2458 3.31934C15.1911 3.46062 15.1364 3.58488 15.0965 3.72617C15.0418 3.86745 15.0151 4.00704 14.9738 4.16364C14.9471 4.32024 14.919 4.49217 14.9057 4.64877C14.8791 4.8207 14.8791 4.9773 14.8791 5.11859C14.8791 5.63436 14.9471 6.1195 15.0832 6.54165C15.2325 6.9638 15.4365 7.33999 15.7085 7.6515C15.9806 7.94939 16.3058 8.18259 16.7006 8.3392C17.0805 8.51112 17.5019 8.58942 17.9499 8.58942H17.9765C18.4245 8.58942 18.8458 8.51112 19.2258 8.3392C19.619 8.18259 19.9458 7.94768 20.203 7.6515C20.4884 7.33829 20.6924 6.9638 20.8284 6.54165H20.8269ZM19.3056 5.24285L19.279 5.47776L19.2243 5.88459C19.1696 6.16546 19.0336 6.44802 18.8296 6.69825C18.6388 6.94848 18.3535 7.08976 18.0016 7.08976H17.9203C17.567 7.08976 17.2816 6.94848 17.0909 6.69825C16.8869 6.44802 16.7509 6.16716 16.6976 5.88459L16.6296 5.47776L16.6163 5.24285V5.11859C16.6163 4.80538 16.6577 4.49387 16.7523 4.18066C16.8336 3.86745 16.983 3.63255 17.187 3.42998C17.3629 3.27338 17.595 3.17975 17.8656 3.16443C17.9203 3.14911 17.9883 3.14911 18.0563 3.16443C18.3284 3.17975 18.559 3.27338 18.7349 3.42998C18.939 3.63255 19.0883 3.86745 19.1696 4.18066C19.2642 4.49387 19.3056 4.80538 19.3056 5.11859V5.24285ZM12.5402 3.2887H14.8895V1.80095H10.8415V8.44814H12.5402V3.28699V3.2887ZM0 10.244H8.88697V0H0V10.244ZM3.90607 0.674081C5.65803 0.376192 7.30207 1.47242 8.02207 3.20699C8.15809 3.55084 8.34881 4.08364 8.34881 4.47345H4.8715L3.62221 7.10168H2.34334L4.16332 3.20699H6.68999C6.20062 2.39333 5.37269 1.90819 4.46197 1.90819C2.91255 1.90819 1.66326 3.34657 1.66326 5.11518C1.66326 6.88379 2.91255 8.32047 4.46197 8.32047C5.3446 8.32047 6.16071 7.83534 6.67668 7.06934H4.85671L5.4821 5.77054H8.34881C8.29411 6.24035 8.18618 6.66251 8.00877 7.06934C7.45139 8.38345 6.33812 9.35372 5.02082 9.57161C2.87411 9.91546 0.8782 8.21153 0.579553 5.75522C0.264643 3.30232 1.75936 1.01963 3.90607 0.674081ZM23.0801 12.4365C22.9175 12.6867 22.8362 12.9216 22.8362 13.1241C22.8362 13.3267 22.8776 13.468 22.9722 13.5616C23.0535 13.6552 23.1348 13.7029 23.2294 13.7029C23.3787 13.7029 23.5547 13.6399 23.7321 13.4833C23.9228 13.342 24.0574 13.2025 24.1401 13.0765C24.1668 13.0458 24.1949 13.0288 24.2082 13.0135H24.2215C24.2215 13.0288 24.2082 13.0612 24.1948 13.0918C24.1815 13.1224 24.1682 13.1701 24.1535 13.1854C24.1535 13.2161 24.1402 13.2484 24.1268 13.2944C24.1135 13.342 24.1135 13.388 24.1135 13.4357C24.1135 13.4986 24.1268 13.5616 24.1815 13.6229C24.2362 13.6706 24.3043 13.7012 24.3856 13.7012C24.4669 13.7012 24.5615 13.6706 24.6975 13.5923C24.8202 13.514 24.9282 13.4357 25.0376 13.342L25.1455 12.9505C25.0642 12.9965 24.9681 13.0595 24.8468 13.1224C24.7389 13.1854 24.6561 13.2161 24.6295 13.2161C24.5748 13.2161 24.5615 13.1854 24.5615 13.1224C24.5615 13.0595 24.6029 12.9505 24.6709 12.7786L25.1056 11.793L24.7522 11.5734L24.6975 11.6994C24.6029 11.5581 24.4536 11.4968 24.2762 11.4968C24.0988 11.4968 23.8962 11.5904 23.6656 11.7624C23.4349 11.9496 23.2442 12.1692 23.0816 12.4347L23.0801 12.4365ZM23.3374 12.9999C23.3374 12.8586 23.4054 12.6867 23.5281 12.4994C23.6508 12.3122 23.8001 12.1403 23.9627 11.999C24.1254 11.873 24.2614 11.7947 24.3708 11.7947C24.4654 11.7947 24.5334 11.8424 24.6014 11.9207L24.3427 12.4671C24.3013 12.5607 24.22 12.6714 24.1121 12.7956C24.0027 12.9216 23.8814 13.0152 23.7587 13.1088C23.636 13.2025 23.5414 13.2501 23.4867 13.2501C23.3921 13.2501 23.3374 13.1718 23.3374 12.9999ZM25.2253 13.1088C25.1706 13.2348 25.1573 13.3437 25.1573 13.4067C25.1573 13.5157 25.1706 13.594 25.2253 13.6416C25.2667 13.6876 25.32 13.7046 25.3747 13.7046C25.5787 13.7046 25.8906 13.4697 26.312 12.9846C26.4347 12.828 26.516 12.7497 26.516 12.7497L26.5426 12.765C26.3667 13.0458 26.2854 13.2501 26.2706 13.3744V13.4833C26.2706 13.5463 26.2972 13.6093 26.3519 13.6399C26.3933 13.6859 26.4332 13.7029 26.4879 13.7029C26.5426 13.7029 26.6639 13.6552 26.8132 13.5786C26.9758 13.5003 27.0985 13.422 27.1931 13.3437L27.3159 12.9522C27.2212 12.9982 27.1384 13.0458 27.0571 13.0935C26.9477 13.1718 26.8797 13.2024 26.8398 13.2024C26.7851 13.2024 26.7585 13.1718 26.7585 13.1088C26.7585 13.0782 26.7718 13.0305 26.7851 12.9999L27.3277 11.8271L26.9876 11.6398C26.893 11.8424 26.7836 12.0143 26.6757 12.1403C26.5811 12.2815 26.417 12.4535 26.2144 12.6714C26.0518 12.8433 25.9424 12.9522 25.8892 12.9999C25.8345 13.0475 25.7945 13.0782 25.7531 13.0782C25.7117 13.0782 25.6984 13.0475 25.6984 12.9999V12.9846C25.6984 12.9692 25.7117 12.9216 25.7398 12.8586L26.3238 11.5921L25.9838 11.3896C25.7398 11.9054 25.5624 12.2815 25.4545 12.5471C25.3451 12.7973 25.2638 12.9846 25.2239 13.1105L25.2253 13.1088ZM28.2 11.4032L27.236 13.5923L27.6293 13.7489L27.996 12.8722C28.2532 12.7633 28.4853 12.7156 28.6893 12.7003C28.5799 12.9352 28.5119 13.0918 28.4853 13.1701C28.4587 13.2331 28.4454 13.3114 28.4454 13.3574C28.4454 13.4663 28.472 13.5446 28.5267 13.6076C28.5947 13.6706 28.6627 13.7012 28.744 13.7012C28.8668 13.7012 29.1107 13.5769 29.464 13.342L29.5735 12.9505C29.4241 13.0288 29.3561 13.0765 29.3295 13.0918C29.1802 13.1854 29.0708 13.2331 29.0176 13.2331C28.9643 13.2331 28.9362 13.2025 28.9362 13.1395C28.9362 13.0918 28.9629 13.0305 28.9909 12.9522L29.0176 12.8892C29.0176 12.8586 29.0309 12.8433 29.0309 12.8263L29.4921 11.7624L29.1521 11.5904L28.8268 12.3888C28.7455 12.3888 28.6228 12.3888 28.4602 12.4194C28.2976 12.4501 28.1881 12.4824 28.1482 12.4977L28.5563 11.5904L28.2029 11.4032H28.2ZM31.5413 12.5607C31.4467 12.7633 31.392 12.9675 31.392 13.1548C31.392 13.514 31.5546 13.7029 31.8813 13.7029C31.9759 13.7029 32.072 13.6876 32.1667 13.6723C32.2613 13.6416 32.3707 13.6093 32.4919 13.5633C32.6013 13.5157 32.764 13.4374 32.9399 13.3437L33.0493 12.9522C32.588 13.1871 32.2746 13.2961 32.0987 13.2961C32.0306 13.2961 31.9907 13.2808 31.9493 13.2331C31.9227 13.1854 31.8946 13.1395 31.8946 13.0918C31.8946 12.9505 31.9493 12.7939 32.0306 12.5914C32.1253 12.3871 32.2347 12.2152 32.3574 12.0756C32.4934 11.919 32.6013 11.856 32.6974 11.856C32.724 11.856 32.7521 11.856 32.7654 11.8713C32.792 11.902 32.792 11.919 32.792 11.9343C32.792 11.9649 32.7787 12.0432 32.724 12.1386L33.0508 12.3581C33.1055 12.2798 33.1587 12.2015 33.2001 12.1232C33.24 12.0296 33.2681 11.9513 33.2681 11.873C33.2681 11.7488 33.2415 11.6534 33.1868 11.5751C33.1321 11.4815 33.0375 11.4492 32.9281 11.4492C32.7787 11.4492 32.6161 11.4968 32.4387 11.5904C32.2761 11.6994 32.0986 11.8254 31.936 11.9973C31.7867 12.1692 31.6507 12.3564 31.5428 12.5607H31.5413ZM37.9799 10.5589L38.0893 10.4329L37.8853 10.2457C37.6813 10.5436 37.4906 10.7002 37.3412 10.7002C37.1653 10.7002 37.0692 10.5589 37.0692 10.3087L36.6612 10.324C36.6612 10.7938 36.8386 11.0117 37.1904 11.0117C37.4758 11.0117 37.7478 10.8704 37.9785 10.5589H37.9799ZM35.5213 13.1088C35.4799 13.2348 35.4533 13.3437 35.4533 13.4067C35.4533 13.5157 35.4799 13.594 35.5213 13.6416C35.576 13.6876 35.6159 13.7046 35.6706 13.7046C35.8746 13.7046 36.1866 13.4697 36.6079 12.9846C36.7439 12.828 36.812 12.7497 36.8253 12.7497L36.8386 12.765C36.6759 13.0458 36.5798 13.2501 36.5665 13.3744V13.4833C36.5798 13.5463 36.6079 13.6093 36.6478 13.6399C36.6878 13.6859 36.7425 13.7029 36.7839 13.7029C36.8519 13.7029 36.9613 13.6552 37.1239 13.5786C37.2185 13.531 37.2998 13.485 37.3679 13.4374C37.3812 13.531 37.4226 13.594 37.4625 13.6246C37.5305 13.6723 37.5985 13.7029 37.6798 13.7029C37.8971 13.7029 38.1411 13.5157 38.3998 13.1395C38.4264 13.0918 38.4545 13.0612 38.4811 13.0458C38.4944 13.0152 38.5077 12.9982 38.5225 12.9675C38.6038 13.4527 38.7399 13.7029 38.9572 13.7029C39.0385 13.7029 39.1331 13.6723 39.2425 13.5786C39.3371 13.5003 39.4332 13.422 39.5013 13.3437L39.6107 12.9522C39.556 12.9982 39.4613 13.0612 39.3519 13.1241C39.244 13.1871 39.176 13.2178 39.1213 13.2178C38.972 13.2178 38.8773 13.0458 38.8493 12.702C39.1893 12.3105 39.5279 11.9666 39.8679 11.6858L39.556 11.4985C39.4332 11.6228 39.3386 11.7334 39.2706 11.7947C39.2159 11.8577 39.1479 11.936 39.0666 12.0143C38.9986 12.0926 38.904 12.1862 38.7946 12.3105C38.7946 12.0756 38.7812 11.7947 38.7812 11.4815L38.4146 11.2619C38.4013 11.3879 38.4013 11.4968 38.4013 11.6058C38.4013 11.9037 38.4279 12.2475 38.4693 12.622C38.2786 12.8569 38.1426 13.0135 38.0612 13.1071C37.9799 13.1854 37.9252 13.2331 37.8705 13.2331C37.8025 13.2331 37.7611 13.1701 37.7611 13.0612C37.7611 13.0135 37.7611 12.9522 37.7877 12.8739L37.6103 12.9829V12.9522C37.529 12.9982 37.4344 13.0458 37.3664 13.0935C37.257 13.1718 37.1757 13.2024 37.1357 13.2024C37.0958 13.2024 37.0677 13.1718 37.0677 13.1088C37.0677 13.0782 37.081 13.0305 37.0943 12.9999L37.6236 11.8271L37.2969 11.6398C37.189 11.8424 37.0929 12.0143 36.9849 12.1403C36.877 12.2815 36.7262 12.4535 36.5237 12.6714C36.361 12.8433 36.2516 12.9522 36.1969 12.9999C36.1422 13.0475 36.089 13.0782 36.0476 13.0782C36.021 13.0782 35.9929 13.0475 35.9929 12.9999V12.9846C35.9929 12.9692 36.0062 12.9216 36.0343 12.8586L36.6183 11.5921L36.2782 11.3896C36.0476 11.9054 35.8702 12.2815 35.7622 12.5471C35.6395 12.7973 35.5582 12.9846 35.5183 13.1105L35.5213 13.1088ZM42.1226 12.4365C41.9865 12.7326 41.9185 12.9675 41.9185 13.1718C41.9185 13.3284 41.9599 13.4527 42.0678 13.5633C42.1625 13.6569 42.2719 13.7046 42.3946 13.7046C42.5705 13.7046 42.7479 13.6416 42.9106 13.502C43.0599 13.3761 43.1959 13.2212 43.2905 13.0475C43.3999 12.8756 43.4532 12.7343 43.4532 12.6254C43.4532 12.5948 43.4532 12.5794 43.4665 12.5624C43.4798 12.5624 43.5212 12.5471 43.5892 12.5318C43.6838 12.5011 43.7651 12.4535 43.8331 12.4058C43.8878 12.3752 43.9277 12.3428 43.9558 12.3275L43.9824 12.3581C43.9011 12.4841 43.7917 12.6714 43.6838 12.9063C43.5759 13.1259 43.5212 13.3131 43.5212 13.422C43.5212 13.6093 43.6158 13.7029 43.7932 13.7029C43.8878 13.7029 43.9972 13.6723 44.1185 13.594C44.2545 13.531 44.3624 13.4527 44.4718 13.3437L44.5797 12.9522C44.3491 13.1548 44.1717 13.2484 44.0904 13.2484C44.0357 13.2484 44.0091 13.2178 44.0091 13.1548C44.0091 13.1241 44.0224 13.0612 44.0504 12.9829C44.0918 12.9046 44.1185 12.8263 44.1451 12.7633L44.593 11.8407L44.2811 11.6381C44.2397 11.7317 44.1584 11.8407 44.0638 11.9343C43.9691 12.0279 43.8597 12.1062 43.737 12.1692C43.6143 12.2322 43.4931 12.2781 43.3704 12.2952C43.3024 12.2322 43.2077 12.1862 43.0436 12.1862C42.9756 12.1862 42.8943 12.2322 42.7997 12.2952C42.7184 12.3581 42.6637 12.4194 42.6637 12.4824L42.7184 12.6237C42.7317 12.6543 42.745 12.6714 42.7731 12.6714C42.7731 12.6714 42.8411 12.6714 42.9638 12.6407H42.9904C42.9993 12.6509 43.0037 12.6611 43.0037 12.6714V12.6867C43.0037 12.7343 42.9623 12.8126 42.9091 12.9216C42.8411 13.0458 42.7731 13.1565 42.6784 13.2501C42.5971 13.3437 42.5158 13.3914 42.4345 13.3914C42.3931 13.3914 42.3665 13.3608 42.3399 13.3284C42.3133 13.2978 42.2985 13.2501 42.2985 13.1871C42.2985 13.1088 42.3118 13.0458 42.3251 12.9999C42.3517 12.9369 42.3798 12.8586 42.433 12.7497C42.6237 12.3275 42.7997 11.953 42.9904 11.5921L42.6504 11.4049C42.433 11.7964 42.2571 12.1403 42.1211 12.4382L42.1226 12.4365ZM45.2199 12.3105C44.8118 12.765 44.6226 13.1088 44.6226 13.3591C44.6226 13.4527 44.6492 13.531 44.7039 13.594C44.7719 13.6723 44.8666 13.7029 44.9893 13.7029C45.0972 13.7029 45.2332 13.6723 45.3825 13.594C45.5319 13.5157 45.6679 13.4374 45.7906 13.3437L45.9 12.9522C45.8054 13.0305 45.6827 13.0935 45.5333 13.1718C45.384 13.2501 45.2894 13.2808 45.2347 13.2808C45.1948 13.2808 45.1667 13.2808 45.1534 13.2501C45.1268 13.2348 45.1268 13.2042 45.1268 13.1718C45.1268 13.0629 45.2894 12.828 45.6427 12.4365C45.7655 12.3105 45.8601 12.1862 45.9281 12.0926C45.9828 12.0143 46.0094 11.9054 46.0094 11.7794C46.0094 11.5921 45.9281 11.4985 45.7374 11.4985C45.5067 11.4985 45.2613 11.5921 44.9627 11.7947L45.0854 12.0449C45.2761 11.936 45.384 11.8883 45.4387 11.873H45.4934C45.52 11.873 45.5348 11.9037 45.5348 11.9207C45.5348 11.9513 45.5082 11.9837 45.4801 12.0296C45.4402 12.0756 45.3988 12.1232 45.3574 12.1709C45.316 12.2186 45.2761 12.2645 45.2214 12.3122L45.2199 12.3105ZM49.7159 12.4365C49.5532 12.6867 49.4719 12.9216 49.4719 13.1241C49.4719 13.3267 49.5133 13.468 49.5946 13.5616C49.6893 13.6552 49.7706 13.7029 49.8667 13.7029C50.016 13.7029 50.1786 13.6399 50.3693 13.4833C50.5601 13.342 50.6961 13.2025 50.7774 13.0765C50.804 13.0458 50.8321 13.0288 50.8454 13.0135H50.8587C50.8587 13.0288 50.8454 13.0612 50.8321 13.0918C50.8188 13.1224 50.8055 13.1701 50.7907 13.1854C50.7774 13.2161 50.7774 13.2484 50.7641 13.2944C50.7508 13.342 50.7508 13.388 50.7508 13.4357C50.7508 13.4986 50.7641 13.5616 50.8188 13.6229C50.8735 13.6706 50.9415 13.7012 51.0228 13.7012C51.1041 13.7012 51.1988 13.6706 51.3348 13.5923C51.4575 13.514 51.5654 13.4357 51.6748 13.342L51.7694 12.9505C51.7014 12.9965 51.6068 13.0595 51.4841 13.1224C51.3614 13.1854 51.2934 13.2161 51.2535 13.2161C51.2135 13.2161 51.1988 13.1854 51.1988 13.1224C51.1988 13.0595 51.2402 12.9505 51.3067 12.7786L51.7414 11.793L51.388 11.5734L51.3333 11.6994C51.2387 11.5581 51.0894 11.4968 50.9119 11.4968C50.7345 11.4968 50.532 11.5904 50.2999 11.7624C50.0692 11.9496 49.8785 12.1692 49.7159 12.4347V12.4365ZM49.9746 12.9999C49.9746 12.8586 50.0426 12.6867 50.1653 12.4994C50.288 12.3122 50.4374 12.1403 50.6 11.999C50.7626 11.873 50.8986 11.7947 51.008 11.7947C51.1027 11.7947 51.1707 11.8424 51.2387 11.9207L50.9799 12.4671C50.9386 12.5607 50.8572 12.6714 50.7493 12.7956C50.6266 12.9216 50.5187 13.0152 50.396 13.1088C50.2733 13.2025 50.1786 13.2501 50.1239 13.2501C50.0293 13.2501 49.9746 13.1718 49.9746 12.9999ZM52.6506 11.4049L51.6866 13.594L52.0799 13.7506L52.4466 12.8739C52.7053 12.765 52.9359 12.7173 53.14 12.702C53.0306 12.9369 52.964 13.0935 52.9359 13.1718C52.9093 13.2348 52.8945 13.3131 52.8945 13.3591C52.8945 13.468 52.9212 13.5463 52.9759 13.6093C53.0439 13.6723 53.1119 13.7029 53.1932 13.7029C53.3026 13.7029 53.4918 13.6246 53.7639 13.4527C53.7772 13.531 53.8038 13.594 53.8585 13.6246C53.9265 13.6723 53.9945 13.7029 54.0625 13.7029C54.2932 13.7029 54.5238 13.5157 54.7958 13.1395C54.8224 13.0918 54.8505 13.0612 54.8638 13.0458C54.8771 13.0152 54.9052 12.9982 54.9185 12.9675C54.9865 13.4527 55.1359 13.7029 55.3532 13.7029C55.4345 13.7029 55.5158 13.6723 55.6252 13.5786C55.7332 13.5003 55.816 13.422 55.8973 13.3437L56.0052 12.9522C55.9372 12.9982 55.8559 13.0612 55.7465 13.1241C55.6385 13.1871 55.5558 13.2178 55.5025 13.2178C55.3532 13.2178 55.2586 13.0458 55.2305 12.702C55.5705 12.3105 55.9091 11.9666 56.2491 11.6858L55.9372 11.4985C55.8145 11.6228 55.7332 11.7334 55.6519 11.7947C55.5971 11.8577 55.5291 11.936 55.4611 12.0143C55.3798 12.0926 55.2985 12.1862 55.1891 12.3105C55.1758 12.0756 55.1625 11.7947 55.1625 11.4815L54.7958 11.2619C54.7958 11.3879 54.7825 11.4968 54.7825 11.6058C54.7825 11.9037 54.8091 12.2475 54.8505 12.622C54.6731 12.8569 54.5386 13.0135 54.4573 13.1071C54.3759 13.1854 54.3079 13.2331 54.2665 13.2331C54.1852 13.2331 54.1438 13.1701 54.1438 13.0612C54.1438 13.0135 54.1571 12.9522 54.1704 12.8739L54.0078 12.9675L54.0211 12.9522C53.8718 13.0305 53.7905 13.0782 53.7772 13.0935C53.6279 13.1871 53.5184 13.2348 53.4652 13.2348C53.412 13.2348 53.3839 13.2042 53.3839 13.1412C53.3839 13.0935 53.3972 13.0322 53.4386 12.9539C53.4386 12.9539 53.4519 12.9233 53.4652 12.8909C53.4652 12.8603 53.4785 12.845 53.4785 12.828L53.9398 11.7641L53.5865 11.5921L53.2745 12.3905C53.1932 12.3905 53.0705 12.3905 52.9078 12.4211C52.7452 12.4518 52.6358 12.4841 52.5959 12.4994L53.0039 11.5921L52.6506 11.4049ZM56.2905 12.4994C56.1131 12.9063 56.0185 13.1871 56.0185 13.3591C56.0185 13.4833 56.0451 13.5616 56.0998 13.6246C56.1412 13.6723 56.1944 13.7029 56.2491 13.7029C56.4532 13.7029 56.7784 13.4527 57.2131 12.9369L57.2397 12.9675C57.1717 13.0918 57.117 13.2025 57.0638 13.2961C56.7104 13.9685 56.4798 14.5012 56.3852 14.9064L56.8065 15C56.8878 14.7345 57.0239 14.3583 57.2146 13.8578C57.4186 13.3727 57.7172 12.7003 58.1386 11.8407L57.7986 11.6381C57.6226 11.9666 57.4585 12.2322 57.2959 12.4518C57.1333 12.6867 56.9972 12.8433 56.8745 12.9522C56.7518 13.0612 56.6705 13.1241 56.6173 13.1395H56.5759C56.5345 13.1395 56.5212 13.1088 56.5212 13.0612C56.5212 13.0135 56.5892 12.8416 56.7252 12.5454L57.1865 11.5751L56.8331 11.3555C56.6557 11.7147 56.4665 12.0909 56.2891 12.4977L56.2905 12.4994ZM58.1918 12.4994C58.0159 12.9063 57.9331 13.1871 57.9331 13.3591C57.9331 13.4833 57.9464 13.5616 58.0011 13.6246C58.0425 13.6723 58.0957 13.7029 58.1504 13.7029C58.3545 13.7029 58.6797 13.4527 59.1144 12.9369L59.141 12.9675C59.073 13.0918 59.0183 13.2025 58.9651 13.2961C58.6117 13.9685 58.3811 14.5012 58.2998 14.9064L58.7078 15C58.7891 14.7345 58.9251 14.3583 59.1292 13.8578C59.3199 13.3727 59.6185 12.7003 60.0399 11.8407L59.6999 11.6381C59.5372 11.9666 59.3598 12.2322 59.1972 12.4518C59.0479 12.6867 58.8985 12.8433 58.7758 12.9522C58.6531 13.0612 58.5718 13.1241 58.5171 13.1395H58.4757C58.4358 13.1395 58.421 13.1088 58.421 13.0612C58.421 13.0135 58.489 12.8416 58.625 12.5454L59.0863 11.5751L58.7329 11.3555C58.5555 11.7147 58.3796 12.0909 58.1904 12.4977L58.1918 12.4994ZM63.3812 12.4994C63.2053 12.9063 63.1092 13.1871 63.1092 13.3591C63.1092 13.4833 63.1358 13.5616 63.1905 13.6246C63.2319 13.6723 63.2851 13.7029 63.3398 13.7029C63.5438 13.7029 63.8691 13.4527 64.3037 12.9369L64.3304 12.9675C64.2624 13.0918 64.2076 13.2025 64.1544 13.2961C63.8011 13.9685 63.5704 14.5012 63.4891 14.9064L63.8972 15C63.9785 14.7345 64.1145 14.3583 64.3052 13.8578C64.5093 13.3727 64.8079 12.7003 65.2293 11.8407L64.8892 11.6381C64.7133 11.9666 64.5492 12.2322 64.3865 12.4518C64.2239 12.6867 64.0879 12.8433 63.9652 12.9522C63.8425 13.0612 63.7612 13.1241 63.7065 13.1395H63.6651C63.6237 13.1395 63.6104 13.1088 63.6104 13.0612C63.6104 13.0135 63.6784 12.8416 63.8144 12.5454L64.2757 11.5751L63.9223 11.3555C63.7449 11.7147 63.569 12.0909 63.3782 12.4977L63.3812 12.4994ZM69.7932 11.4049L68.816 13.594L69.224 13.7506L69.5907 12.8739C69.8494 12.765 70.0801 12.7173 70.2693 12.702C70.1747 12.9369 70.1067 13.0935 70.0786 13.1718C70.052 13.2348 70.0239 13.3131 70.0239 13.3591C70.0239 13.468 70.0653 13.5463 70.1185 13.6093C70.1732 13.6723 70.2545 13.7029 70.3358 13.7029C70.4585 13.7029 70.6892 13.5786 71.0425 13.3437C71.0691 13.422 71.1105 13.485 71.1652 13.5463C71.2599 13.6552 71.3959 13.7029 71.56 13.7029C71.832 13.7029 72.076 13.6246 72.2933 13.468C72.4973 13.3114 72.66 13.1241 72.7827 12.8739C72.8906 12.639 72.9453 12.4041 72.9453 12.1692C72.9453 11.9666 72.9039 11.7947 72.8093 11.6381C72.7147 11.4968 72.5786 11.4185 72.4012 11.4185C72.1839 11.4185 71.9666 11.5445 71.7492 11.7777L71.9399 12.0432C72.1174 11.856 72.2519 11.7624 72.348 11.7624C72.4027 11.7624 72.4559 11.793 72.4973 11.8254C72.5387 11.873 72.552 11.9343 72.552 12.0449C72.552 12.1556 72.5254 12.2798 72.484 12.4211C72.348 12.3581 72.2268 12.3428 72.076 12.3428C71.9399 12.3428 71.8172 12.3735 71.7226 12.4518L71.9266 12.765C72.008 12.6867 72.1026 12.6407 72.2253 12.6407C72.2667 12.6407 72.3199 12.656 72.3879 12.6714C72.2933 12.8739 72.1706 13.0305 72.0479 13.1565C71.9119 13.2825 71.7758 13.3437 71.6398 13.3437C71.5585 13.3437 71.4905 13.3131 71.4639 13.2501C71.4225 13.1871 71.4092 13.1259 71.4092 13.0475C71.4092 12.9846 71.4225 12.9063 71.4358 12.8126L71.0558 12.9999V13.0152C70.9745 13.0629 70.9331 13.0782 70.9198 13.0935C70.7705 13.1871 70.6611 13.2348 70.5931 13.2348C70.5517 13.2348 70.5251 13.2042 70.5251 13.1412C70.5251 13.0935 70.5384 13.0322 70.5798 12.9539C70.5798 12.9539 70.5798 12.9233 70.5931 12.8909C70.6064 12.8603 70.6197 12.845 70.6197 12.828L71.081 11.7641L70.7276 11.5921L70.4024 12.3905C70.321 12.3905 70.2116 12.3905 70.049 12.4211C69.8716 12.4518 69.777 12.4841 69.7223 12.4994L70.1303 11.5921L69.7903 11.4049H69.7932Z" fill="url(#paint0_linear_3346_36658)"/>
<defs>
<linearGradient id="paint0_linear_3346_36658" x1="0" y1="0" x2="25.3077" y2="43.042" gradientUnits="userSpaceOnUse">
<stop stop-color="#FF4B9A"/>
<stop offset="0.465827" stop-color="#AD61FF"/>
<stop offset="0.982618" stop-color="#5CDFCB"/>
</linearGradient>
</defs>
</svg>
