<svg width="18" height="18" viewBox="0 0 18 18" fill="none" xmlns="http://www.w3.org/2000/svg">
<path d="M15 13C15.5304 13 16.0391 13.2107 16.4142 13.5858C16.7893 13.9609 17 14.4696 17 15C17 15.5304 16.7893 16.0391 16.4142 16.4142C16.0391 16.7893 15.5304 17 15 17C14.4696 17 13.9609 16.7893 13.5858 16.4142C13.2107 16.0391 13 15.5304 13 15M15 13C14.4696 13 13.9609 13.2107 13.5858 13.5858C13.2107 13.9609 13 14.4696 13 15M15 13V5M13 15H5M5 15C5 14.4696 4.78929 13.9609 4.41421 13.5858C4.03914 13.2107 3.53043 13 3 13M5 15C5 15.5304 4.78929 16.0391 4.41421 16.4142C4.03914 16.7893 3.53043 17 3 17C2.46957 17 1.96086 16.7893 1.58579 16.4142C1.21071 16.0391 1 15.5304 1 15C1 14.4696 1.21071 13.9609 1.58579 13.5858C1.96086 13.2107 2.46957 13 3 13M3 13V5M5 3C5 2.46957 4.78929 1.96086 4.41421 1.58579C4.03914 1.21071 3.53043 1 3 1C2.46957 1 1.96086 1.21071 1.58579 1.58579C1.21071 1.96086 1 2.46957 1 3C1 3.53043 1.21071 4.03914 1.58579 4.41421C1.96086 4.78929 2.46957 5 3 5M5 3C5 3.53043 4.78929 4.03914 4.41421 4.41421C4.03914 4.78929 3.53043 5 3 5M5 3H13M13 3C13 2.46957 13.2107 1.96086 13.5858 1.58579C13.9609 1.21071 14.4696 1 15 1C15.5304 1 16.0391 1.21071 16.4142 1.58579C16.7893 1.96086 17 2.46957 17 3C17 3.53043 16.7893 4.03914 16.4142 4.41421C16.0391 4.78929 15.5304 5 15 5M13 3C13 3.53043 13.2107 4.03914 13.5858 4.41421C13.9609 4.78929 14.4696 5 15 5M4.5 4.5L7.5 7.5M11 9C11 8.46957 10.7893 7.96086 10.4142 7.58579C10.0391 7.21071 9.53043 7 9 7C8.46957 7 7.96086 7.21071 7.58579 7.58579C7.21071 7.96086 7 8.46957 7 9C7 9.53043 7.21071 10.0391 7.58579 10.4142C7.96086 10.7893 8.46957 11 9 11C9.53043 11 10.0391 10.7893 10.4142 10.4142C10.7893 10.0391 11 9.53043 11 9Z" stroke="#B452D9" stroke-width="2" stroke-linecap="round" stroke-linejoin="round"/>
</svg>
