<svg width="18" height="18" viewBox="0 0 18 18" fill="none" xmlns="http://www.w3.org/2000/svg">
<path d="M17 8.00033C16.7554 6.24068 15.939 4.61026 14.6766 3.36019C13.4143 2.11012 11.776 1.30974 10.014 1.08233C8.44048 0.877574 6.84148 1.13979 5.41576 1.83637C3.99005 2.53296 2.80051 3.63321 1.995 5.00033M1 10.0002C1.23142 11.6655 1.97527 13.2175 3.12841 14.441C4.28155 15.6644 5.78683 16.4988 7.43548 16.8282C9.08413 17.1577 10.7945 16.9661 12.3293 16.2798C13.8641 15.5935 15.1473 14.4466 16.001 12.9982M17 13.0002C17 13.5525 16.5523 14.0002 16 14.0002C15.4477 14.0002 15 13.5525 15 13.0002C15 12.448 15.4477 12.0002 16 12.0002C16.5523 12.0002 17 12.448 17 13.0002ZM3 5.00024C3 5.55253 2.55228 6.00024 2 6.00024C1.44772 6.00024 1 5.55253 1 5.00024C1 4.44796 1.44772 4.00024 2 4.00024C2.55228 4.00024 3 4.44796 3 5.00024ZM12 9.00024C12 10.6571 10.6569 12.0002 9 12.0002C7.34315 12.0002 6 10.6571 6 9.00024C6 7.34339 7.34315 6.00024 9 6.00024C10.6569 6.00024 12 7.34339 12 9.00024Z" stroke="#68199D" stroke-width="2" stroke-linecap="round" stroke-linejoin="round"/>
</svg>
