<svg width="52" height="52" viewBox="0 0 52 52" fill="none" xmlns="http://www.w3.org/2000/svg">
<path d="M2.66663 14.3334V8.50008C2.66663 6.95298 3.28121 5.46925 4.37517 4.37529C5.46913 3.28133 6.95286 2.66675 8.49996 2.66675H14.3333M2.66663 37.6667V43.5001C2.66663 45.0472 3.28121 46.5309 4.37517 47.6249C5.46913 48.7188 6.95286 49.3334 8.49996 49.3334H14.3333M37.6666 2.66675H43.5C45.0471 2.66675 46.5308 3.28133 47.6247 4.37529C48.7187 5.46925 49.3333 6.95298 49.3333 8.50008V14.3334M37.6666 49.3334H43.5C45.0471 49.3334 46.5308 48.7188 47.6247 47.6249C48.7187 46.5309 49.3333 45.0472 49.3333 43.5001V37.6667M20.1666 23.0834V17.2501C20.1666 15.703 20.7812 14.2193 21.8752 13.1253C22.9691 12.0313 24.4529 11.4167 26 11.4167C27.5471 11.4167 29.0308 12.0313 30.1247 13.1253C31.2187 14.2193 31.8333 15.703 31.8333 17.2501V23.0834M17.25 23.0834H34.75C36.3608 23.0834 37.6666 24.3892 37.6666 26.0001V34.7501C37.6666 36.3609 36.3608 37.6667 34.75 37.6667H17.25C15.6391 37.6667 14.3333 36.3609 14.3333 34.7501V26.0001C14.3333 24.3892 15.6391 23.0834 17.25 23.0834Z" stroke="#00B8BA" stroke-width="4" stroke-linecap="round" stroke-linejoin="round"/>
</svg>
