<svg width="21" height="20" viewBox="0 0 21 20" fill="none" xmlns="http://www.w3.org/2000/svg">
<path d="M16 4.99997V5.00997M8.5 3.74997L7 2.99997M7 2.99997L1 5.99997V19L7 16M7 2.99997V16M7 16L13 19M13 19L19 16V14M13 19V14M16 12L12.5 6.99997C12.1631 6.391 11.9909 5.70466 12.0004 5.00876C12.0099 4.31287 12.2008 3.63149 12.5543 3.03197C12.9077 2.43245 13.4115 1.93552 14.0158 1.59029C14.6201 1.24506 15.304 1.06348 16 1.06348C16.696 1.06348 17.3799 1.24506 17.9842 1.59029C18.5885 1.93552 19.0923 2.43245 19.4457 3.03197C19.7992 3.63149 19.9901 4.31287 19.9996 5.00876C20.0091 5.70466 19.8369 6.391 19.5 6.99997L16 12Z" stroke="#B452D9" stroke-width="2" stroke-linecap="round" stroke-linejoin="round"/>
</svg>
