<svg width="18" height="17" viewBox="0 0 18 17" fill="none" xmlns="http://www.w3.org/2000/svg">
<path d="M8.7998 13.0002H2.96647C2.52444 13.0002 2.10052 12.8246 1.78796 12.512C1.4754 12.1994 1.2998 11.7755 1.2998 11.3335V3.00016M1.2998 3.00016C1.2998 2.55814 1.4754 2.13421 1.78796 1.82165C2.10052 1.50909 2.52444 1.3335 2.96647 1.3335H14.6331C15.0752 1.3335 15.4991 1.50909 15.8116 1.82165C16.1242 2.13421 16.2998 2.55814 16.2998 3.00016M1.2998 3.00016L8.7998 8.00016L16.2998 3.00016M16.2998 3.00016V9.25016M11.2998 13.0002H16.2998M16.2998 13.0002L13.7998 10.5002M16.2998 13.0002L13.7998 15.5002" stroke="white" stroke-width="2" stroke-linecap="round" stroke-linejoin="round"/>
</svg>
