<svg width="22" height="26" viewBox="0 0 22 26" fill="none" xmlns="http://www.w3.org/2000/svg">
<path d="M13.6667 7.66667H10.3333C9.8029 7.66667 9.29419 7.87738 8.91912 8.25245C8.54404 8.62753 8.33333 9.13623 8.33333 9.66667C8.33333 10.1971 8.54404 10.7058 8.91912 11.0809C9.29419 11.456 9.8029 11.6667 10.3333 11.6667H11.6667C12.1971 11.6667 12.7058 11.8774 13.0809 12.2525C13.456 12.6275 13.6667 13.1362 13.6667 13.6667C13.6667 14.1971 13.456 14.7058 13.0809 15.0809C12.7058 15.456 12.1971 15.6667 11.6667 15.6667H8.33333M11 15.6667V17.6667M11 5.66667V7.66667M1.66666 25V3.66667C1.66666 2.95942 1.94762 2.28115 2.44771 1.78105C2.94781 1.28095 3.62609 1 4.33333 1H17.6667C18.3739 1 19.0522 1.28095 19.5523 1.78105C20.0524 2.28115 20.3333 2.95942 20.3333 3.66667V25L16.3333 22.3333L13.6667 25L11 22.3333L8.33333 25L5.66666 22.3333L1.66666 25Z" stroke="#37E1FF" stroke-width="2" stroke-linecap="round" stroke-linejoin="round"/>
</svg>
