<svg width="20" height="20" viewBox="0 0 20 20" fill="none" xmlns="http://www.w3.org/2000/svg">
<path d="M10 5C11.1046 5 12 4.10457 12 3C12 1.89543 11.1046 1 10 1C8.89543 1 8 1.89543 8 3C8 4.10457 8.89543 5 10 5ZM10 5V9M10 9C8.34315 9 7 10.3431 7 12C7 13.6569 8.34315 15 10 15C11.6569 15 13 13.6569 13 12C13 10.3431 11.6569 9 10 9ZM4.69995 15.8L7.49995 13.8M15.3 15.8L12.5 13.8M5 17C5 18.1046 4.10457 19 3 19C1.89543 19 1 18.1046 1 17C1 15.8954 1.89543 15 3 15C4.10457 15 5 15.8954 5 17ZM19 17C19 18.1046 18.1046 19 17 19C15.8954 19 15 18.1046 15 17C15 15.8954 15.8954 15 17 15C18.1046 15 19 15.8954 19 17Z" stroke="#0F80FE" stroke-width="2" stroke-linecap="round" stroke-linejoin="round"/>
</svg>
