<svg width="28" height="34" viewBox="0 0 28 34" fill="none" xmlns="http://www.w3.org/2000/svg">
<path d="M9.00065 5.33333H5.66732C4.78326 5.33333 3.93542 5.68452 3.31029 6.30964C2.68517 6.93477 2.33398 7.78261 2.33398 8.66667V28.6667C2.33398 29.5507 2.68517 30.3986 3.31029 31.0237C3.93542 31.6488 4.78326 32 5.66732 32H22.334C23.218 32 24.0659 31.6488 24.691 31.0237C25.3161 30.3986 25.6673 29.5507 25.6673 28.6667V8.66667C25.6673 7.78261 25.3161 6.93477 24.691 6.30964C24.0659 5.68452 23.218 5.33333 22.334 5.33333H19.0007M9.00065 5.33333C9.00065 7.17428 10.493 8.66667 12.334 8.66667H15.6673C17.5083 8.66667 19.0007 7.17428 19.0007 5.33333M9.00065 5.33333C9.00065 3.49238 10.493 2 12.334 2H15.6673C17.5083 2 19.0007 3.49238 19.0007 5.33333M9.00065 20.3333H9.01732M9.00065 25.3333H9.01732M14.0007 23.6667L15.6673 25.3333L20.6673 20.3333" stroke="#00B8BA" stroke-width="3" stroke-linecap="round" stroke-linejoin="round"/>
</svg>
