<svg width="14" height="16" viewBox="0 0 14 16" fill="none" xmlns="http://www.w3.org/2000/svg">
<path d="M8.66699 0.5V3.83333C8.66699 4.05435 8.75479 4.26631 8.91107 4.42259C9.06735 4.57887 9.27931 4.66667 9.50033 4.66667H12.8337M8.66699 0.5H2.83366C2.39163 0.5 1.96771 0.675595 1.65515 0.988155C1.34259 1.30072 1.16699 1.72464 1.16699 2.16667V13.8333C1.16699 14.2754 1.34259 14.6993 1.65515 15.0118C1.96771 15.3244 2.39163 15.5 2.83366 15.5H11.167C11.609 15.5 12.0329 15.3244 12.3455 15.0118C12.6581 14.6993 12.8337 14.2754 12.8337 13.8333V4.66667M8.66699 0.5L12.8337 4.66667M4.50033 5.5H5.33366M4.50033 8.83333H9.50033M4.50033 12.1667H9.50033" stroke="#00B8BA" stroke-linecap="round" stroke-linejoin="round"/>
</svg>
