<svg width="17" height="21" viewBox="0 0 17 21" fill="none" xmlns="http://www.w3.org/2000/svg">
<path d="M1 19V17C1 15.9391 1.42143 14.9217 2.17157 14.1716C2.92172 13.4214 3.93913 13 5 13H6M13.5 17.5L16 20M11 5C11 7.20914 9.20914 9 7 9C4.79086 9 3 7.20914 3 5C3 2.79086 4.79086 1 7 1C9.20914 1 11 2.79086 11 5ZM14 15.5C14 16.8807 12.8807 18 11.5 18C10.1193 18 9 16.8807 9 15.5C9 14.1193 10.1193 13 11.5 13C12.8807 13 14 14.1193 14 15.5Z" stroke="white" stroke-width="2" stroke-linecap="round" stroke-linejoin="round"/>
</svg>
