<svg width="140" height="156" viewBox="0 0 140 156" fill="none" xmlns="http://www.w3.org/2000/svg">
<path d="M70 143C108.66 143 140 111.66 140 73C140 34.3401 108.66 3 70 3C31.3401 3 0 34.3401 0 73C0 111.66 31.3401 143 70 143Z" fill="#FFF3CD"/>
<path d="M31.5897 108.898C33.5723 108.898 35.1795 107.29 35.1795 105.308C35.1795 103.325 33.5723 101.718 31.5897 101.718C29.6072 101.718 28 103.325 28 105.308C28 107.29 29.6072 108.898 31.5897 108.898Z" fill="white"/>
<path d="M18.5331 60.2005C20.5157 60.2005 22.1228 58.5933 22.1228 56.6107C22.1228 54.6282 20.5157 53.021 18.5331 53.021C16.5505 53.021 14.9434 54.6282 14.9434 56.6107C14.9434 58.5933 16.5505 60.2005 18.5331 60.2005Z" fill="#FEE18B"/>
<path d="M108.739 60.8143C110.722 60.8143 112.329 59.2071 112.329 57.2245C112.329 55.2419 110.722 53.6348 108.739 53.6348C106.757 53.6348 105.149 55.2419 105.149 57.2245C105.149 59.2071 106.757 60.8143 108.739 60.8143Z" fill="white"/>
<g opacity="0.4" filter="url(#filter0_f_5679_11911)">
<path d="M88.7346 34.8889H48.9312C45.5325 34.8889 42.7773 37.6876 42.7773 41.14V118.082C42.7773 121.535 45.5325 124.333 48.9312 124.333H88.7346C92.1333 124.333 94.8885 121.535 94.8885 118.082V41.14C94.8885 37.6876 92.1333 34.8889 88.7346 34.8889Z" fill="#DEA027"/>
</g>
<path d="M89.9237 23.2222H47.7439C44.1423 23.2222 41.2227 26.1426 41.2227 29.7451V110.033C41.2227 113.635 44.1423 116.556 47.7439 116.556H89.9237C93.5252 116.556 96.4449 113.635 96.4449 110.033V29.7451C96.4449 26.1426 93.5252 23.2222 89.9237 23.2222Z" fill="white"/>
<path d="M88.7452 25.5557H48.9208C46.387 25.5557 44.333 27.7005 44.333 30.3462V109.432C44.333 112.078 46.387 114.222 48.9208 114.222H88.7452C91.279 114.222 93.333 112.078 93.333 109.432V30.3462C93.333 27.7005 91.279 25.5557 88.7452 25.5557Z" fill="#F5C151"/>
<path d="M59.1113 23.9179V26.8008C59.1113 27.1484 59.1748 27.4926 59.2981 27.8137C59.4213 28.1348 59.602 28.4265 59.8298 28.672C60.0575 28.9176 60.3278 29.1122 60.6253 29.2447C60.9227 29.3773 61.2414 29.4451 61.5631 29.4444H76.8869C77.2084 29.4451 77.5268 29.3772 77.824 29.2446C78.1211 29.1121 78.3911 28.9174 78.6184 28.6717C78.8458 28.4261 79.026 28.1344 79.1487 27.8133C79.2714 27.4922 79.3342 27.1482 79.3335 26.8008V23.9179C79.3335 23.7333 79.2657 23.5564 79.145 23.4259C79.0242 23.2955 78.8604 23.2222 78.6897 23.2222H59.7603C59.5891 23.2222 59.4248 23.2953 59.3032 23.4256C59.1817 23.5559 59.1127 23.7328 59.1113 23.9179Z" fill="white"/>
<path d="M113.974 108C116.948 108 119.359 105.589 119.359 102.615C119.359 99.6415 116.948 97.2307 113.974 97.2307C111.001 97.2307 108.59 99.6415 108.59 102.615C108.59 105.589 111.001 108 113.974 108Z" fill="#FEE18B"/>
<path d="M69.2227 80.6832L77.8568 96.3334L79.7289 89.935L87.1115 92.5442L78.4825 76.8889L69.2227 80.6832Z" fill="#FF7F7F"/>
<path d="M78.1482 76.1111L73.1111 78.1859L79.4428 89.7222L87.1111 92.4444L78.1482 76.1111Z" fill="#EA5046"/>
<path d="M69.2223 80.6832L60.2156 96.3334L58.2562 89.935L50.5557 92.5442L59.5624 76.8889L69.2223 80.6832Z" fill="#FF7F7F"/>
<path d="M59.5186 76.8889L64.5557 78.865L58.2187 89.8519L50.5557 92.4445L59.5186 76.8889Z" fill="#EA5046"/>
<path d="M68.8334 83.8888C78.928 83.8888 87.1112 75.7056 87.1112 65.6111C87.1112 55.5165 78.928 47.3333 68.8334 47.3333C58.7389 47.3333 50.5557 55.5165 50.5557 65.6111C50.5557 75.7056 58.7389 83.8888 68.8334 83.8888Z" fill="#FFEFBE"/>
<path opacity="0.4" d="M68.8332 80.7777C76.78 80.7777 83.2221 73.9873 83.2221 65.611C83.2221 57.2347 76.78 50.4443 68.8332 50.4443C60.8865 50.4443 54.4443 57.2347 54.4443 65.611C54.4443 73.9873 60.8865 80.7777 68.8332 80.7777Z" stroke="#F5C151" stroke-width="3" stroke-miterlimit="10"/>
<path d="M65.3616 72.9999C65.1929 72.9965 65.0269 72.9586 64.8742 72.8886C64.7216 72.8187 64.5857 72.7182 64.4755 72.5938L59.4103 66.9412C59.1989 66.7053 59.0924 66.3972 59.1141 66.0848C59.1358 65.7723 59.284 65.481 59.526 65.275C59.768 65.069 60.0841 64.9652 60.4046 64.9864C60.7252 65.0075 61.024 65.1519 61.2353 65.3878L65.4211 70.0607L75.7433 59.3163C75.9674 59.1129 76.2622 58.9999 76.5684 59C76.8746 59.0001 77.1693 59.1134 77.3932 59.3169C77.6171 59.5205 77.7536 59.7991 77.775 60.0968C77.7965 60.3945 77.7014 60.6891 77.5089 60.9212L66.2675 72.626C66.1515 72.7464 66.011 72.8418 65.855 72.9062C65.699 72.9706 65.531 73.0024 65.3616 72.9999Z" fill="#041724"/>
<path d="M50.7055 18.735C51.9446 18.735 52.9491 17.7305 52.9491 16.4914C52.9491 15.2523 51.9446 14.2478 50.7055 14.2478C49.4664 14.2478 48.4619 15.2523 48.4619 16.4914C48.4619 17.7305 49.4664 18.735 50.7055 18.735Z" fill="white"/>
<path d="M107.638 110.333C107.638 118.234 101.234 124.639 93.3329 124.639C85.4322 124.639 79.0273 118.234 79.0273 110.333C79.0273 102.433 85.4322 96.0278 93.3329 96.0278C101.234 96.0278 107.638 102.433 107.638 110.333Z" fill="#3B5059" stroke="white" stroke-width="2.5"/>
<path d="M92.9441 109.202C94.9726 109.202 96.617 107.54 96.617 105.49C96.617 103.44 94.9726 101.778 92.9441 101.778C90.9157 101.778 89.2713 103.44 89.2713 105.49C89.2713 107.54 90.9157 109.202 92.9441 109.202Z" fill="white"/>
<path d="M95.8806 110.834C95.7018 110.732 95.5052 110.682 95.3068 110.687C95.1085 110.693 94.9141 110.754 94.7396 110.866C94.1794 111.207 93.5591 111.385 92.9297 111.385C92.3003 111.385 91.68 111.207 91.1199 110.866C90.9453 110.754 90.7509 110.693 90.5526 110.687C90.3543 110.682 90.1576 110.732 89.9788 110.834C89.0813 111.363 88.2928 112.12 87.6692 113.051C87.0455 113.983 86.602 115.066 86.37 116.224C86.324 116.446 86.3209 116.679 86.3609 116.903C86.4009 117.127 86.483 117.338 86.601 117.519C86.7191 117.701 86.8701 117.848 87.0428 117.951C87.2155 118.053 87.4054 118.108 87.5984 118.111H98.2883C98.4817 118.109 98.6722 118.055 98.8454 117.953C99.0186 117.851 99.1701 117.704 99.2884 117.522C99.4066 117.34 99.4886 117.129 99.5282 116.904C99.5678 116.679 99.5638 116.447 99.5167 116.224C99.2829 115.062 98.8356 113.977 98.2069 113.045C97.5783 112.113 96.7839 111.358 95.8806 110.834Z" fill="white"/>
<defs>
<filter id="filter0_f_5679_11911" x="8.77734" y="0.888916" width="120.111" height="157.444" filterUnits="userSpaceOnUse" color-interpolation-filters="sRGB">
<feFlood flood-opacity="0" result="BackgroundImageFix"/>
<feBlend mode="normal" in="SourceGraphic" in2="BackgroundImageFix" result="shape"/>
<feGaussianBlur stdDeviation="17" result="effect1_foregroundBlur_5679_11911"/>
</filter>
</defs>
</svg>
