<svg width="140" height="140" viewBox="0 0 140 140" fill="none" xmlns="http://www.w3.org/2000/svg">
<path opacity="0.2" d="M70 140C108.66 140 140 108.66 140 70C140 31.3401 108.66 0 70 0C31.3401 0 0 31.3401 0 70C0 108.66 31.3401 140 70 140Z" fill="url(#paint0_linear_5679_11822)"/>
<path opacity="0.2" d="M16.0563 69.7824C18.1779 69.7824 19.8978 68.2536 19.8978 66.3677C19.8978 64.4819 18.1779 62.9531 16.0563 62.9531C13.9347 62.9531 12.2148 64.4819 12.2148 66.3677C12.2148 68.2536 13.9347 69.7824 16.0563 69.7824Z" fill="url(#paint1_linear_5679_11822)"/>
<path opacity="0.2" d="M112.236 33.7339C115.065 33.7339 117.358 31.4407 117.358 28.6119C117.358 25.7832 115.065 23.49 112.236 23.49C109.407 23.49 107.114 25.7832 107.114 28.6119C107.114 31.4407 109.407 33.7339 112.236 33.7339Z" fill="url(#paint2_linear_5679_11822)"/>
<path opacity="0.2" d="M42.7917 113.771C45.149 113.771 47.06 111.86 47.06 109.503C47.06 107.146 45.149 105.235 42.7917 105.235C40.4344 105.235 38.5234 107.146 38.5234 109.503C38.5234 111.86 40.4344 113.771 42.7917 113.771Z" fill="url(#paint3_linear_5679_11822)"/>
<path opacity="0.2" d="M86.2192 114.39C87.6336 114.39 88.7802 113.244 88.7802 111.829C88.7802 110.415 87.6336 109.268 86.2192 109.268C84.8048 109.268 83.6582 110.415 83.6582 111.829C83.6582 113.244 84.8048 114.39 86.2192 114.39Z" fill="url(#paint4_linear_5679_11822)"/>
<path d="M115.968 54.656L116.028 54.3819C116.107 54.0535 116.119 53.713 116.065 53.3798C116.011 53.0465 115.891 52.7271 115.712 52.4399C115.534 52.1527 115.299 51.9033 115.023 51.706C114.747 51.5087 114.435 51.3673 114.104 51.29L33.7514 32.5097C33.4198 32.4309 33.0757 32.4178 32.739 32.4712C32.4023 32.5245 32.0794 32.6433 31.789 32.8206C31.4986 32.998 31.2464 33.2304 31.0467 33.5047C30.847 33.7789 30.7038 34.0895 30.6254 34.4187L30.5563 34.7156L19.7647 80.2322L19.7049 80.5108C19.6262 80.8392 19.6136 81.1798 19.6678 81.513C19.7219 81.8463 19.8418 82.1656 20.0206 82.4528C20.1994 82.74 20.4335 82.9894 20.7095 83.1868C20.9856 83.3841 21.2981 83.5255 21.6293 83.6028L21.901 83.6667H21.9286L101.673 102.31L101.954 102.369C102.285 102.447 102.628 102.46 102.964 102.406C103.3 102.352 103.622 102.234 103.911 102.056C104.201 101.879 104.452 101.647 104.651 101.373C104.85 101.099 104.993 100.789 105.071 100.46L105.14 100.163L115.95 54.6468L115.968 54.656Z" fill="#3F933E"/>
<path d="M117.735 54.3726L117.67 54.642C117.767 54.2297 117.769 53.8013 117.676 53.3882C117.582 52.9751 117.397 52.5877 117.132 52.2543L69.1746 67.439L33.1639 32.7826C32.7712 32.9685 32.4257 33.2384 32.1527 33.5725C31.8797 33.9066 31.686 34.2966 31.5859 34.7138L31.6556 34.4171C31.8164 33.753 32.2387 33.179 32.8296 32.8212C33.4206 32.4633 34.1318 32.3509 34.8069 32.5087L115.79 51.2818C116.125 51.3587 116.44 51.4996 116.719 51.6967C116.998 51.8937 117.234 52.1429 117.415 52.4301C117.596 52.7172 117.717 53.0366 117.772 53.37C117.827 53.7033 117.814 54.0441 117.735 54.3726Z" fill="#3F933E"/>
<path d="M117.197 52.846C117.46 53.1811 117.645 53.5705 117.737 53.9857C117.83 54.401 117.828 54.8315 117.732 55.246C117.732 55.246 117.732 55.246 117.732 55.2735L106.915 101.006L106.846 101.305C106.768 101.635 106.625 101.947 106.425 102.222C106.226 102.497 105.974 102.73 105.684 102.908C105.394 103.087 105.071 103.206 104.735 103.26C104.398 103.314 104.055 103.301 103.723 103.223L103.447 103.163C103.443 103.161 103.439 103.161 103.435 103.161C103.431 103.161 103.427 103.161 103.424 103.163L23.6367 84.4221L23.3419 84.3532C23.0101 84.276 22.6968 84.1343 22.4201 83.9363C22.1434 83.7382 21.9086 83.4877 21.7293 83.1991C21.55 82.9105 21.4296 82.5894 21.3751 82.2544C21.3206 81.9193 21.3331 81.5768 21.4117 81.2466L21.4762 80.9666L32.2926 35.2338C32.3919 34.8145 32.5841 34.4225 32.8551 34.0867C33.1261 33.7508 33.469 33.4796 33.8588 33.2927" fill="#3F933E"/>
<path d="M69.1467 67.7117L21.9451 82.8049C21.6839 82.4721 21.5007 82.0856 21.409 81.6735C21.3174 81.2615 21.3195 80.8344 21.4152 80.4232L32.142 35.2117C32.2405 34.7971 32.4311 34.4096 32.6998 34.0776C32.9686 33.7456 33.3087 33.4774 33.6952 33.2927L69.1467 67.7117Z" fill="url(#paint5_linear_5679_11822)"/>
<path d="M117.731 54.4861C117.731 54.4861 117.731 54.4861 117.731 54.5138L106.812 100.496C106.712 100.917 106.518 101.31 106.245 101.646C105.971 101.982 105.625 102.253 105.231 102.439L69.1465 67.419L117.191 52.073C117.457 52.4099 117.643 52.8015 117.736 53.219C117.83 53.6365 117.828 54.0694 117.731 54.4861Z" fill="url(#paint6_linear_5679_11822)"/>
<path d="M69.1196 67.439L21.3418 82.6522C21.7486 83.1791 22.3295 83.5481 22.9832 83.6948L103.068 102.36C103.717 102.515 104.4 102.44 105 102.15L69.1196 67.439Z" fill="url(#paint7_linear_5679_11822)"/>
<path d="M33.292 32.866L66.724 68.8731C67.207 69.3871 67.8389 69.7477 68.5369 69.9076C69.235 70.0676 69.9666 70.0195 70.6359 69.7695L116.951 52.4097" fill="url(#paint8_linear_5679_11822)"/>
<path d="M69.1464 78.5368C75.2754 78.5368 80.244 73.7593 80.244 67.866C80.244 61.9727 75.2754 57.1953 69.1464 57.1953C63.0174 57.1953 58.0488 61.9727 58.0488 67.866C58.0488 73.7593 63.0174 78.5368 69.1464 78.5368Z" fill="#C27400"/>
<path d="M70.0009 78.5366C76.1299 78.5366 81.0984 73.9503 81.0984 68.2927C81.0984 62.6352 76.1299 58.0488 70.0009 58.0488C63.8719 58.0488 58.9033 62.6352 58.9033 68.2927C58.9033 73.9503 63.8719 78.5366 70.0009 78.5366Z" fill="white"/>
<path d="M67.3456 77.4287C65.4538 76.9879 63.7353 75.9958 62.4075 74.5779C61.0797 73.16 60.2024 71.38 59.8865 69.4633C59.5707 67.5465 59.8305 65.5791 60.6331 63.8101C61.4357 62.0411 62.745 60.5499 64.3953 59.5254C66.0456 58.5008 67.9628 57.9889 69.9041 58.0544C71.8454 58.1199 73.7237 58.76 75.3012 59.8935C76.8787 61.027 78.0844 62.603 78.7659 64.4222C79.4475 66.2413 79.574 68.2217 79.1297 70.1128C78.5326 72.6432 76.9573 74.8338 74.7486 76.205C72.5399 77.5763 69.8779 78.0163 67.3456 77.4287ZM71.751 58.6313C69.9233 58.2029 68.0096 58.3261 66.252 58.9854C64.4944 59.6447 62.9717 60.8105 61.8766 62.3354C60.7815 63.8602 60.1631 65.6756 60.0997 67.5519C60.0363 69.4282 60.5307 71.2812 61.5204 72.8765C62.5101 74.4718 63.9506 75.7377 65.6597 76.5142C67.3688 77.2906 69.2698 77.5428 71.1222 77.2387C72.9747 76.9347 74.6953 76.088 76.0666 74.8059C77.4379 73.5238 78.3981 71.8637 78.826 70.0358C79.3921 67.5857 78.9658 65.0111 77.6402 62.8743C76.3146 60.7376 74.1974 59.2122 71.751 58.6313Z" fill="#74B973"/>
<path d="M67.3456 77.4287C65.4538 76.9879 63.7353 75.9958 62.4075 74.5779C61.0797 73.16 60.2024 71.38 59.8865 69.4633C59.5707 67.5465 59.8305 65.5791 60.6331 63.8101C61.4357 62.0411 62.745 60.5499 64.3953 59.5254C66.0456 58.5008 67.9628 57.9889 69.9041 58.0544C71.8454 58.1199 73.7237 58.76 75.3012 59.8935C76.8787 61.027 78.0844 62.603 78.7659 64.4222C79.4475 66.2413 79.574 68.2217 79.1297 70.1128C78.5326 72.6432 76.9573 74.8338 74.7486 76.205C72.5399 77.5763 69.8779 78.0163 67.3456 77.4287ZM71.751 58.6313C69.9233 58.2029 68.0096 58.3261 66.252 58.9854C64.4944 59.6447 62.9717 60.8105 61.8766 62.3354C60.7815 63.8602 60.1631 65.6756 60.0997 67.5519C60.0363 69.4282 60.5307 71.2812 61.5204 72.8765C62.5101 74.4718 63.9506 75.7377 65.6597 76.5142C67.3688 77.2906 69.2698 77.5428 71.1222 77.2387C72.9747 76.9347 74.6953 76.088 76.0666 74.8059C77.4379 73.5238 78.3981 71.8637 78.826 70.0358C79.3921 67.5857 78.9658 65.0111 77.6402 62.8743C76.3146 60.7376 74.1974 59.2122 71.751 58.6313Z" fill="#479546"/>
<path fill-rule="evenodd" clip-rule="evenodd" d="M67.4117 72.5518C67.2912 72.5674 67.168 72.5631 67.0481 72.5384V72.5561C66.9026 72.5243 66.7664 72.4634 66.6491 72.3776C66.5317 72.2918 66.436 72.1832 66.3688 72.0594L64.1346 67.9571C64.0743 67.8462 64.0381 67.7253 64.0282 67.6014C64.0183 67.4775 64.0348 67.353 64.0768 67.235C64.1187 67.117 64.1854 67.0079 64.2729 66.9138C64.3604 66.8197 64.467 66.7424 64.5867 66.6865C64.7064 66.6306 64.8368 66.5971 64.9704 66.5879C65.1041 66.5787 65.2384 66.594 65.3656 66.6329C65.4929 66.6719 65.6107 66.7336 65.7122 66.8147C65.8137 66.8958 65.897 66.9947 65.9573 67.1056L67.6977 70.2944L75.3753 65.0223C75.5862 64.8899 75.8388 64.8465 76.0801 64.9014C76.3214 64.9562 76.5326 65.105 76.6696 65.3166C76.8065 65.5281 76.8585 65.786 76.8146 66.0361C76.7708 66.2862 76.6344 66.5091 76.4342 66.6581L68.0567 72.4062C67.9492 72.4771 67.8289 72.525 67.703 72.5471C67.6066 72.5641 67.5083 72.5656 67.4117 72.5518Z" fill="#74B973"/>
<path opacity="0.2" d="M41.83 25.1743C44.6587 25.1743 46.9519 22.8811 46.9519 20.0524C46.9519 17.2236 44.6587 14.9304 41.83 14.9304C39.0012 14.9304 36.708 17.2236 36.708 20.0524C36.708 22.8811 39.0012 25.1743 41.83 25.1743Z" fill="url(#paint9_linear_5679_11822)"/>
<path opacity="0.2" d="M125.921 85.3658C128.042 85.3658 129.762 83.6459 129.762 81.5243C129.762 79.4028 128.042 77.6829 125.921 77.6829C123.799 77.6829 122.079 79.4028 122.079 81.5243C122.079 83.6459 123.799 85.3658 125.921 85.3658Z" fill="url(#paint10_linear_5679_11822)"/>
<path opacity="0.2" d="M80.3757 34.8454C82.733 34.8454 84.644 32.9345 84.644 30.5771C84.644 28.2198 82.733 26.3088 80.3757 26.3088C78.0184 26.3088 76.1074 28.2198 76.1074 30.5771C76.1074 32.9345 78.0184 34.8454 80.3757 34.8454Z" fill="url(#paint11_linear_5679_11822)"/>
<path d="M116.206 82.1184C109.788 82.4848 103.757 79.9716 101.262 78.7596C100.897 78.5844 100.492 78.5102 100.088 78.545C99.685 78.5797 99.2985 78.722 98.9696 78.9569C96.7152 80.5682 91.2044 84.0632 84.7909 84.782C84.2065 84.8494 83.672 85.1421 83.3026 85.5972C82.9331 86.0522 82.7581 86.6333 82.8153 87.2153C83.3777 93.0451 86.3553 108.585 102.131 117.51C102.528 117.735 102.984 117.835 103.439 117.797C103.894 117.758 104.327 117.583 104.679 117.294C118.706 105.837 118.995 90.048 118.55 84.1807C118.506 83.6016 118.236 83.0627 117.798 82.6778C117.361 82.2929 116.79 82.0923 116.206 82.1184Z" fill="#F39100"/>
<path d="M116.271 81.2686C110.001 81.6303 104.114 79.1172 101.678 77.91C101.323 77.7326 100.928 77.6568 100.533 77.6908C100.139 77.7247 99.7617 77.867 99.4409 78.1026C97.2403 79.7184 91.8611 83.2085 85.6007 83.9319C85.0308 83.9993 84.5094 84.2912 84.1481 84.7451C83.7869 85.1989 83.6144 85.7787 83.6677 86.3604C84.2167 92.1944 87.1231 107.728 102.523 116.658C102.911 116.882 103.357 116.982 103.801 116.943C104.246 116.904 104.669 116.73 105.014 116.442C118.707 104.985 118.983 89.1694 118.554 83.3306C118.512 82.7521 118.249 82.2132 117.823 81.8282C117.397 81.4432 116.84 81.2425 116.271 81.2686Z" fill="url(#paint12_linear_5679_11822)"/>
<path d="M114.835 83.3608C109.331 83.6776 104.159 81.4972 102.024 80.4395C101.711 80.2859 101.363 80.2208 101.016 80.2512C100.669 80.2815 100.337 80.4062 100.055 80.6119C98.1236 82.0097 93.4005 85.0474 87.9195 85.6764C87.4188 85.735 86.9609 85.9895 86.6445 86.3852C86.3282 86.7808 86.1786 87.2859 86.228 87.7916C86.6902 92.8607 89.2597 106.372 102.782 114.134C103.122 114.33 103.513 114.417 103.904 114.383C104.294 114.35 104.665 114.198 104.968 113.948C116.984 103.982 117.238 90.233 116.859 85.1546C116.821 84.6482 116.588 84.1769 116.21 83.8416C115.831 83.5064 115.338 83.3338 114.835 83.3608Z" fill="url(#paint13_linear_5679_11822)"/>
<path d="M102.44 104.146C107.155 104.146 110.976 100.324 110.976 95.6096C110.976 90.8949 107.155 87.073 102.44 87.073C97.7253 87.073 93.9033 90.8949 93.9033 95.6096C93.9033 100.324 97.7253 104.146 102.44 104.146Z" fill="#323752"/>
<path d="M102.44 104.146C107.155 104.146 110.976 100.324 110.976 95.6096C110.976 90.8949 107.155 87.073 102.44 87.073C97.7253 87.073 93.9033 90.8949 93.9033 95.6096C93.9033 100.324 97.7253 104.146 102.44 104.146Z" fill="#323752"/>
<path d="M103.613 104.967C101.847 105.122 100.076 104.724 98.5258 103.825C96.9752 102.926 95.7138 101.565 94.9012 99.9154C94.0885 98.2654 93.761 96.4002 93.96 94.5553C94.159 92.7104 94.8757 90.9687 96.0193 89.5504C97.163 88.132 98.6823 87.1006 100.385 86.5866C102.088 86.0725 103.899 86.0989 105.588 86.6623C107.276 87.2257 108.768 88.3009 109.873 89.752C110.979 91.2031 111.649 92.965 111.799 94.8149C111.997 97.298 111.246 99.7618 109.711 101.665C108.176 103.569 105.983 104.756 103.613 104.967ZM102.194 87.5352C100.672 87.6746 99.2228 88.2833 98.0306 89.2846C96.8384 90.286 95.9562 91.6349 95.4954 93.1611C95.0345 94.6874 95.0158 96.3224 95.4415 97.8598C95.8671 99.3972 96.7182 100.768 97.8871 101.799C99.056 102.83 100.49 103.475 102.009 103.653C103.528 103.83 105.062 103.533 106.42 102.797C107.777 102.061 108.895 100.921 109.634 99.5199C110.373 98.1187 110.699 96.5196 110.571 94.9245C110.486 93.8625 110.201 92.8285 109.734 91.8819C109.266 90.9353 108.625 90.0947 107.847 89.4082C107.068 88.7218 106.169 88.203 105.198 87.8816C104.228 87.5601 103.207 87.4425 102.194 87.5352Z" fill="url(#paint14_linear_5679_11822)"/>
<path fill-rule="evenodd" clip-rule="evenodd" d="M104.137 95.0728C104.666 94.6818 105 94.1111 105 93.4755C105 92.2968 103.853 91.3413 102.439 91.3413C101.025 91.3413 99.8779 92.2968 99.8779 93.4755C99.8779 94.3534 100.514 95.1074 101.423 95.4351L101.892 99.7586C101.928 100.042 102.104 100.303 102.382 100.484C102.66 100.666 103.018 100.753 103.377 100.727C103.735 100.698 104.065 100.559 104.294 100.339C104.524 100.12 104.635 99.8385 104.604 99.5551L104.137 95.0728Z" fill="url(#paint15_linear_5679_11822)"/>
<defs>
<linearGradient id="paint0_linear_5679_11822" x1="70" y1="0" x2="70" y2="180.403" gradientUnits="userSpaceOnUse">
<stop stop-color="#74B973"/>
<stop offset="1" stop-color="#479546"/>
</linearGradient>
<linearGradient id="paint1_linear_5679_11822" x1="16.0563" y1="62.9531" x2="16.0563" y2="72.1046" gradientUnits="userSpaceOnUse">
<stop stop-color="#85C284"/>
<stop offset="1" stop-color="#85C284" stop-opacity="0"/>
</linearGradient>
<linearGradient id="paint2_linear_5679_11822" x1="112.236" y1="23.49" x2="112.236" y2="37.2173" gradientUnits="userSpaceOnUse">
<stop stop-color="#85C284"/>
<stop offset="1" stop-color="#85C284" stop-opacity="0"/>
</linearGradient>
<linearGradient id="paint3_linear_5679_11822" x1="42.7917" y1="105.235" x2="42.7917" y2="116.674" gradientUnits="userSpaceOnUse">
<stop stop-color="#85C284"/>
<stop offset="1" stop-color="#85C284" stop-opacity="0"/>
</linearGradient>
<linearGradient id="paint4_linear_5679_11822" x1="86.2192" y1="109.268" x2="86.2192" y2="116.132" gradientUnits="userSpaceOnUse">
<stop stop-color="#85C284"/>
<stop offset="1" stop-color="#85C284" stop-opacity="0"/>
</linearGradient>
<linearGradient id="paint5_linear_5679_11822" x1="45.2442" y1="33.2927" x2="45.2442" y2="82.8049" gradientUnits="userSpaceOnUse">
<stop stop-color="#8CCC8B"/>
<stop offset="1" stop-color="#6B6B6B"/>
</linearGradient>
<linearGradient id="paint6_linear_5679_11822" x1="93.4758" y1="52.073" x2="93.4758" y2="102.439" gradientUnits="userSpaceOnUse">
<stop stop-color="#8CCC8B"/>
<stop offset="1" stop-color="#6B6B6B"/>
</linearGradient>
<linearGradient id="paint7_linear_5679_11822" x1="63.1711" y1="67.439" x2="63.1711" y2="102.439" gradientUnits="userSpaceOnUse">
<stop stop-color="#74B973"/>
<stop offset="1" stop-color="#479546"/>
</linearGradient>
<linearGradient id="paint8_linear_5679_11822" x1="75.1213" y1="32.866" x2="67.1805" y2="77.0471" gradientUnits="userSpaceOnUse">
<stop stop-color="#C6E8C5"/>
<stop offset="1" stop-color="#8CCC8B"/>
</linearGradient>
<linearGradient id="paint9_linear_5679_11822" x1="41.83" y1="14.9304" x2="41.83" y2="28.6577" gradientUnits="userSpaceOnUse">
<stop stop-color="#85C284"/>
<stop offset="1" stop-color="#85C284" stop-opacity="0"/>
</linearGradient>
<linearGradient id="paint10_linear_5679_11822" x1="125.921" y1="77.6829" x2="125.921" y2="87.9783" gradientUnits="userSpaceOnUse">
<stop stop-color="#85C284"/>
<stop offset="1" stop-color="#85C284" stop-opacity="0"/>
</linearGradient>
<linearGradient id="paint11_linear_5679_11822" x1="80.3757" y1="26.3088" x2="80.3757" y2="37.7482" gradientUnits="userSpaceOnUse">
<stop stop-color="#85C284"/>
<stop offset="1" stop-color="#85C284" stop-opacity="0"/>
</linearGradient>
<linearGradient id="paint12_linear_5679_11822" x1="101.158" y1="77.6829" x2="101.158" y2="116.951" gradientUnits="userSpaceOnUse">
<stop stop-color="#FFD18C"/>
<stop offset="1" stop-color="#F4B75A"/>
</linearGradient>
<linearGradient id="paint13_linear_5679_11822" x1="101.585" y1="80.2439" x2="101.585" y2="114.39" gradientUnits="userSpaceOnUse">
<stop stop-color="#323752"/>
<stop offset="1" stop-color="#323752"/>
</linearGradient>
<linearGradient id="paint14_linear_5679_11822" x1="102.867" y1="86.2195" x2="102.867" y2="105" gradientUnits="userSpaceOnUse">
<stop stop-color="#FFD18C"/>
<stop offset="1" stop-color="#F4B75A"/>
</linearGradient>
<linearGradient id="paint15_linear_5679_11822" x1="102.439" y1="91.3413" x2="102.439" y2="100.732" gradientUnits="userSpaceOnUse">
<stop stop-color="#FFA620"/>
<stop offset="1" stop-color="#F39200"/>
</linearGradient>
</defs>
</svg>
