<svg width="19" height="19" viewBox="0 0 19 19" fill="none" xmlns="http://www.w3.org/2000/svg">
<path d="M2 9V3C2 2.46957 2.21071 1.96086 2.58579 1.58579C2.96086 1.21071 3.46957 1 4 1H16C16.5304 1 17.0391 1.21071 17.4142 1.58579C17.7893 1.96086 18 2.46957 18 3V15C18 15.5304 17.7893 16.0391 17.4142 16.4142C17.0391 16.7893 16.5304 17 16 17H10M10 5H14M14 5V9M14 5L9 10M2 13H5C5.55228 13 6 13.4477 6 14V17C6 17.5523 5.55228 18 5 18H2C1.44772 18 1 17.5523 1 17V14C1 13.4477 1.44772 13 2 13Z" stroke="#B452D9" stroke-width="2" stroke-linecap="round" stroke-linejoin="round"/>
</svg>
