<svg width="200" height="200" viewBox="0 0 200 200" fill="none" xmlns="http://www.w3.org/2000/svg">
<g clip-path="url(#clip0_3616_37643)">
<path d="M75 0H0V75H75V0ZM62.5 62.5H12.5V12.5H62.5V62.5Z" fill="black"/>
<path d="M25 25H50V50H25V25Z" fill="black"/>
<path d="M0 200H75V125H0V200ZM12.5 137.5H62.5V187.5H12.5V137.5Z" fill="black"/>
<path d="M25 150H50V175H25V150Z" fill="black"/>
<path d="M125 0V75H200V0H125ZM187.5 62.5H137.5V12.5H187.5V62.5Z" fill="black"/>
<path d="M150 25H175V50H150V25Z" fill="black"/>
<path d="M25 87.5H0V112.5H37.5V100H25V87.5Z" fill="black"/>
<path d="M87.5 112.5H112.5V137.5H87.5V112.5Z" fill="black"/>
<path d="M37.5 87.5H62.5V100H37.5V87.5Z" fill="black"/>
<path d="M112.5 150H87.5V162.5H100V175H112.5V162.5V150Z" fill="black"/>
<path d="M75 87.5V100H62.5V112.5H87.5V87.5H75Z" fill="black"/>
<path d="M100 50H112.5V75H100V50Z" fill="black"/>
<path d="M112.5 100V112.5H137.5V87.5H100V100H112.5Z" fill="black"/>
<path d="M87.5 75H100V87.5H87.5V75Z" fill="black"/>
<path d="M112.5 175H137.5V200H112.5V175Z" fill="black"/>
<path d="M87.5 175H100V200H87.5V175Z" fill="black"/>
<path d="M112.5 137.5H125V150H112.5V137.5Z" fill="black"/>
<path d="M112.5 37.5V12.5H100V0H87.5V50H100V37.5H112.5Z" fill="black"/>
<path d="M150 175H162.5V200H150V175Z" fill="black"/>
<path d="M150 150H175V162.5H150V150Z" fill="black"/>
<path d="M137.5 162.5H150V175H137.5V162.5Z" fill="black"/>
<path d="M125 150H137.5V162.5H125V150Z" fill="black"/>
<path d="M175 125V137.5H187.5V150H200V125H187.5H175Z" fill="black"/>
<path d="M187.5 162.5H175V200H200V175H187.5V162.5Z" fill="black"/>
<path d="M125 125V137.5H162.5V112.5H137.5V125H125Z" fill="black"/>
<path d="M150 87.5V100H175V112.5H200V87.5H175H150Z" fill="black"/>
</g>
<defs>
<clipPath id="clip0_3616_37643">
<rect width="200" height="200" fill="white"/>
</clipPath>
</defs>
</svg>
