<svg width="38" height="56" viewBox="0 0 38 56" fill="none" xmlns="http://www.w3.org/2000/svg">
<path d="M2.95833 13.4167H35.0417M2.95833 42.5833H35.0417M19 28C14.3587 28 9.90752 29.8437 6.62563 33.1256C3.34375 36.4075 1.5 40.8587 1.5 45.5V51.3333C1.5 52.1069 1.80729 52.8488 2.35427 53.3957C2.90125 53.9427 3.64312 54.25 4.41667 54.25H33.5833C34.3569 54.25 35.0988 53.9427 35.6457 53.3957C36.1927 52.8488 36.5 52.1069 36.5 51.3333V45.5C36.5 40.8587 34.6563 36.4075 31.3744 33.1256C28.0925 29.8437 23.6413 28 19 28ZM19 28C14.3587 28 9.90752 26.1563 6.62563 22.8744C3.34375 19.5925 1.5 15.1413 1.5 10.5V4.66667C1.5 3.89312 1.80729 3.15125 2.35427 2.60427C2.90125 2.05729 3.64312 1.75 4.41667 1.75H33.5833C34.3569 1.75 35.0988 2.05729 35.6457 2.60427C36.1927 3.15125 36.5 3.89312 36.5 4.66667V10.5C36.5 15.1413 34.6563 19.5925 31.3744 22.8744C28.0925 26.1563 23.6413 28 19 28Z" stroke="#00B3D3" stroke-width="3" stroke-linecap="round" stroke-linejoin="round"/>
</svg>
