<svg width="24" height="24" viewBox="0 0 24 24" fill="none" xmlns="http://www.w3.org/2000/svg">
<path d="M12 16.5C11.11 16.5 10.24 16.2361 9.49994 15.7416C8.75991 15.2471 8.18314 14.5443 7.84254 13.7221C7.50195 12.8998 7.41283 11.995 7.58647 11.1221C7.7601 10.2492 8.18868 9.44736 8.81802 8.81802C9.44736 8.18868 10.2492 7.7601 11.1221 7.58647C11.995 7.41283 12.8998 7.50195 13.7221 7.84254C14.5443 8.18314 15.2471 8.75991 15.7416 9.49994C16.2361 10.24 16.5 11.11 16.5 12C16.5064 12.5927 16.3944 13.1808 16.1705 13.7297C15.9467 14.2785 15.6155 14.7772 15.1963 15.1963C14.7772 15.6155 14.2785 15.9467 13.7297 16.1705C13.1808 16.3944 12.5927 16.5064 12 16.5ZM12 9C11.6036 8.99098 11.2094 9.06241 10.8414 9.20998C10.4733 9.35755 10.139 9.5782 9.85859 9.85859C9.5782 10.139 9.35755 10.4733 9.20998 10.8414C9.06241 11.2094 8.99098 11.6036 9 12C8.99098 12.3964 9.06241 12.7906 9.20998 13.1586C9.35755 13.5267 9.5782 13.861 9.85859 14.1414C10.139 14.4218 10.4733 14.6425 10.8414 14.79C11.2094 14.9376 11.6036 15.009 12 15C12.3964 15.009 12.7906 14.9376 13.1586 14.79C13.5267 14.6425 13.861 14.4218 14.1414 14.1414C14.4218 13.861 14.6425 13.5267 14.79 13.1586C14.9376 12.7906 15.009 12.3964 15 12C15.009 11.6036 14.9376 11.2094 14.79 10.8414C14.6425 10.4733 14.4218 10.139 14.1414 9.85859C13.861 9.5782 13.5267 9.35755 13.1586 9.20998C12.7906 9.06241 12.3964 8.99098 12 9Z" fill="#44566C"/>
<path d="M21.9786 8.283L20.2086 5.217C20.0354 4.91639 19.7631 4.68521 19.4384 4.56293C19.1137 4.44065 18.7566 4.43485 18.4281 4.5465L16.6026 5.16375C16.288 4.95194 15.9593 4.762 15.6186 4.59525L15.2414 2.706C15.1734 2.36583 14.9896 2.05975 14.7213 1.83985C14.453 1.61996 14.1168 1.49986 13.7699 1.5H10.2299C9.88298 1.49986 9.54676 1.61996 9.27846 1.83985C9.01016 2.05975 8.82637 2.36583 8.75838 2.706L8.38113 4.59525C8.03667 4.76017 7.70412 4.94887 7.38588 5.16L5.57088 4.5465C5.24256 4.43524 4.88582 4.44125 4.56143 4.56351C4.23705 4.68577 3.96509 4.91671 3.79188 5.217L2.02188 8.283C1.84849 8.58322 1.78444 8.93423 1.84064 9.27634C1.89684 9.61845 2.06981 9.93053 2.33013 10.1595L3.77838 11.4323C3.76563 11.6213 3.74988 11.8088 3.74988 12C3.74988 12.1935 3.75738 12.3848 3.77088 12.5745L2.33088 13.8405C2.07032 14.0693 1.89706 14.3813 1.84059 14.7234C1.78411 15.0655 1.84791 15.4166 2.02113 15.717L3.79113 18.783C3.96428 19.0837 4.23644 19.3151 4.56116 19.4375C4.88588 19.5599 5.24303 19.5658 5.57163 19.4543L7.39713 18.8363C7.71162 19.0485 8.0404 19.2387 8.38113 19.4055L8.75838 21.294C8.82637 21.6342 9.01016 21.9403 9.27846 22.1601C9.54676 22.38 9.88298 22.5001 10.2299 22.5H13.4999V21H10.2299L9.69738 18.3375C8.96075 18.0639 8.27694 17.665 7.67613 17.1585L5.09088 18.033L3.32088 14.967L5.36463 13.1708C5.2248 12.3952 5.22303 11.601 5.35938 10.8247L3.32088 9.033L5.09088 5.967L7.66113 6.837C8.26623 6.3298 8.95536 5.93231 9.69738 5.6625L10.2299 3H13.7699L14.3024 5.6625C15.039 5.93618 15.7228 6.33505 16.3236 6.8415L18.9089 5.967L20.6789 9.033L18.5804 10.872L19.5689 12L21.6689 10.1595C21.9294 9.93072 22.1027 9.61873 22.1592 9.27662C22.2156 8.9345 22.1518 8.58338 21.9786 8.283Z" fill="#44566C"/>
<path d="M17.25 19.6349L15.3075 17.6924L14.25 18.7499L17.25 21.7499L22.5 16.4999L21.4425 15.4424L17.25 19.6349Z" fill="#44566C"/>
</svg>
