<svg width="17" height="18" viewBox="0 0 17 18" fill="none" xmlns="http://www.w3.org/2000/svg">
<path d="M2.99967 13.1667C2.0792 13.1667 1.33301 13.9129 1.33301 14.8333C1.33301 15.7538 2.0792 16.5 2.99967 16.5C3.92015 16.5 4.66634 15.7538 4.66634 14.8333C4.66634 13.9129 3.92015 13.1667 2.99967 13.1667ZM2.99967 13.1667H12.1663M2.99967 13.1667V1.5H1.33301M12.1663 13.1667C11.2459 13.1667 10.4997 13.9129 10.4997 14.8333C10.4997 15.7538 11.2459 16.5 12.1663 16.5C13.0868 16.5 13.833 15.7538 13.833 14.8333C13.833 13.9129 13.0868 13.1667 12.1663 13.1667ZM2.99967 3.16667L8.00384 3.52417M13.9522 9.00167L13.833 9.83333H2.99967M10.4997 4H15.4997M12.9997 1.5V6.5" stroke="#00B8BA" stroke-width="1.5" stroke-linecap="round" stroke-linejoin="round"/>
</svg>
