<svg width="14" height="14" viewBox="0 0 14 14" fill="none" xmlns="http://www.w3.org/2000/svg">
<path d="M5 8.33333C5 9.438 6.79067 10.3333 9 10.3333C11.2093 10.3333 13 9.438 13 8.33333M5 8.33333C5 7.22867 6.79067 6.33333 9 6.33333C11.2093 6.33333 13 7.22867 13 8.33333M5 8.33333V11C5 12.104 6.79067 13 9 13C11.2093 13 13 12.104 13 11V8.33333M1 3C1 3.71467 1.76267 4.37467 3 4.732C4.23733 5.08933 5.76267 5.08933 7 4.732C8.23733 4.37467 9 3.71467 9 3C9 2.28533 8.23733 1.62533 7 1.268C5.76267 0.910667 4.23733 0.910667 3 1.268C1.76267 1.62533 1 2.28533 1 3ZM1 3V9.66667C1 10.2587 1.51467 10.6333 2.33333 11M1 6.33333C1 6.92533 1.51467 7.3 2.33333 7.66667" stroke="#525A84" stroke-linecap="round" stroke-linejoin="round"/>
</svg>
